{"glyphs":{"0":{"ha":752,"x_min":52,"x_max":696,"o":"m 52 466 q 142 814 52 695 q 374 934 231 934 q 605 816 513 934 q 696 473 696 698 q 607 99 696 218 q 375 -20 519 -20 q 196 44 273 -20 q 86 208 119 108 q 52 466 52 308 m 280 465 q 298 152 280 244 q 378 60 317 60 q 450 134 431 60 q 469 458 469 208 q 449 776 469 696 q 372 857 429 857 q 301 780 322 857 q 280 465 280 704 z "},"1":{"ha":752,"x_min":144,"x_max":612,"o":"m 157 0 l 157 75 l 191 75 q 254 90 233 75 q 275 157 275 104 l 275 673 q 256 764 275 746 q 144 781 236 781 l 144 854 q 425 936 323 861 l 496 936 l 496 161 q 512 95 496 115 q 578 75 527 75 l 612 75 l 612 0 l 157 0 z "},"2":{"ha":752,"x_min":79,"x_max":684,"o":"m 81 0 l 81 64 q 448 677 448 397 q 414 804 448 756 q 326 851 381 851 q 248 819 280 851 q 216 745 216 787 q 241 658 216 695 q 246 646 246 650 q 230 632 246 638 q 175 609 219 628 q 122 590 132 590 q 94 628 110 590 q 79 709 79 665 q 165 871 79 808 q 379 934 252 934 q 590 866 505 934 q 675 688 675 798 q 646 562 675 623 q 508 373 617 500 q 295 138 399 246 l 684 138 l 649 -56 l 577 -56 q 581 -30 581 -41 q 571 -5 581 -10 q 530 0 561 0 l 81 0 z "},"3":{"ha":752,"x_min":41,"x_max":671,"o":"m 456 542 q 608 481 545 540 q 671 317 671 422 q 555 73 671 165 q 277 -20 440 -20 q 108 19 174 -20 q 41 121 41 58 q 69 185 41 161 q 129 209 96 209 q 182 189 161 209 q 220 122 203 168 q 299 58 244 58 q 403 106 363 58 q 443 282 443 155 q 431 416 443 369 q 374 463 418 463 q 313 431 345 463 q 269 406 288 406 q 241 421 252 406 q 231 450 231 436 q 241 477 231 466 q 290 515 252 489 q 437 728 437 612 q 406 820 437 788 q 330 851 374 851 q 256 824 290 851 q 223 760 223 798 q 249 700 223 728 q 258 683 258 690 q 200 652 258 677 q 127 627 142 627 q 93 661 106 627 q 79 723 79 694 q 174 873 79 812 q 389 934 269 934 q 571 888 494 934 q 648 764 648 843 q 590 636 648 695 q 456 542 532 577 z "},"4":{"ha":752,"x_min":47,"x_max":699,"o":"m 358 314 l 47 314 l 47 416 l 461 930 l 579 930 l 579 408 l 699 408 l 699 314 l 579 314 l 579 178 q 584 114 579 130 q 610 87 589 99 q 664 75 631 75 l 699 75 l 699 0 l 235 0 l 235 75 l 269 75 q 330 86 312 75 q 353 112 349 98 q 358 172 358 125 l 358 314 m 358 408 l 358 682 l 134 408 l 358 408 z "},"5":{"ha":752,"x_min":38,"x_max":666,"o":"m 121 463 l 137 922 l 596 922 q 546 813 565 844 q 518 781 528 781 q 457 781 508 781 l 207 781 l 201 564 q 363 619 269 619 q 573 539 481 619 q 666 318 666 460 q 553 70 666 160 q 286 -20 441 -20 q 109 22 179 -20 q 38 125 38 64 q 63 181 38 157 q 121 204 88 204 q 208 134 172 204 q 309 60 245 60 q 403 113 372 60 q 435 318 435 166 q 406 485 435 437 q 312 534 376 534 q 207 463 243 534 l 121 463 z "},"6":{"ha":752,"x_min":74,"x_max":707,"o":"m 305 553 q 431 585 363 585 q 625 511 543 585 q 707 296 707 437 q 610 61 707 142 q 397 -20 513 -20 q 168 85 262 -20 q 74 382 74 189 q 121 656 74 526 q 275 860 169 786 q 502 934 380 934 q 633 902 581 934 q 686 825 686 871 q 664 771 686 795 q 608 746 641 746 q 521 808 564 746 q 445 852 490 852 q 352 777 387 852 q 305 553 317 703 m 293 287 q 317 111 293 165 q 394 57 342 57 q 460 99 439 57 q 481 258 481 141 q 456 461 481 415 q 385 508 431 508 q 331 486 353 508 q 301 427 309 463 q 293 287 293 391 z "},"7":{"ha":752,"x_min":64,"x_max":693,"o":"m 553 751 l 237 751 q 171 739 190 751 q 138 680 151 727 l 64 680 l 155 958 l 230 958 q 228 945 228 950 q 267 922 228 922 l 693 922 l 436 106 q 387 5 412 31 q 321 -20 361 -20 q 251 2 279 -20 q 223 62 223 24 q 271 189 223 94 l 553 751 z "},"8":{"ha":752,"x_min":54,"x_max":703,"o":"m 280 490 q 128 565 179 511 q 77 703 77 618 q 162 878 77 817 q 374 939 246 939 q 594 877 511 939 q 677 703 677 815 q 629 569 677 623 q 484 490 581 516 q 648 413 593 473 q 703 250 703 353 q 610 51 703 122 q 387 -20 517 -20 q 146 49 239 -20 q 54 248 54 117 q 104 405 54 339 q 280 490 154 470 m 292 711 q 312 557 292 591 q 378 523 332 523 q 443 562 425 523 q 462 713 462 602 q 439 833 462 804 q 376 863 416 863 q 312 833 332 863 q 292 711 292 804 m 279 268 q 300 99 279 142 q 379 56 320 56 q 452 90 426 56 q 477 245 477 124 q 452 416 477 383 q 375 448 427 448 q 299 410 318 448 q 279 268 279 371 z "},"9":{"ha":752,"x_min":74,"x_max":707,"o":"m 474 358 q 418 332 448 340 q 354 323 388 323 q 156 402 239 323 q 74 616 74 481 q 171 853 74 772 q 389 934 268 934 q 617 830 526 934 q 707 522 707 726 q 590 129 707 278 q 282 -20 472 -20 q 142 12 190 -20 q 95 89 95 43 q 118 141 95 119 q 172 163 141 163 q 217 150 199 163 q 261 102 236 137 q 335 61 291 61 q 428 126 395 61 q 474 358 460 192 m 302 619 q 323 452 302 500 q 395 404 345 404 q 466 447 444 404 q 488 598 488 490 q 464 804 488 751 q 391 857 439 857 q 341 839 364 857 q 310 780 318 820 q 302 619 302 739 z "},"\u0000":{"ha":0,"x_min":0,"x_max":0,"o":""},"\b":{"ha":0,"x_min":0,"x_max":0,"o":""},"\t":{"ha":347,"x_min":0,"x_max":0,"o":""},"\r":{"ha":347,"x_min":0,"x_max":0,"o":""},"\u001d":{"ha":0,"x_min":0,"x_max":0,"o":""}," ":{"ha":347,"x_min":0,"x_max":0,"o":""},"!":{"ha":463,"x_min":107,"x_max":353,"o":"m 193 303 l 130 764 q 123 832 123 810 q 230 936 123 936 q 338 843 338 936 q 332 768 338 814 l 269 303 l 193 303 m 107 98 q 143 185 107 149 q 230 221 179 221 q 317 185 281 221 q 353 98 353 149 q 316 12 353 47 q 230 -24 280 -24 q 143 12 180 -24 q 107 98 107 47 z "},"\"":{"ha":767,"x_min":120,"x_max":648,"o":"m 564 481 l 531 481 l 462 742 q 446 832 446 801 q 475 902 446 871 q 549 934 504 934 q 621 903 594 934 q 648 833 648 871 q 630 742 648 812 l 564 481 m 237 481 l 204 481 l 134 743 q 120 831 120 793 q 149 904 120 873 q 220 934 178 934 q 293 904 267 934 q 320 833 320 873 q 304 741 320 804 l 237 481 z "},"#":{"ha":926,"x_min":52,"x_max":873,"o":"m 52 690 l 261 690 l 318 949 l 446 949 l 389 690 l 630 690 l 686 949 l 814 949 l 758 690 l 873 690 l 873 562 l 734 562 l 691 356 l 873 356 l 873 228 l 667 228 l 611 -30 l 482 -30 l 538 228 l 295 228 l 242 -30 l 113 -30 l 168 228 l 52 228 l 52 356 l 194 356 l 237 562 l 52 562 l 52 690 m 365 562 l 322 357 l 564 357 l 606 562 l 365 562 z "},"$":{"ha":724,"x_min":58,"x_max":672,"o":"m 308 -20 q 128 29 198 -14 q 58 130 58 72 q 78 183 58 159 q 136 207 98 207 q 218 145 189 207 q 308 60 252 71 l 308 368 q 113 503 158 432 q 67 645 67 573 q 127 804 67 732 q 308 891 188 876 l 308 936 l 386 936 l 386 895 q 562 843 485 895 q 640 726 640 791 q 617 671 640 694 q 566 649 594 649 q 475 744 509 649 q 386 820 453 808 l 386 563 q 615 421 557 492 q 672 260 672 350 q 599 80 672 159 q 386 -17 526 1 l 386 -183 l 308 -183 l 308 -20 m 308 596 l 308 819 q 217 715 217 799 q 308 596 217 638 m 386 331 l 386 58 q 476 99 442 66 q 511 184 511 132 q 490 255 511 222 q 386 331 470 288 z "},"%":{"ha":1375,"x_min":108,"x_max":1256,"o":"m 108 683 q 168 864 108 799 q 333 929 228 929 q 508 858 450 929 q 565 687 565 787 q 503 512 565 578 q 343 446 441 446 q 166 516 225 446 q 108 683 108 585 m 280 692 q 293 529 280 567 q 337 492 306 492 q 377 534 363 492 q 390 661 390 576 q 378 835 390 786 q 332 884 366 884 q 291 848 301 884 q 280 692 280 812 m 406 0 l 879 922 l 977 922 l 504 0 l 406 0 m 799 218 q 859 399 799 334 q 1023 464 919 464 q 1199 393 1141 464 q 1256 222 1256 321 q 1194 47 1256 113 q 1034 -19 1132 -19 q 859 48 919 -19 q 799 218 799 115 m 971 227 q 985 61 971 96 q 1028 26 999 26 q 1068 68 1055 26 q 1081 196 1081 111 q 1069 370 1081 321 q 1023 418 1057 418 q 982 383 992 418 q 971 227 971 347 z "},"&":{"ha":1071,"x_min":62,"x_max":1035,"o":"m 600 83 q 335 -20 463 -20 q 143 53 224 -20 q 62 227 62 126 q 275 502 62 383 q 207 694 207 610 q 269 847 207 792 q 436 902 332 902 q 588 857 530 902 q 646 734 646 812 q 499 535 646 611 l 686 290 q 760 440 760 395 q 701 488 760 486 l 701 562 l 977 562 l 977 488 q 899 451 927 477 q 828 355 871 424 q 739 224 781 278 q 821 130 791 155 q 882 105 850 105 q 960 200 950 105 l 1035 200 q 970 35 1033 87 q 819 -18 908 -18 q 600 83 699 -18 m 446 605 q 528 726 528 662 q 503 798 528 771 q 441 824 477 824 q 391 807 413 824 q 370 755 370 791 q 446 605 370 696 m 541 144 l 323 430 q 256 322 256 388 q 311 178 256 250 q 441 105 367 105 q 541 144 496 105 z "},"'":{"ha":391,"x_min":96,"x_max":296,"o":"m 213 482 l 180 482 l 109 741 q 96 829 96 790 q 124 903 96 873 q 195 934 152 934 q 269 903 242 934 q 296 831 296 873 q 280 742 296 803 l 213 482 z "},"(":{"ha":477,"x_min":132,"x_max":444,"o":"m 444 -338 l 338 -338 q 132 296 132 -63 q 186 645 132 475 q 338 936 239 816 l 444 936 q 243 297 243 649 q 444 -338 243 -42 z "},")":{"ha":477,"x_min":35,"x_max":346,"o":"m 35 -338 q 235 297 235 -42 q 35 936 235 649 l 140 936 q 292 645 239 816 q 346 296 346 475 q 140 -338 346 -63 l 35 -338 z "},"*":{"ha":738,"x_min":33,"x_max":699,"o":"m 367 530 q 313 401 334 505 q 221 286 290 286 q 151 314 182 286 q 119 378 119 342 q 209 481 119 429 q 313 567 296 532 q 231 581 291 581 q 184 577 214 581 q 136 574 151 574 q 33 659 33 574 q 58 727 33 696 q 117 757 83 757 q 220 701 157 757 q 331 631 296 634 q 334 661 334 647 q 295 785 334 691 q 275 855 275 834 q 298 912 275 888 q 363 936 321 936 q 429 914 406 936 q 452 857 452 892 q 427 766 452 828 q 396 656 396 692 q 399 631 396 646 q 513 707 442 644 q 611 761 571 761 q 674 729 650 761 q 699 660 699 696 q 672 599 699 622 q 604 576 645 576 q 560 579 593 576 q 494 583 524 583 q 416 567 445 583 q 511 486 445 524 q 591 431 571 452 q 611 380 611 410 q 578 316 611 345 q 509 287 546 287 q 450 317 471 287 q 413 423 429 347 q 367 530 397 497 z "},"+":{"ha":926,"x_min":86,"x_max":840,"o":"m 86 527 l 392 527 l 392 833 l 534 833 l 534 527 l 840 527 l 840 386 l 534 386 l 534 81 l 392 81 l 392 386 l 86 386 l 86 527 z "},",":{"ha":463,"x_min":81,"x_max":366,"o":"m 93 -270 l 93 -189 q 212 -148 157 -189 q 267 -50 267 -106 q 239 -16 267 -16 q 215 -20 233 -16 q 185 -24 196 -24 q 114 6 147 -24 q 81 89 81 36 q 115 177 81 140 q 209 214 149 214 q 324 160 281 214 q 366 13 366 106 q 286 -192 366 -118 q 93 -270 206 -267 z "},"-":{"ha":477,"x_min":42,"x_max":443,"o":"m 42 184 l 42 368 l 443 368 l 443 184 l 42 184 z "},".":{"ha":463,"x_min":108,"x_max":353,"o":"m 108 98 q 144 185 108 149 q 231 221 180 221 q 317 185 281 221 q 353 98 353 149 q 317 12 353 47 q 231 -24 281 -24 q 144 12 180 -24 q 108 98 108 47 z "},"/":{"ha":868,"x_min":92,"x_max":777,"o":"m 583 934 l 777 934 l 286 -20 l 92 -20 l 583 934 z "},":":{"ha":463,"x_min":111,"x_max":356,"o":"m 111 454 q 145 540 111 503 q 233 577 180 577 q 320 541 284 577 q 356 454 356 505 q 320 368 356 404 q 233 332 283 332 q 147 368 183 332 q 111 454 111 404 m 111 98 q 146 185 111 149 q 233 221 182 221 q 320 185 284 221 q 356 98 356 149 q 320 12 356 47 q 233 -24 283 -24 q 147 12 183 -24 q 111 98 111 47 z "},";":{"ha":463,"x_min":92,"x_max":376,"o":"m 107 455 q 143 542 107 505 q 230 578 180 578 q 317 542 281 578 q 353 455 353 505 q 317 368 353 404 q 230 332 281 332 q 142 369 178 332 q 107 455 107 406 m 103 -270 l 103 -189 q 222 -148 167 -189 q 277 -50 277 -106 q 250 -16 277 -16 q 225 -20 243 -16 q 195 -24 206 -24 q 124 6 157 -24 q 92 89 92 36 q 125 177 92 140 q 219 214 159 214 q 334 160 292 214 q 376 13 376 106 q 296 -192 376 -118 q 103 -270 216 -267 z "},"<":{"ha":926,"x_min":86,"x_max":839,"o":"m 839 79 l 86 393 l 86 521 l 839 836 l 839 682 l 279 457 l 839 232 l 839 79 z "},"=":{"ha":926,"x_min":86,"x_max":840,"o":"m 86 690 l 840 690 l 840 548 l 86 548 l 86 690 m 86 366 l 840 366 l 840 224 l 86 224 l 86 366 z "},">":{"ha":926,"x_min":86,"x_max":839,"o":"m 86 836 l 839 522 l 839 393 l 86 79 l 86 232 l 646 457 l 86 682 l 86 836 z "},"?":{"ha":665,"x_min":57,"x_max":608,"o":"m 199 305 l 199 530 l 263 530 q 311 507 281 507 q 371 543 349 507 q 392 644 392 578 q 365 805 392 751 q 284 859 338 859 q 213 798 231 859 q 132 720 191 720 q 81 739 104 720 q 57 787 57 758 q 127 890 57 844 q 304 936 197 936 q 525 859 442 936 q 608 659 608 782 q 537 481 608 547 q 368 416 465 416 q 283 430 328 416 l 283 305 l 199 305 m 119 98 q 155 185 119 149 q 241 221 191 221 q 328 185 292 221 q 364 98 364 149 q 328 11 364 47 q 241 -24 292 -24 q 154 12 189 -24 q 119 98 119 49 z "},"@":{"ha":1288,"x_min":62,"x_max":1261,"o":"m 800 627 l 965 634 l 841 208 q 820 104 820 138 q 836 65 820 81 q 876 49 852 49 q 1002 108 927 49 q 1122 265 1078 168 q 1167 470 1167 362 q 1049 775 1167 652 q 730 898 931 898 q 299 713 465 898 q 134 272 134 528 q 204 -10 134 111 q 396 -197 275 -132 q 667 -262 518 -262 q 1004 -160 850 -262 q 1220 112 1159 -58 l 1261 112 q 1025 -193 1183 -86 q 663 -300 867 -300 q 235 -135 408 -300 q 62 296 62 30 q 247 755 62 570 q 718 941 431 941 q 1076 811 945 941 q 1206 481 1206 681 q 1090 142 1206 285 q 799 0 975 0 q 693 36 726 0 q 661 121 661 73 q 677 214 661 155 q 444 0 553 0 q 358 43 387 0 q 330 153 330 87 q 376 369 330 258 q 515 567 422 480 q 680 653 607 653 q 746 627 722 653 q 777 547 770 600 l 800 627 m 745 513 q 732 579 745 555 q 697 604 718 604 q 572 445 640 604 q 505 189 505 286 q 515 143 505 162 q 544 124 526 124 q 621 183 571 124 q 708 339 671 241 q 745 513 745 437 z "},"A":{"ha":882,"x_min":-28,"x_max":911,"o":"m 216 248 l 199 203 q 180 135 180 155 q 202 89 180 102 q 275 75 224 75 l 275 0 l -28 0 l -28 75 q 117 223 58 75 l 400 936 l 479 936 l 768 224 q 845 97 810 118 q 911 75 880 75 l 911 0 l 455 0 l 455 75 q 532 87 517 75 q 547 117 547 99 q 534 160 547 134 l 526 181 l 499 248 l 216 248 m 245 326 l 469 326 l 354 601 l 245 326 z "},"B":{"ha":955,"x_min":35,"x_max":892,"o":"m 621 489 q 824 402 756 465 q 892 241 892 340 q 805 64 892 129 q 517 0 718 0 l 35 0 l 35 75 q 131 98 107 75 q 155 188 155 121 l 155 727 q 132 816 155 792 q 35 840 110 840 l 35 915 l 388 925 l 438 925 q 764 866 677 925 q 850 704 850 806 q 793 573 850 627 q 621 489 736 519 m 395 528 l 442 528 q 553 563 517 528 q 590 684 590 598 q 567 786 590 749 q 506 834 544 823 q 395 845 469 845 l 395 528 m 395 446 l 395 184 q 403 127 395 146 q 434 94 411 107 q 498 81 456 81 q 594 126 562 81 q 627 262 627 172 q 606 376 627 335 q 548 431 585 417 q 439 446 511 446 l 395 446 z "},"C":{"ha":1042,"x_min":64,"x_max":951,"o":"m 951 353 l 951 8 l 876 8 q 837 96 863 63 q 534 -19 722 -19 q 193 121 321 -19 q 64 452 64 260 q 191 789 64 642 q 542 936 318 936 q 826 825 709 936 q 854 907 842 860 l 929 907 l 939 568 l 864 568 q 755 777 831 706 q 576 848 680 848 q 396 754 456 848 q 336 462 336 661 q 357 240 336 322 q 443 115 379 159 q 583 71 507 71 q 762 140 684 71 q 876 353 841 210 l 951 353 z "},"D":{"ha":1114,"x_min":41,"x_max":1043,"o":"m 41 0 l 41 75 q 137 98 113 75 q 161 188 161 121 l 161 732 q 138 821 161 798 q 41 845 116 845 l 41 920 l 151 924 q 413 930 318 930 q 671 912 572 930 q 859 832 770 894 q 995 671 947 770 q 1043 454 1043 572 q 992 237 1043 332 q 857 84 942 141 q 680 14 771 27 q 372 0 588 0 l 41 0 m 401 848 l 401 214 q 407 132 401 153 q 438 96 413 111 q 514 81 463 81 q 705 175 642 81 q 768 455 768 269 q 722 695 768 606 q 600 816 675 784 q 401 848 526 848 z "},"E":{"ha":926,"x_min":31,"x_max":878,"o":"m 399 439 l 399 212 q 406 127 399 147 q 446 94 414 107 q 545 81 479 81 q 678 103 635 81 q 754 182 720 125 q 802 302 787 238 l 878 302 l 872 0 l 31 0 l 31 75 l 48 75 q 137 101 117 75 q 158 188 158 126 l 158 733 q 137 821 158 796 q 48 846 115 846 l 31 846 l 31 920 l 814 920 l 828 682 l 752 682 q 707 781 732 744 q 656 828 682 818 q 570 839 631 839 l 399 839 l 399 522 l 484 522 q 565 545 545 522 q 588 635 585 568 l 665 635 l 665 323 l 588 323 q 589 336 589 332 q 572 408 589 376 q 487 439 555 439 l 399 439 z "},"F":{"ha":810,"x_min":32,"x_max":809,"o":"m 399 439 l 399 188 q 420 100 399 125 q 511 75 442 75 l 530 75 l 530 0 l 35 0 l 35 75 l 48 75 q 137 101 117 75 q 158 188 158 126 l 158 733 q 137 821 158 796 q 48 846 115 846 l 32 846 l 32 920 l 803 920 l 809 676 l 732 676 q 689 777 715 739 q 634 827 663 816 q 547 839 606 839 l 399 839 l 399 522 l 471 522 q 543 544 523 522 q 568 634 563 566 l 644 634 l 644 318 l 568 318 q 544 415 564 392 q 470 439 524 439 l 399 439 z "},"G":{"ha":1099,"x_min":65,"x_max":1071,"o":"m 640 350 l 640 425 l 1071 425 l 1071 350 q 1004 320 1019 341 q 988 231 988 298 l 988 39 q 953 40 966 40 q 726 5 886 40 q 534 -19 611 -19 q 195 121 324 -19 q 65 448 65 261 q 202 792 65 648 q 541 936 338 936 q 830 831 705 936 q 857 926 852 876 l 929 926 l 937 605 l 863 605 q 591 840 793 840 q 407 751 470 840 q 343 452 343 662 q 362 229 343 305 q 434 110 380 152 q 572 68 487 68 q 696 100 647 68 q 746 229 746 133 l 746 262 q 640 350 746 343 z "},"H":{"ha":1172,"x_min":38,"x_max":1138,"o":"m 399 441 l 399 188 q 421 99 399 123 q 517 75 444 75 l 517 0 l 38 0 l 38 75 q 135 98 111 75 q 159 188 159 121 l 159 732 q 136 821 159 797 q 38 844 113 844 l 38 920 l 517 920 l 517 844 q 422 821 446 844 q 399 732 399 798 l 399 526 l 777 526 l 777 732 q 754 820 777 795 q 660 844 732 844 l 660 920 l 1138 920 l 1138 844 q 1041 822 1065 844 q 1017 732 1017 800 l 1017 188 q 1040 99 1017 122 q 1138 75 1063 75 l 1138 0 l 660 0 l 660 75 q 754 99 731 75 q 777 188 777 123 l 777 441 l 399 441 z "},"I":{"ha":564,"x_min":37,"x_max":523,"o":"m 37 844 l 37 920 l 523 920 l 523 844 l 509 844 q 419 819 440 844 q 399 732 399 793 l 399 188 q 420 100 399 125 q 509 75 441 75 l 523 75 l 523 0 l 37 0 l 37 75 q 134 98 110 75 q 158 188 158 120 l 158 732 q 135 821 158 798 q 37 844 113 844 z "},"J":{"ha":535,"x_min":-218,"x_max":513,"o":"m 16 844 l 16 920 l 513 920 l 513 844 q 415 822 439 844 q 391 732 391 800 l 391 73 q 362 -148 391 -69 q 245 -277 333 -227 q 25 -328 158 -328 q -151 -291 -83 -328 q -218 -191 -218 -254 q -182 -119 -218 -146 q -99 -92 -147 -92 q -24 -114 -52 -92 q 3 -175 3 -136 q -2 -205 3 -186 q -5 -221 -5 -216 q 46 -252 -5 -252 q 127 -201 104 -252 q 151 10 151 -151 l 151 732 q 129 820 151 795 q 40 844 108 844 l 16 844 z "},"K":{"ha":1056,"x_min":28,"x_max":1130,"o":"m 394 363 l 394 188 q 415 100 394 124 q 508 75 437 75 l 508 0 l 28 0 l 28 75 l 43 75 q 133 101 112 75 q 153 188 153 126 l 153 732 q 132 820 153 795 q 43 844 111 844 l 28 844 l 28 920 l 519 920 l 519 844 l 504 844 q 415 819 435 844 q 394 732 394 793 l 394 475 l 643 705 q 708 802 708 764 q 626 844 708 844 l 626 920 l 1033 920 l 1033 844 q 916 816 977 844 q 743 684 855 787 l 660 606 l 913 231 q 1018 105 977 136 q 1130 75 1060 75 l 1130 0 l 602 0 l 602 75 q 705 117 705 75 q 663 195 705 134 l 488 450 l 394 363 z "},"L":{"ha":882,"x_min":31,"x_max":873,"o":"m 873 306 l 869 0 l 31 0 l 31 75 l 44 75 q 134 101 113 75 q 155 188 155 126 l 155 732 q 133 820 155 795 q 44 844 111 844 l 31 844 l 31 920 l 524 920 l 524 844 l 505 844 q 415 819 436 844 q 395 732 395 793 l 395 207 q 401 129 395 148 q 437 96 408 110 q 538 82 466 82 q 718 143 659 82 q 800 306 778 203 l 873 306 z "},"M":{"ha":1375,"x_min":31,"x_max":1341,"o":"m 575 0 l 233 717 l 233 241 q 242 148 233 178 q 283 96 251 117 q 361 75 315 75 l 361 0 l 31 0 l 31 75 q 106 98 74 75 q 145 150 138 121 q 152 245 152 180 l 152 728 q 128 821 152 798 q 31 844 104 844 l 31 920 l 399 920 l 682 315 l 968 920 l 1338 920 l 1338 844 l 1320 844 q 1230 819 1251 844 q 1209 732 1209 793 l 1209 188 q 1231 100 1209 125 q 1320 75 1252 75 l 1341 75 l 1341 0 l 840 0 l 840 75 l 859 75 q 948 101 927 75 q 968 188 968 126 l 968 728 l 628 0 l 575 0 z "},"N":{"ha":1085,"x_min":32,"x_max":1050,"o":"m 250 658 l 250 235 q 287 104 250 134 q 382 75 324 75 l 382 0 l 37 0 l 37 75 q 113 97 81 75 q 155 146 146 118 q 163 235 163 174 l 163 704 q 32 844 163 844 l 32 920 l 342 920 l 846 357 l 846 694 q 720 844 846 844 l 720 920 l 1050 920 l 1050 844 q 985 825 1015 844 q 944 777 955 806 q 933 691 933 747 l 933 -15 l 846 -15 l 250 658 z "},"O":{"ha":1158,"x_min":64,"x_max":1093,"o":"m 64 463 q 134 705 64 587 q 321 879 203 823 q 574 936 439 936 q 955 796 817 936 q 1093 452 1093 656 q 956 120 1093 259 q 581 -19 818 -19 q 295 50 419 -19 q 117 234 170 118 q 64 463 64 349 m 348 470 q 405 164 348 258 q 574 70 462 70 q 751 156 692 70 q 811 456 811 241 q 755 750 811 653 q 577 847 699 847 q 405 757 462 847 q 348 470 348 667 z "},"P":{"ha":882,"x_min":21,"x_max":878,"o":"m 394 407 l 394 188 q 415 100 394 125 q 505 75 437 75 l 526 75 l 526 0 l 27 0 l 27 75 l 43 75 q 133 101 112 75 q 153 188 153 126 l 153 732 q 132 820 153 795 q 43 844 111 844 l 21 844 l 21 920 l 394 928 q 610 920 534 928 q 750 879 686 913 q 846 789 814 845 q 878 667 878 733 q 822 512 878 576 q 683 428 766 448 q 462 407 599 407 l 394 407 m 394 488 l 439 488 q 583 535 547 488 q 618 661 618 583 q 592 775 618 732 q 525 832 566 819 q 394 846 484 846 l 394 488 z "},"Q":{"ha":1158,"x_min":64,"x_max":1320,"o":"m 728 -3 l 625 -67 q 644 -65 637 -65 q 840 -121 709 -65 q 1070 -178 969 -178 q 1171 -157 1127 -178 q 1246 -97 1215 -137 l 1320 -97 q 1223 -283 1302 -213 q 1016 -354 1145 -354 q 869 -327 926 -354 q 741 -233 811 -299 q 647 -160 685 -180 q 567 -140 609 -140 q 457 -191 506 -140 q 384 -239 411 -239 q 353 -225 366 -239 q 340 -193 340 -212 q 379 -133 340 -165 q 505 -50 418 -100 q 557 -19 538 -32 q 334 30 454 -19 q 139 197 214 79 q 64 454 64 315 q 205 795 64 654 q 581 936 345 936 q 955 795 817 936 q 1093 452 1093 654 q 997 167 1093 296 q 728 -3 901 38 m 348 470 q 405 164 348 258 q 574 70 462 70 q 751 156 692 70 q 811 456 811 241 q 755 750 811 653 q 577 847 699 847 q 405 757 462 847 q 348 470 348 667 z "},"R":{"ha":1042,"x_min":27,"x_max":1048,"o":"m 396 406 l 396 188 q 418 100 396 125 q 507 75 439 75 l 523 75 l 523 0 l 27 0 l 27 75 l 45 75 q 135 101 115 75 q 156 188 156 126 l 156 732 q 134 820 156 795 q 45 844 113 844 l 27 844 l 27 920 l 396 920 l 479 921 q 658 913 602 921 q 770 874 715 905 q 856 789 825 843 q 888 674 888 736 q 702 450 888 510 q 856 254 751 418 q 972 101 937 127 q 1048 75 1006 75 l 1048 0 l 760 0 q 614 237 721 47 q 539 361 561 334 q 495 397 517 389 q 396 406 472 405 m 396 488 q 551 502 511 487 q 614 557 591 517 q 637 665 637 597 q 591 799 637 762 q 433 836 545 836 q 396 836 419 836 l 396 488 z "},"S":{"ha":781,"x_min":76,"x_max":734,"o":"m 77 16 l 77 330 l 158 330 q 260 129 192 189 q 406 68 328 68 q 499 103 465 68 q 534 184 534 138 q 512 251 534 218 q 409 325 490 284 q 197 439 252 403 q 109 532 142 475 q 76 663 76 589 q 161 859 76 782 q 358 936 246 936 q 557 857 475 936 q 580 920 571 878 l 658 920 l 658 648 l 582 648 q 505 797 562 739 q 376 855 448 855 q 291 825 323 855 q 260 751 260 795 q 280 687 260 716 q 335 638 300 657 q 481 566 370 618 q 630 481 582 519 q 706 388 678 444 q 734 265 734 331 q 644 62 734 143 q 429 -19 554 -19 q 290 11 358 -19 q 181 90 222 41 q 158 16 165 60 l 77 16 z "},"T":{"ha":998,"x_min":37,"x_max":958,"o":"m 374 838 l 297 838 q 195 823 228 838 q 141 763 163 808 q 114 658 119 719 l 37 658 l 37 920 l 958 920 l 958 658 l 881 658 q 820 801 859 764 q 694 838 781 838 l 615 838 l 615 188 q 636 100 615 125 q 726 75 658 75 l 750 75 l 750 0 l 242 0 l 242 75 l 264 75 q 354 101 333 75 q 374 188 374 126 l 374 838 z "},"U":{"ha":1071,"x_min":23,"x_max":1044,"o":"m 23 844 l 23 920 l 509 920 l 509 844 l 493 844 q 404 819 425 844 q 384 732 384 794 l 384 369 q 400 213 384 270 q 471 116 416 156 q 603 76 526 76 q 746 119 686 76 q 823 223 805 161 q 840 394 840 284 l 840 703 q 704 844 840 844 l 704 920 l 1044 920 l 1044 844 q 983 828 1015 844 q 939 782 951 811 q 927 699 927 752 l 927 392 q 915 230 927 293 q 855 110 902 168 q 725 16 808 52 q 540 -19 642 -19 q 349 16 433 -19 q 220 104 264 51 q 159 220 175 157 q 143 369 143 283 l 143 732 q 121 821 143 797 q 23 844 98 844 z "},"V":{"ha":984,"x_min":-22,"x_max":1000,"o":"m 458 -19 l 144 686 q 92 796 106 772 q 54 832 78 820 q -22 844 31 844 l -22 920 l 467 920 l 467 844 q 365 794 365 844 q 394 703 365 766 l 583 286 l 760 703 q 779 781 779 749 q 677 844 779 844 l 677 920 l 1000 920 l 1000 844 q 915 814 944 844 q 821 634 885 785 l 542 -19 l 458 -19 z "},"W":{"ha":1302,"x_min":-14,"x_max":1320,"o":"m 331 -19 l 107 709 q 55 826 77 807 q -14 844 33 844 l -14 920 l 405 920 l 405 844 q 330 798 330 844 q 340 736 330 772 l 469 326 l 663 920 l 768 920 l 1001 326 l 1104 699 q 1116 765 1116 742 q 1025 844 1116 844 l 1025 920 l 1320 920 l 1320 844 q 1248 815 1278 844 q 1177 642 1217 787 l 992 -19 l 886 -19 l 646 598 l 440 -19 l 331 -19 z "},"X":{"ha":1099,"x_min":16,"x_max":1109,"o":"m 496 356 l 353 199 q 315 130 315 158 q 336 90 315 105 q 422 75 356 75 l 422 0 l 18 0 l 18 75 q 119 100 71 75 q 240 203 168 125 l 444 423 l 237 690 q 121 821 154 798 q 16 844 89 844 l 16 920 l 535 920 l 535 844 q 473 837 488 844 q 457 810 457 830 q 479 754 457 784 l 606 591 l 746 746 q 774 804 774 777 q 686 844 774 844 l 686 920 l 1053 920 l 1053 844 q 932 806 979 837 q 816 698 886 774 l 660 526 l 874 245 q 1011 99 967 123 q 1109 75 1055 75 l 1109 0 l 548 0 l 548 75 q 641 87 623 75 q 659 122 659 99 q 633 182 659 149 l 496 356 z "},"Y":{"ha":955,"x_min":1,"x_max":953,"o":"m 356 377 l 149 723 q 73 824 100 804 q 1 844 46 844 l 1 920 l 463 920 l 463 844 q 388 804 388 844 q 416 736 388 782 l 566 486 l 705 717 q 726 784 726 752 q 637 844 726 844 l 637 920 l 953 920 l 953 844 q 874 812 909 844 q 774 674 839 779 l 600 392 l 600 188 q 621 100 600 125 q 709 75 642 75 l 724 75 l 724 0 l 231 0 l 231 75 l 245 75 q 335 101 315 75 q 356 188 356 126 l 356 377 z "},"Z":{"ha":941,"x_min":47,"x_max":890,"o":"m 47 0 l 47 60 l 563 839 l 414 839 q 224 809 271 839 q 145 675 178 780 l 73 675 l 87 920 l 861 920 l 861 858 l 340 81 l 551 81 q 682 97 640 81 q 757 156 724 113 q 813 274 790 199 l 890 274 l 873 0 l 47 0 z "},"[":{"ha":593,"x_min":173,"x_max":564,"o":"m 173 -323 l 173 920 l 564 920 l 564 846 l 457 846 q 399 836 418 846 q 375 813 380 826 q 370 766 370 801 l 370 -178 q 388 -233 370 -216 q 464 -250 406 -250 l 564 -250 l 564 -323 l 173 -323 z "},"\\":{"ha":868,"x_min":92,"x_max":777,"o":"m 285 934 l 777 -20 l 583 -20 l 92 934 l 285 934 z "},"]":{"ha":593,"x_min":30,"x_max":420,"o":"m 420 -323 l 30 -323 l 30 -250 l 129 -250 q 205 -234 187 -250 q 223 -178 223 -217 l 223 793 q 136 846 219 846 l 30 846 l 30 920 l 420 920 l 420 -323 z "},"^":{"ha":810,"x_min":94,"x_max":718,"o":"m 94 449 l 372 936 l 444 936 l 718 449 l 553 449 l 406 714 l 254 449 l 94 449 z "},"_":{"ha":694,"x_min":-8,"x_max":703,"o":"m -8 -104 l 703 -104 l 703 -174 l -8 -174 l -8 -104 z "},"`":{"ha":463,"x_min":-20,"x_max":353,"o":"m 353 670 l 295 670 l -20 888 l 256 888 l 353 670 z "},"a":{"ha":781,"x_min":67,"x_max":777,"o":"m 439 59 q 336 5 390 23 q 223 -13 282 -13 q 106 22 145 -13 q 67 110 67 58 q 145 241 67 184 q 427 367 223 298 l 427 417 q 401 486 427 471 q 340 501 376 501 q 245 439 255 501 q 218 377 239 396 q 155 357 198 357 q 94 378 117 357 q 71 427 71 399 q 155 534 71 490 q 378 578 238 578 q 508 568 456 578 q 593 533 561 559 q 636 479 625 507 q 646 401 646 450 l 646 144 q 682 85 646 85 q 720 123 712 85 l 777 123 q 725 20 774 54 q 608 -13 676 -13 q 439 59 483 -13 m 427 132 l 427 291 q 304 220 333 252 q 275 154 275 188 q 292 107 275 128 q 337 87 309 87 q 384 98 361 87 q 427 132 406 110 z "},"b":{"ha":854,"x_min":18,"x_max":804,"o":"m 287 83 l 166 -15 l 110 -15 l 110 727 q 94 798 110 779 q 18 817 78 817 l 18 889 l 330 936 l 330 509 q 422 561 374 543 q 522 578 471 578 q 722 497 640 578 q 804 285 804 416 q 720 66 804 148 q 517 -16 636 -16 q 395 9 452 -16 q 287 83 338 34 m 330 153 q 389 95 357 115 q 454 76 420 76 q 542 127 513 76 q 571 279 571 178 q 543 432 571 381 q 457 482 514 482 q 391 466 422 482 q 330 415 359 449 l 330 153 z "},"c":{"ha":680,"x_min":51,"x_max":654,"o":"m 585 171 l 654 140 q 551 20 626 62 q 376 -22 476 -22 q 145 54 240 -22 q 51 264 51 130 q 154 492 51 406 q 421 578 257 578 q 582 541 523 578 q 642 442 642 503 q 618 381 642 408 q 557 355 595 355 q 463 452 484 355 q 445 492 457 480 q 403 505 433 505 q 312 457 342 505 q 282 313 282 409 q 318 125 282 182 q 432 68 355 68 q 585 171 538 68 z "},"d":{"ha":854,"x_min":56,"x_max":836,"o":"m 523 77 q 422 10 475 33 q 310 -13 369 -13 q 128 57 201 -13 q 56 271 56 127 q 137 504 56 431 q 330 578 218 578 q 440 559 392 578 q 523 505 488 541 l 523 724 q 507 794 523 774 q 433 813 491 813 l 433 886 l 742 936 l 742 182 q 761 107 742 124 q 836 91 781 91 l 836 14 q 539 -13 637 7 q 523 77 523 22 m 523 171 l 523 423 q 464 466 494 452 q 406 479 435 479 q 317 433 347 479 q 288 292 288 386 q 314 139 288 190 q 395 88 341 88 q 468 111 431 88 q 523 171 505 134 z "},"e":{"ha":724,"x_min":61,"x_max":675,"o":"m 296 284 q 334 118 296 174 q 447 62 372 62 q 594 144 527 62 l 657 106 q 546 14 618 50 q 387 -22 474 -22 q 157 59 252 -22 q 61 280 61 141 q 154 498 61 419 q 376 578 246 578 q 591 505 507 578 q 675 284 675 432 l 296 284 m 296 353 l 467 353 q 380 503 463 503 q 317 465 338 503 q 296 353 296 428 z "},"f":{"ha":492,"x_min":21,"x_max":665,"o":"m 352 482 l 352 162 q 368 92 352 112 q 439 72 383 72 l 475 72 l 475 0 l 21 0 l 21 72 l 45 72 q 117 92 102 72 q 132 162 132 113 l 132 482 l 21 482 l 21 555 l 132 555 q 140 720 132 664 q 185 826 149 775 q 288 906 222 876 q 448 937 355 937 q 610 900 555 937 q 665 806 665 863 q 635 737 665 766 q 564 707 606 707 q 458 809 484 707 q 409 859 446 859 q 365 828 378 859 q 352 720 352 797 l 352 555 l 475 555 l 475 482 l 352 482 z "},"g":{"ha":752,"x_min":45,"x_max":760,"o":"m 218 198 q 103 269 144 217 q 62 381 62 321 q 144 527 62 477 q 357 576 227 576 q 483 562 429 576 q 573 518 537 547 q 692 578 644 578 q 760 512 760 578 q 713 456 760 456 q 667 481 696 456 q 645 491 655 491 q 614 475 631 491 q 640 381 640 433 q 574 241 640 299 q 340 176 509 183 q 243 161 270 174 q 216 123 216 149 q 304 87 216 87 q 391 90 323 87 q 439 91 415 91 q 653 45 587 91 q 719 -104 719 -1 q 627 -277 719 -210 q 350 -344 536 -344 q 109 -299 174 -344 q 45 -198 45 -254 q 68 -140 45 -163 q 122 -118 92 -118 q 180 -134 146 -118 q 172 -157 175 -146 q 170 -178 170 -168 q 217 -249 170 -225 q 359 -273 264 -273 q 536 -239 477 -273 q 595 -158 595 -206 q 555 -100 595 -113 q 371 -88 515 -88 q 145 -55 214 -88 q 77 56 77 -22 q 113 147 77 111 q 218 198 148 182 m 273 387 q 293 289 273 321 q 355 256 314 256 q 414 290 394 256 q 433 391 433 323 q 410 477 433 450 q 353 503 386 503 q 293 474 313 503 q 273 387 273 445 z "},"h":{"ha":839,"x_min":25,"x_max":827,"o":"m 334 375 l 334 162 q 349 93 334 114 q 403 72 363 73 l 403 0 l 25 0 l 25 72 q 99 92 83 72 q 115 162 115 111 l 115 720 q 99 791 115 771 q 25 810 83 810 l 25 882 l 334 936 l 334 479 q 429 553 378 529 q 537 578 479 578 q 657 547 608 578 q 724 473 707 517 q 741 351 741 430 l 741 162 q 757 91 741 110 q 827 72 773 72 l 827 0 l 449 0 l 449 72 q 497 88 476 74 q 518 162 518 102 l 518 375 q 452 463 518 463 q 395 441 425 463 q 334 375 366 419 z "},"i":{"ha":463,"x_min":24,"x_max":439,"o":"m 119 813 q 155 900 119 863 q 241 936 191 936 q 327 900 292 936 q 362 813 362 864 q 327 726 362 762 q 241 690 291 690 q 154 727 189 690 q 119 813 119 764 m 347 578 l 347 162 q 363 91 347 111 q 439 72 380 72 l 439 0 l 24 0 l 24 72 l 40 72 q 113 92 98 72 q 128 162 128 113 l 128 364 q 113 434 128 414 q 40 454 97 454 l 24 454 l 24 526 l 347 578 z "},"j":{"ha":448,"x_min":-138,"x_max":357,"o":"m 114 813 q 150 900 114 863 q 236 936 186 936 q 322 900 286 936 q 357 813 357 864 q 322 726 357 762 q 236 690 286 690 q 150 727 186 690 q 114 813 114 763 m 352 578 l 352 24 q 331 -185 352 -122 q 229 -294 310 -248 q 33 -340 148 -340 q -90 -314 -42 -340 q -138 -241 -138 -288 q -113 -183 -138 -206 q -53 -160 -88 -160 q 28 -222 7 -160 q 74 -263 43 -263 q 120 -229 106 -263 q 133 -85 133 -195 l 133 363 q 117 433 133 414 q 45 453 101 453 l 24 453 l 24 526 l 352 578 z "},"k":{"ha":839,"x_min":22,"x_max":823,"o":"m 335 221 l 335 162 q 349 94 335 114 q 409 72 363 74 l 409 0 l 22 0 l 22 72 q 99 90 81 72 q 116 162 116 109 l 116 726 q 100 797 116 777 q 22 816 83 816 l 22 888 l 335 936 l 335 311 l 479 414 q 521 461 521 445 q 513 477 521 471 q 465 484 505 484 l 465 555 l 774 555 l 774 484 q 604 416 699 484 l 551 378 l 692 189 q 770 96 743 121 q 823 72 797 72 l 823 0 l 465 0 l 465 72 q 508 97 508 72 q 485 138 508 107 l 393 262 l 335 221 z "},"l":{"ha":434,"x_min":14,"x_max":427,"o":"m 332 936 l 332 162 q 349 91 332 110 q 427 72 365 72 l 427 0 l 14 0 l 14 72 q 90 85 68 72 q 113 162 113 98 l 113 724 q 95 796 113 778 q 14 814 78 814 l 14 886 l 332 936 z "},"m":{"ha":1331,"x_min":17,"x_max":1333,"o":"m 341 374 l 341 161 q 357 91 341 110 q 426 72 374 72 l 426 0 l 17 0 l 17 72 l 35 72 q 108 92 93 72 q 123 161 123 112 l 123 351 q 106 421 123 402 q 30 441 90 441 l 30 513 l 330 562 q 341 474 341 532 q 446 552 387 526 q 575 578 505 578 q 702 548 652 578 q 774 459 752 519 q 875 548 817 519 q 1006 578 932 578 q 1116 556 1066 578 q 1191 501 1165 534 q 1225 435 1217 468 q 1234 340 1234 402 l 1234 161 q 1251 90 1234 108 q 1333 72 1268 72 l 1333 0 l 931 0 l 931 72 q 999 92 983 72 q 1014 161 1014 111 l 1014 355 q 993 441 1014 412 q 929 469 972 469 q 854 446 889 469 q 788 374 819 422 l 788 161 q 804 91 788 111 q 873 72 821 72 l 873 0 l 487 0 l 487 72 q 553 92 537 73 q 568 161 568 111 l 568 354 q 548 438 568 410 q 485 467 527 467 q 412 444 448 467 q 341 374 376 420 z "},"n":{"ha":839,"x_min":28,"x_max":831,"o":"m 343 381 l 343 161 q 357 93 343 113 q 408 72 372 73 l 408 0 l 28 0 l 28 72 q 104 91 87 72 q 120 161 120 109 l 120 351 q 104 421 120 402 q 28 441 88 441 l 28 513 l 330 562 q 343 481 341 536 q 437 554 388 530 q 539 578 486 578 q 688 525 634 578 q 743 381 743 473 l 743 161 q 759 91 743 110 q 831 72 776 72 l 831 0 l 454 0 l 454 72 q 502 88 482 73 q 521 161 521 103 l 521 364 q 506 440 521 420 q 462 460 490 460 q 404 441 433 460 q 343 381 374 421 z "},"o":{"ha":781,"x_min":52,"x_max":730,"o":"m 52 279 q 151 498 52 419 q 390 578 250 578 q 629 501 527 578 q 730 279 730 424 q 631 59 730 141 q 389 -22 531 -22 q 151 55 251 -22 q 52 279 52 133 m 284 286 q 308 104 284 156 q 392 52 332 52 q 469 96 440 52 q 498 281 498 139 q 472 455 498 410 q 391 501 446 501 q 315 462 347 501 q 284 286 284 423 z "},"p":{"ha":854,"x_min":16,"x_max":802,"o":"m 328 56 l 328 -165 q 344 -235 328 -216 q 416 -255 360 -255 l 438 -255 l 438 -328 l 16 -328 l 16 -255 q 92 -237 75 -255 q 109 -165 109 -219 l 109 366 q 93 437 109 418 q 16 456 77 456 l 16 528 l 311 578 q 324 481 324 530 q 426 554 372 530 q 537 578 479 578 q 724 497 646 578 q 802 284 802 416 q 720 63 802 149 q 526 -22 637 -22 q 424 -3 473 -22 q 328 56 375 17 m 328 138 q 386 95 355 109 q 448 80 416 80 q 541 129 510 80 q 571 274 571 177 q 543 426 571 376 q 457 477 514 477 q 381 449 418 477 q 328 389 345 422 l 328 138 z "},"q":{"ha":854,"x_min":56,"x_max":841,"o":"m 528 50 q 434 -4 484 14 q 331 -22 385 -22 q 133 59 210 -22 q 56 270 56 140 q 137 495 56 413 q 342 577 218 577 q 460 553 405 577 q 565 481 516 529 l 689 578 l 747 578 l 747 -165 q 764 -236 747 -217 q 841 -255 780 -255 l 841 -328 l 421 -328 l 421 -255 l 440 -255 q 513 -235 498 -255 q 528 -165 528 -215 l 528 50 m 528 140 l 528 407 q 467 465 498 446 q 403 484 436 484 q 317 433 346 484 q 289 279 289 382 q 317 126 289 177 q 399 75 345 75 q 466 92 434 75 q 528 140 498 108 z "},"r":{"ha":665,"x_min":33,"x_max":654,"o":"m 336 438 q 426 543 376 508 q 536 578 476 578 q 624 542 594 578 q 654 463 654 505 q 630 394 654 422 q 564 366 606 366 q 526 374 541 366 q 486 411 511 383 q 433 438 462 438 q 367 384 389 438 q 345 222 345 330 l 345 162 q 361 92 345 112 q 433 72 376 72 l 446 72 l 446 0 l 35 0 l 35 72 q 109 92 94 72 q 125 162 125 111 l 125 356 q 109 427 125 408 q 33 446 93 446 l 33 518 l 315 578 q 336 438 334 523 z "},"s":{"ha":665,"x_min":47,"x_max":616,"o":"m 68 -22 l 64 162 l 130 162 q 324 47 183 47 q 422 68 383 47 q 460 114 460 88 q 439 149 460 136 q 342 176 418 160 q 170 221 226 199 q 81 287 115 242 q 47 388 47 331 q 116 525 47 473 q 301 578 185 578 q 484 543 391 578 q 509 578 500 558 l 566 578 l 572 410 l 517 410 q 309 513 465 513 q 226 497 258 513 q 193 454 193 480 q 220 414 193 427 q 346 382 245 401 q 503 339 450 361 q 586 276 555 317 q 616 179 616 234 q 537 34 616 90 q 342 -22 458 -22 q 157 16 254 -22 q 130 -22 138 2 l 68 -22 z "},"t":{"ha":507,"x_min":27,"x_max":515,"o":"m 328 482 l 328 193 q 337 97 328 120 q 376 73 347 73 q 448 129 421 73 l 515 106 q 294 -22 463 -22 q 155 23 201 -22 q 108 158 108 68 l 108 482 l 27 482 l 27 555 l 44 555 q 184 607 126 555 q 255 740 243 659 l 328 740 l 328 555 l 494 555 l 494 482 l 328 482 z "},"u":{"ha":839,"x_min":24,"x_max":823,"o":"m 511 76 q 416 2 467 27 q 306 -22 365 -22 q 169 20 231 -22 q 108 180 108 62 l 108 393 q 91 465 108 446 q 24 484 75 484 l 24 555 l 327 555 l 327 193 q 343 117 327 140 q 395 94 359 94 q 450 115 421 94 q 511 180 479 137 l 511 393 q 495 464 511 444 q 420 484 479 484 l 420 555 l 731 555 l 731 162 q 747 91 731 111 q 823 72 763 72 l 823 0 q 790 1 805 1 q 511 -22 665 1 l 511 76 z "},"v":{"ha":709,"x_min":-8,"x_max":715,"o":"m 292 -9 l 98 375 q 43 467 60 450 q -8 484 25 484 l -8 555 l 355 555 l 355 484 q 292 456 292 484 q 309 417 292 450 l 427 179 l 550 427 q 559 455 559 446 q 503 484 559 484 l 503 555 l 715 555 l 715 484 q 665 465 684 484 q 601 355 647 447 l 416 -9 l 292 -9 z "},"w":{"ha":1085,"x_min":-11,"x_max":1094,"o":"m 261 -12 l 87 391 q 41 470 59 456 q -11 484 24 484 l -11 555 l 361 555 l 361 484 q 292 458 292 484 q 307 408 292 445 l 393 199 l 555 555 l 671 555 l 836 199 l 924 418 q 931 448 931 438 q 852 484 931 484 l 852 555 l 1094 555 l 1094 484 q 1037 461 1057 484 q 984 358 1017 438 l 828 -12 l 709 -12 l 541 343 l 381 -12 l 261 -12 z "},"x":{"ha":738,"x_min":0,"x_max":722,"o":"m 310 193 l 235 128 q 204 90 204 102 q 214 75 204 79 q 259 72 224 72 l 259 0 l 3 0 l 3 72 q 160 152 82 84 l 263 241 l 133 382 q 0 484 39 484 l 0 555 l 386 555 l 386 484 q 338 466 338 484 q 361 432 338 457 l 414 374 l 455 409 q 503 466 503 450 q 495 480 503 477 q 455 484 487 484 l 455 555 l 689 555 l 689 484 q 634 467 663 484 q 538 395 605 451 l 455 325 l 623 146 q 722 72 692 73 l 722 0 l 326 0 l 326 72 q 391 93 391 72 q 374 121 391 102 l 310 193 z "},"y":{"ha":738,"x_min":4,"x_max":729,"o":"m 451 192 l 541 383 q 565 448 565 435 q 507 484 565 484 l 507 555 l 729 555 l 729 484 q 672 459 689 480 q 597 317 656 438 l 380 -133 q 278 -306 317 -266 q 180 -346 239 -346 q 108 -319 136 -346 q 79 -254 79 -293 q 171 -166 79 -189 q 283 -122 256 -146 q 344 -25 311 -98 l 102 389 l 92 410 q 51 471 64 460 q 4 484 37 481 l 4 555 l 364 555 l 364 484 q 311 456 311 482 q 332 407 311 446 l 451 192 z "},"z":{"ha":680,"x_min":47,"x_max":646,"o":"m 47 0 l 47 58 l 359 482 l 231 482 q 187 469 201 482 q 141 384 172 455 l 68 384 l 81 555 l 637 555 l 637 492 l 328 74 l 452 74 q 521 98 497 74 q 574 190 545 122 l 646 190 l 629 0 l 47 0 z "},"{":{"ha":550,"x_min":87,"x_max":464,"o":"m 464 936 l 464 903 q 364 853 396 892 q 332 770 332 814 q 347 654 332 723 q 364 530 364 580 q 333 422 364 474 q 259 344 302 371 q 143 296 216 317 q 317 192 269 258 q 366 60 366 125 q 349 -51 366 21 q 332 -172 332 -123 q 464 -313 332 -290 l 464 -346 q 366 -337 404 -346 q 282 -296 328 -328 q 210 -216 236 -264 q 184 -118 184 -168 q 205 14 184 -73 q 220 125 220 78 q 87 274 220 251 l 87 317 q 190 374 159 328 q 220 472 220 420 q 205 578 220 518 q 184 706 184 664 q 256 861 184 788 q 464 936 328 934 z "},"|":{"ha":868,"x_min":345,"x_max":524,"o":"m 345 936 l 524 936 l 524 -344 l 345 -344 l 345 936 z "},"}":{"ha":550,"x_min":86,"x_max":463,"o":"m 86 -346 l 86 -313 q 183 -266 149 -301 q 218 -180 218 -231 q 203 -64 218 -134 q 186 60 186 10 q 238 198 186 132 q 407 294 290 264 q 232 398 280 332 q 184 530 184 465 q 201 641 184 569 q 217 762 217 713 q 86 903 217 876 l 86 936 q 184 927 146 936 q 268 886 222 918 q 340 806 313 854 q 366 708 366 758 q 345 576 366 662 q 330 465 330 512 q 463 316 330 338 l 463 273 q 360 216 391 262 q 330 118 330 170 q 345 11 330 72 q 365 -116 365 -75 q 321 -239 365 -180 q 220 -321 278 -298 q 86 -346 161 -343 z "},"~":{"ha":926,"x_min":81,"x_max":845,"o":"m 791 592 l 845 592 q 782 389 840 456 q 633 322 723 322 q 544 335 589 322 q 377 401 498 349 q 245 439 288 439 q 135 322 150 439 l 81 322 q 143 528 85 463 q 288 592 201 592 q 549 515 375 592 q 682 474 642 474 q 758 507 729 474 q 791 592 787 541 z "},"":{"ha":0,"x_min":0,"x_max":0,"o":""}," ":{"ha":347,"x_min":0,"x_max":0,"o":""},"¡":{"ha":463,"x_min":111,"x_max":357,"o":"m 111 495 q 147 582 111 545 q 234 618 183 618 q 321 582 285 618 q 357 495 357 546 q 320 408 357 444 q 234 372 284 372 q 148 408 184 372 q 111 495 111 444 m 197 290 l 273 290 l 336 -175 q 342 -246 342 -221 q 237 -343 342 -343 q 156 -321 185 -343 q 127 -240 127 -300 q 134 -171 127 -216 l 197 290 z "},"¢":{"ha":680,"x_min":45,"x_max":652,"o":"m 353 -22 l 304 -262 l 231 -262 l 281 -12 q 107 87 169 12 q 45 265 45 163 q 139 484 45 396 q 399 578 233 571 l 452 846 l 526 846 l 471 574 q 599 524 557 562 q 641 443 641 487 q 615 381 641 406 q 552 355 589 355 q 458 452 478 355 q 452 475 454 470 l 372 77 q 427 68 399 68 q 582 171 536 68 l 652 140 q 551 24 627 70 q 373 -22 476 -22 q 353 -22 364 -22 m 384 504 q 277 313 277 490 q 310 131 277 191 l 384 504 z "},"£":{"ha":998,"x_min":45,"x_max":965,"o":"m 252 111 l 48 111 l 76 217 l 277 217 q 295 317 278 222 q 351 569 322 471 q 439 752 380 667 q 574 876 498 837 q 747 916 650 916 q 903 879 840 916 q 965 787 965 842 q 940 729 965 753 q 882 705 915 705 q 787 774 828 705 q 701 833 753 833 q 617 785 646 833 q 563 602 587 738 q 465 217 512 322 l 685 217 l 659 111 l 420 111 q 330 -44 380 24 q 403 -28 376 -28 q 493 -51 450 -28 q 606 -136 536 -73 q 743 -216 696 -216 q 794 -196 777 -216 q 810 -157 810 -177 q 800 -117 810 -144 q 780 -40 780 -65 q 855 41 780 41 q 922 13 897 41 q 947 -59 947 -16 q 857 -242 947 -156 q 647 -328 768 -328 q 534 -303 583 -328 q 426 -222 486 -278 q 311 -151 349 -151 q 273 -161 294 -151 q 201 -294 233 -261 q 133 -328 170 -328 q 70 -303 94 -328 q 45 -252 45 -279 q 193 -92 45 -180 q 252 111 228 -5 z "},"¤":{"ha":926,"x_min":92,"x_max":832,"o":"m 92 712 l 206 828 l 301 734 q 378 767 338 756 q 460 779 418 779 q 543 767 502 779 q 624 734 584 756 l 718 828 l 832 712 l 739 618 q 783 456 783 541 q 739 296 783 370 l 832 204 l 718 89 l 624 180 q 543 146 584 158 q 458 135 501 135 q 375 146 414 135 q 301 180 336 158 l 210 89 l 92 204 l 185 296 q 141 461 141 375 q 185 618 141 548 l 92 712 m 463 617 q 349 570 396 617 q 302 457 302 523 q 349 345 302 391 q 463 298 395 298 q 575 345 528 298 q 622 457 622 392 q 575 570 622 523 q 463 617 528 617 z "},"¥":{"ha":859,"x_min":1,"x_max":858,"o":"m 302 411 l 47 411 l 47 486 l 262 486 l 134 723 q 66 825 90 805 q 1 844 41 844 l 1 920 l 416 920 l 416 844 q 349 804 349 844 q 374 736 349 782 l 510 486 l 635 717 q 654 783 654 752 q 574 844 654 844 l 574 920 l 858 920 l 858 844 q 793 819 823 844 q 696 674 763 793 l 592 486 l 812 486 l 812 411 l 550 411 l 540 392 l 540 264 l 812 264 l 812 189 l 540 189 q 561 98 540 121 q 651 75 583 75 l 651 0 l 208 0 l 208 75 l 221 75 q 301 100 282 75 q 321 189 320 125 l 47 189 l 47 264 l 321 264 l 321 377 l 302 411 z "},"¦":{"ha":868,"x_min":345,"x_max":524,"o":"m 345 936 l 524 936 l 524 382 l 345 382 l 345 936 m 345 210 l 524 210 l 524 -344 l 345 -344 l 345 210 z "},"§":{"ha":709,"x_min":35,"x_max":661,"o":"m 506 77 q 587 -13 560 37 q 614 -123 614 -63 q 530 -280 614 -221 q 333 -340 446 -340 q 158 -292 230 -340 q 86 -176 86 -245 q 113 -111 86 -136 q 172 -86 139 -86 q 229 -107 208 -86 q 262 -174 249 -127 q 304 -248 279 -231 q 364 -264 330 -264 q 434 -241 405 -264 q 463 -185 463 -218 q 444 -127 463 -158 q 319 -25 425 -96 q 145 101 198 56 q 64 200 92 146 q 35 315 35 254 q 61 416 35 373 q 120 480 86 460 q 200 512 154 501 q 113 604 142 554 q 84 711 84 653 q 168 872 84 810 q 370 934 251 934 q 544 887 471 934 q 617 774 617 840 q 589 709 617 734 q 526 684 562 684 q 473 703 490 684 q 438 772 455 722 q 399 839 422 819 q 335 859 376 859 q 262 835 292 859 q 232 778 232 811 q 261 709 232 740 q 400 608 290 679 q 554 502 504 542 q 632 406 604 461 q 661 286 661 350 q 623 151 661 203 q 506 77 584 99 m 528 207 q 412 366 528 275 q 241 456 296 456 q 192 436 215 456 q 168 389 168 416 q 286 233 168 325 q 458 140 404 140 q 507 160 486 140 q 528 207 528 180 z "},"¨":{"ha":463,"x_min":-14,"x_max":467,"o":"m -14 783 q 14 850 -14 821 q 83 880 41 880 q 151 851 122 880 q 179 783 179 823 q 151 715 179 744 q 83 687 122 687 q 14 716 42 687 q -14 783 -14 745 m 275 783 q 303 851 275 823 q 371 880 331 880 q 439 851 411 880 q 467 783 467 823 q 439 715 467 744 q 371 687 410 687 q 303 715 332 687 q 275 783 275 743 z "},"©":{"ha":1042,"x_min":40,"x_max":1002,"o":"m 521 936 q 756 874 642 936 q 936 698 870 813 q 1002 455 1002 583 q 861 115 1002 256 q 521 -26 720 -26 q 181 115 323 -26 q 40 455 40 256 q 181 795 40 654 q 521 936 323 936 m 521 876 q 314 821 412 876 q 158 667 216 766 q 100 455 100 568 q 224 158 100 281 q 521 35 348 35 q 818 158 694 35 q 941 455 941 281 q 884 667 941 568 q 728 821 827 766 q 521 876 630 876 m 748 745 l 748 566 l 722 566 q 664 673 711 634 q 555 713 616 713 q 424 646 469 713 q 380 469 380 578 q 429 270 380 329 q 553 212 478 212 q 729 306 652 212 l 729 258 q 512 172 647 172 q 310 246 393 172 q 228 451 228 320 q 314 662 228 578 q 526 746 399 746 q 660 719 585 746 q 691 711 682 711 q 722 745 718 711 l 748 745 z "},"ª":{"ha":507,"x_min":43,"x_max":505,"o":"m 286 625 q 219 593 254 604 q 146 582 184 582 q 69 601 95 582 q 43 656 43 619 q 93 733 43 701 q 277 810 142 765 l 277 840 q 263 877 277 865 q 221 890 250 890 q 159 853 165 890 q 142 815 155 827 q 100 804 128 804 q 61 816 76 804 q 46 846 46 828 q 101 910 46 884 q 254 936 157 936 q 360 922 325 936 q 408 887 395 908 q 420 830 420 866 l 420 675 q 443 640 420 640 q 468 664 463 640 l 505 664 q 392 581 500 581 q 286 625 314 581 m 277 669 l 277 764 q 197 721 215 740 q 179 682 179 701 q 189 654 179 667 q 219 642 199 642 q 249 648 235 642 q 277 669 264 655 z "},"«":{"ha":781,"x_min":12,"x_max":724,"o":"m 251 299 l 359 0 l 281 0 l 12 299 l 279 597 l 357 597 l 251 299 m 616 299 l 724 0 l 648 0 l 378 299 l 646 597 l 724 597 l 616 299 z "},"¬":{"ha":926,"x_min":86,"x_max":840,"o":"m 86 693 l 840 693 l 840 221 l 699 221 l 699 551 l 86 551 l 86 693 z "},"®":{"ha":1042,"x_min":40,"x_max":1002,"o":"m 521 936 q 756 874 642 936 q 936 698 870 813 q 1002 455 1002 583 q 861 115 1002 256 q 521 -26 720 -26 q 181 115 323 -26 q 40 455 40 256 q 181 795 40 654 q 521 936 323 936 m 521 876 q 314 821 412 876 q 158 667 216 766 q 100 455 100 568 q 224 158 100 281 q 521 35 348 35 q 818 158 694 35 q 941 455 941 281 q 884 667 941 568 q 728 821 827 766 q 521 876 630 876 m 264 734 l 509 734 q 645 721 600 734 q 720 671 690 708 q 750 586 750 633 q 720 497 750 532 q 629 446 690 463 l 722 276 q 793 209 757 212 l 793 186 l 629 186 l 490 435 l 458 435 l 458 301 q 474 227 458 243 q 540 209 489 211 l 540 186 l 253 186 l 253 209 q 308 223 292 209 q 324 300 324 238 l 324 621 q 312 692 324 676 q 264 711 300 707 l 264 734 m 458 470 q 494 467 481 467 q 572 499 540 467 q 604 592 604 531 q 574 676 604 648 q 484 705 545 705 l 458 705 l 458 470 z "},"¯":{"ha":694,"x_min":-8,"x_max":703,"o":"m -8 1093 l 703 1093 l 703 1024 l -8 1024 l -8 1093 z "},"°":{"ha":550,"x_min":40,"x_max":509,"o":"m 275 934 q 439 867 370 934 q 509 700 509 800 q 440 534 509 603 q 275 465 372 465 q 109 534 177 465 q 40 700 40 602 q 110 867 40 800 q 275 934 180 934 m 275 846 q 172 804 216 846 q 129 700 129 762 q 171 597 129 640 q 275 554 214 554 q 378 597 336 554 q 420 700 420 640 q 377 804 420 762 q 275 846 334 846 z "},"±":{"ha":926,"x_min":86,"x_max":840,"o":"m 86 650 l 392 650 l 392 957 l 534 957 l 534 650 l 840 650 l 840 509 l 534 509 l 534 203 l 392 203 l 392 509 l 86 509 l 86 650 m 86 102 l 840 102 l 840 -40 l 86 -40 l 86 102 z "},"²":{"ha":463,"x_min":47,"x_max":421,"o":"m 49 448 l 49 487 q 264 799 264 656 q 247 860 264 837 q 201 882 230 882 q 161 867 177 882 q 144 833 144 852 q 149 810 144 821 q 160 787 153 798 l 162 783 q 146 771 162 777 q 113 759 126 764 q 80 749 90 749 q 55 774 63 749 q 47 817 47 800 q 100 900 47 866 q 233 934 153 934 q 360 899 306 934 q 415 802 415 865 q 377 708 415 758 q 222 551 339 659 l 197 528 l 421 528 l 399 420 l 340 420 q 343 436 343 432 l 344 445 q 321 448 344 448 l 49 448 z "},"³":{"ha":463,"x_min":22,"x_max":409,"o":"m 294 732 l 300 732 q 378 694 348 724 q 409 614 409 664 q 339 487 409 536 q 171 439 269 439 q 61 461 101 439 q 22 515 22 484 q 40 550 22 537 q 81 564 59 564 q 142 518 123 564 q 182 487 155 487 q 239 514 220 487 q 258 594 258 541 q 251 665 258 646 q 227 684 243 684 q 199 673 212 684 q 163 656 181 656 q 141 665 149 656 q 133 683 133 674 q 174 720 133 696 q 255 825 255 767 q 241 868 255 854 q 200 883 228 883 q 162 870 178 883 q 145 841 145 858 q 159 812 145 823 q 165 801 165 807 q 158 794 165 797 l 147 789 q 80 768 97 768 q 55 784 66 768 q 44 822 44 799 q 102 901 44 868 q 235 934 160 934 q 348 909 300 934 q 396 843 396 884 q 294 732 396 783 z "},"´":{"ha":463,"x_min":103,"x_max":476,"o":"m 103 670 l 201 888 l 476 888 l 162 670 l 103 670 z "},"µ":{"ha":841,"x_min":24,"x_max":808,"o":"m 496 61 q 482 31 492 46 q 458 4 473 16 q 423 -15 444 -7 q 374 -22 402 -22 q 351 -20 364 -22 q 323 -15 337 -18 q 298 -5 310 -11 q 279 8 286 1 q 293 -85 284 -45 q 311 -155 302 -125 q 327 -209 320 -186 q 334 -252 334 -232 q 306 -320 334 -297 q 220 -344 278 -344 q 134 -310 161 -344 q 108 -210 108 -276 l 108 393 q 104 436 108 418 q 92 464 101 453 q 66 479 83 475 q 24 484 50 484 l 24 555 l 327 555 l 327 193 q 344 117 327 140 q 402 94 361 94 q 431 98 417 94 q 458 113 446 102 q 480 139 470 123 q 496 180 490 156 l 496 393 q 493 435 496 418 q 481 463 490 452 q 453 479 471 474 q 406 484 435 484 l 406 555 l 716 555 l 716 162 q 719 118 716 136 q 732 91 722 101 q 760 76 741 80 q 808 72 778 72 l 808 0 q 791 1 799 1 q 775 1 783 1 q 643 -5 712 1 q 496 -22 574 -11 l 496 61 z "},"¶":{"ha":752,"x_min":1,"x_max":752,"o":"m 433 868 l 433 -346 l 366 -346 l 366 291 q 85 387 169 297 q 1 612 1 477 q 56 794 1 720 q 184 894 111 868 q 454 920 256 920 l 752 920 l 752 890 l 722 890 q 659 876 680 890 q 631 841 637 861 q 624 752 624 821 l 624 -346 l 557 -346 l 557 868 l 433 868 z "},"·":{"ha":463,"x_min":422,"x_max":614,"o":"m 422 468 q 450 536 422 508 q 518 564 478 564 q 586 536 558 564 q 614 468 614 507 q 586 400 614 429 q 518 372 557 372 q 450 400 477 372 q 422 468 422 429 z "},"¸":{"ha":463,"x_min":42,"x_max":376,"o":"m 150 -153 q 180 4 166 -109 l 256 4 q 244 -63 252 -28 q 341 -102 305 -70 q 376 -187 376 -134 q 317 -290 376 -252 q 157 -328 258 -328 q 42 -310 92 -328 q 53 -241 49 -277 q 163 -255 109 -255 q 210 -243 194 -255 q 225 -209 225 -232 q 204 -171 225 -186 q 150 -153 183 -155 z "},"¹":{"ha":463,"x_min":87,"x_max":379,"o":"m 94 448 l 94 496 l 125 496 q 158 502 149 496 q 167 533 167 509 l 167 796 q 161 836 167 826 q 143 844 158 842 q 102 847 127 847 l 87 847 l 87 892 q 154 898 123 894 q 207 909 185 902 q 234 920 225 916 q 245 928 242 925 q 250 933 249 931 q 254 935 251 935 l 307 935 l 307 536 q 314 504 307 512 q 347 496 321 496 l 379 496 l 379 448 l 94 448 z "},"º":{"ha":507,"x_min":33,"x_max":473,"o":"m 33 757 q 95 887 33 839 q 252 936 158 936 q 407 890 340 936 q 473 756 473 844 q 409 626 473 675 q 252 576 345 576 q 98 623 163 576 q 33 757 33 669 m 184 761 q 204 645 184 670 q 254 621 224 621 q 308 653 293 621 q 323 758 323 686 q 302 869 323 847 q 253 890 282 890 q 203 866 222 890 q 184 761 184 841 z "},"»":{"ha":781,"x_min":34,"x_max":747,"o":"m 142 299 l 35 597 l 113 597 l 381 299 l 111 0 l 34 0 l 142 299 m 508 299 l 401 597 l 479 597 l 747 299 l 477 0 l 400 0 l 508 299 z "},"¼":{"ha":1375,"x_min":183,"x_max":1244,"o":"m 191 448 l 191 496 l 218 496 q 252 502 243 496 q 260 533 260 509 l 260 796 q 252 839 260 831 q 199 847 243 847 l 183 847 l 183 892 q 353 935 294 897 l 407 935 l 407 536 q 414 504 407 512 q 447 496 421 496 l 475 496 l 475 448 l 191 448 m 401 0 l 874 922 l 972 922 l 500 0 l 401 0 m 1027 160 l 844 160 l 844 218 l 1091 483 l 1174 483 l 1174 217 l 1244 217 l 1244 160 l 1174 160 l 1174 95 q 1183 55 1174 62 q 1215 47 1192 47 l 1244 47 l 1244 0 l 954 0 l 954 47 l 983 47 q 1020 56 1013 47 q 1027 92 1027 64 l 1027 160 m 1027 217 l 1027 334 l 916 217 l 1027 217 z "},"½":{"ha":1375,"x_min":183,"x_max":1244,"o":"m 191 448 l 191 496 l 218 496 q 252 502 243 496 q 260 533 260 509 l 260 796 q 252 839 260 831 q 199 847 243 847 l 183 847 l 183 892 q 353 935 294 897 l 407 935 l 407 536 q 414 504 407 512 q 447 496 421 496 l 475 496 l 475 448 l 191 448 m 406 0 l 879 922 l 977 922 l 505 0 l 406 0 m 871 0 l 871 38 q 1087 350 1087 208 q 1070 411 1087 388 q 1023 434 1053 434 q 983 419 1000 434 q 967 385 967 404 q 971 361 967 372 q 983 339 975 349 l 985 334 q 968 322 985 328 q 937 311 949 315 q 903 301 912 301 q 878 326 886 301 q 869 368 869 351 q 922 450 869 416 q 1055 485 974 485 q 1183 450 1128 485 q 1238 354 1238 416 q 1200 259 1238 309 q 1044 102 1162 210 l 1019 79 l 1244 79 l 1221 -28 l 1162 -28 q 1166 -13 1166 -16 l 1166 -4 q 1144 0 1166 0 l 871 0 z "},"¾":{"ha":1375,"x_min":150,"x_max":1244,"o":"m 422 732 l 428 732 q 507 694 476 724 q 537 614 537 664 q 467 487 537 536 q 299 439 397 439 q 190 461 229 439 q 150 515 150 484 q 169 550 150 537 q 210 564 187 564 q 271 518 251 564 q 310 487 283 487 q 368 514 349 487 q 387 594 387 541 q 379 665 387 646 q 355 684 372 684 q 327 673 340 684 q 292 656 309 656 q 269 665 277 656 q 261 683 261 674 q 302 720 261 696 q 383 825 383 767 q 370 868 383 854 q 328 883 356 883 q 290 870 307 883 q 273 841 273 858 q 287 812 273 823 q 294 801 294 807 q 286 794 294 797 l 275 789 q 208 768 225 768 q 183 784 194 768 q 172 822 172 799 q 230 901 172 868 q 363 934 288 934 q 476 909 428 934 q 524 843 524 884 q 422 732 524 783 m 401 0 l 874 922 l 972 922 l 500 0 l 401 0 m 1027 160 l 843 160 l 843 218 l 1091 483 l 1174 483 l 1174 217 l 1244 217 l 1244 160 l 1174 160 l 1174 95 q 1182 55 1174 62 q 1215 47 1191 47 l 1244 47 l 1244 0 l 954 0 l 954 47 l 983 47 q 1020 56 1013 47 q 1027 92 1027 64 l 1027 160 m 1027 217 l 1027 334 l 916 217 l 1027 217 z "},"¿":{"ha":665,"x_min":58,"x_max":610,"o":"m 302 491 q 338 577 302 541 q 425 614 374 614 q 512 578 476 614 q 548 491 548 542 q 512 404 548 440 q 425 368 475 368 q 338 405 373 368 q 302 491 302 441 m 468 284 l 468 58 l 404 58 q 356 81 385 81 q 298 48 321 81 q 275 -54 275 16 q 302 -216 275 -162 q 382 -270 329 -270 q 454 -208 436 -270 q 534 -131 476 -131 q 586 -150 563 -131 q 610 -197 610 -170 q 539 -301 610 -256 q 363 -347 469 -347 q 141 -270 224 -347 q 58 -70 58 -193 q 130 107 58 41 q 298 174 201 174 q 383 159 339 174 l 383 284 l 468 284 z "},"À":{"ha":882,"x_min":-28,"x_max":911,"o":"m 216 248 l 199 203 q 180 135 180 155 q 202 89 180 102 q 275 75 224 75 l 275 0 l -28 0 l -28 75 q 117 223 58 75 l 400 936 l 479 936 l 768 224 q 845 97 810 118 q 911 75 880 75 l 911 0 l 455 0 l 455 75 q 532 87 517 75 q 547 117 547 99 q 534 160 547 134 l 526 181 l 499 248 l 216 248 m 245 326 l 469 326 l 354 601 l 245 326 m 595 989 l 537 989 l 222 1206 l 498 1206 l 595 989 z "},"Á":{"ha":882,"x_min":-28,"x_max":911,"o":"m 216 248 l 199 203 q 180 135 180 155 q 202 89 180 102 q 275 75 224 75 l 275 0 l -28 0 l -28 75 q 117 223 58 75 l 400 936 l 479 936 l 768 224 q 845 97 810 118 q 911 75 880 75 l 911 0 l 455 0 l 455 75 q 532 87 517 75 q 547 117 547 99 q 534 160 547 134 l 526 181 l 499 248 l 216 248 m 245 326 l 469 326 l 354 601 l 245 326 m 313 989 l 410 1206 l 686 1206 l 372 989 l 313 989 z "},"Â":{"ha":882,"x_min":-28,"x_max":911,"o":"m 216 248 l 199 203 q 180 135 180 155 q 202 89 180 102 q 275 75 224 75 l 275 0 l -28 0 l -28 75 q 117 223 58 75 l 400 936 l 479 936 l 768 224 q 845 97 810 118 q 911 75 880 75 l 911 0 l 455 0 l 455 75 q 532 87 517 75 q 547 117 547 99 q 534 160 547 134 l 526 181 l 499 248 l 216 248 m 245 326 l 469 326 l 354 601 l 245 326 m 444 1109 l 272 985 l 211 985 l 345 1229 l 547 1229 l 671 985 l 606 985 l 444 1109 z "},"Ã":{"ha":882,"x_min":-28,"x_max":911,"o":"m 216 248 l 199 203 q 180 135 180 155 q 202 89 180 102 q 275 75 224 75 l 275 0 l -28 0 l -28 75 q 117 223 58 75 l 400 936 l 479 936 l 768 224 q 845 97 810 118 q 911 75 880 75 l 911 0 l 455 0 l 455 75 q 532 87 517 75 q 547 117 547 99 q 534 160 547 134 l 526 181 l 499 248 l 216 248 m 245 326 l 469 326 l 354 601 l 245 326 m 203 989 q 202 1013 202 1006 q 246 1143 202 1101 q 350 1185 290 1185 q 483 1158 389 1185 q 557 1143 536 1143 q 596 1158 582 1143 q 613 1202 610 1173 l 671 1202 q 673 1177 673 1186 q 635 1046 673 1101 q 530 990 597 990 q 399 1016 488 990 q 309 1034 334 1034 q 278 1023 291 1034 q 258 989 266 1012 l 203 989 z "},"Ä":{"ha":882,"x_min":-28,"x_max":911,"o":"m 216 248 l 199 203 q 180 135 180 155 q 202 89 180 102 q 275 75 224 75 l 275 0 l -28 0 l -28 75 q 117 223 58 75 l 400 936 l 479 936 l 768 224 q 845 97 810 118 q 911 75 880 75 l 911 0 l 455 0 l 455 75 q 532 87 517 75 q 547 117 547 99 q 534 160 547 134 l 526 181 l 499 248 l 216 248 m 245 326 l 469 326 l 354 601 l 245 326 m 196 1102 q 223 1169 196 1140 q 292 1198 251 1198 q 360 1170 332 1198 q 389 1102 389 1142 q 360 1034 389 1063 q 292 1006 332 1006 q 224 1035 252 1006 q 196 1102 196 1063 m 484 1102 q 512 1170 484 1142 q 581 1198 541 1198 q 649 1170 621 1198 q 677 1102 677 1141 q 648 1034 677 1063 q 581 1006 620 1006 q 513 1034 541 1006 q 484 1102 484 1062 z "},"Å":{"ha":882,"x_min":-28,"x_max":911,"o":"m 216 248 l 199 203 q 180 135 180 155 q 202 89 180 102 q 275 75 224 75 l 275 0 l -28 0 l -28 75 q 117 223 58 75 l 400 936 l 479 936 l 768 224 q 845 97 810 118 q 911 75 880 75 l 911 0 l 455 0 l 455 75 q 532 87 517 75 q 547 117 547 99 q 534 160 547 134 l 526 181 l 499 248 l 216 248 m 245 326 l 469 326 l 354 601 l 245 326 m 315 1094 q 351 1179 315 1143 q 436 1215 387 1215 q 521 1179 486 1215 q 557 1094 557 1143 q 521 1009 557 1044 q 436 973 486 973 q 350 1009 385 973 q 315 1094 315 1045 m 365 1094 q 386 1043 365 1064 q 436 1021 407 1021 q 487 1043 467 1021 q 508 1094 508 1064 q 487 1145 508 1123 q 436 1166 466 1166 q 386 1145 407 1166 q 365 1094 365 1124 z "},"Æ":{"ha":1331,"x_min":-38,"x_max":1274,"o":"m 555 439 l 330 439 l 201 198 q 174 127 174 149 q 248 75 174 75 l 248 0 l -38 0 l -38 75 q 50 120 12 79 q 134 247 87 160 l 391 728 q 422 812 422 788 q 406 839 422 832 q 342 846 389 846 l 307 846 l 307 920 l 1211 920 l 1225 681 l 1149 681 q 1101 785 1125 751 q 1053 829 1077 819 q 982 839 1028 839 l 795 839 l 795 520 l 878 520 q 955 539 933 520 q 982 634 977 559 l 1059 634 l 1059 325 l 982 325 q 963 411 980 382 q 892 439 946 439 l 795 439 l 795 211 q 806 124 795 145 q 848 92 817 103 q 948 81 879 81 q 1067 100 1027 81 q 1143 171 1107 118 q 1198 302 1179 224 l 1274 302 l 1267 0 l 427 0 l 427 75 l 445 75 q 534 101 513 75 q 555 188 555 126 l 555 439 m 555 520 l 555 861 l 375 520 l 555 520 z "},"Ç":{"ha":1042,"x_min":64,"x_max":951,"o":"m 439 -153 q 467 -15 454 -111 q 193 121 300 3 q 64 452 64 260 q 191 789 64 642 q 542 936 318 936 q 826 825 709 936 q 854 907 842 861 l 929 907 l 939 568 l 864 568 q 820 689 848 637 q 755 777 792 742 q 673 830 718 812 q 576 848 627 848 q 396 754 456 848 q 336 462 336 661 q 357 240 336 323 q 443 115 379 158 q 583 71 507 71 q 762 140 684 71 q 876 353 841 211 l 951 353 l 951 8 l 876 8 q 837 96 863 62 q 542 -19 724 -16 q 538 -41 541 -30 q 534 -63 536 -52 q 631 -102 595 -70 q 666 -187 666 -134 q 607 -290 666 -252 q 447 -328 547 -328 q 332 -310 382 -328 q 338 -276 335 -293 q 342 -241 340 -258 q 452 -255 398 -255 q 515 -209 515 -255 q 494 -171 515 -186 q 439 -153 473 -155 z "},"È":{"ha":926,"x_min":31,"x_max":878,"o":"m 399 439 l 399 212 q 406 127 399 147 q 446 94 414 107 q 545 81 479 81 q 678 103 635 81 q 754 182 720 125 q 802 302 787 238 l 878 302 l 872 0 l 31 0 l 31 75 l 48 75 q 137 101 117 75 q 158 188 158 126 l 158 733 q 137 821 158 796 q 48 846 115 846 l 31 846 l 31 920 l 814 920 l 828 682 l 752 682 q 707 781 732 744 q 656 828 682 818 q 570 839 631 839 l 399 839 l 399 522 l 484 522 q 565 545 545 522 q 588 635 585 568 l 665 635 l 665 323 l 588 323 q 589 336 589 332 q 572 408 589 376 q 487 439 555 439 l 399 439 m 585 989 l 526 989 l 212 1206 l 487 1206 l 585 989 z "},"É":{"ha":926,"x_min":31,"x_max":878,"o":"m 399 439 l 399 212 q 406 127 399 147 q 446 94 414 107 q 545 81 479 81 q 678 103 635 81 q 754 182 720 125 q 802 302 787 238 l 878 302 l 872 0 l 31 0 l 31 75 l 48 75 q 137 101 117 75 q 158 188 158 126 l 158 733 q 137 821 158 796 q 48 846 115 846 l 31 846 l 31 920 l 814 920 l 828 682 l 752 682 q 707 781 732 744 q 656 828 682 818 q 570 839 631 839 l 399 839 l 399 522 l 484 522 q 565 545 545 522 q 588 635 585 568 l 665 635 l 665 323 l 588 323 q 589 336 589 332 q 572 408 589 376 q 487 439 555 439 l 399 439 m 334 989 l 432 1206 l 707 1206 l 393 989 l 334 989 z "},"Ê":{"ha":926,"x_min":31,"x_max":878,"o":"m 399 439 l 399 212 q 406 127 399 147 q 446 94 414 107 q 545 81 479 81 q 678 103 635 81 q 754 182 720 125 q 802 302 787 238 l 878 302 l 872 0 l 31 0 l 31 75 l 48 75 q 137 101 117 75 q 158 188 158 126 l 158 733 q 137 821 158 796 q 48 846 115 846 l 31 846 l 31 920 l 814 920 l 828 682 l 752 682 q 707 781 732 744 q 656 828 682 818 q 570 839 631 839 l 399 839 l 399 522 l 484 522 q 565 545 545 522 q 588 635 585 568 l 665 635 l 665 323 l 588 323 q 589 336 589 332 q 572 408 589 376 q 487 439 555 439 l 399 439 m 466 1109 l 294 985 l 233 985 l 367 1229 l 568 1229 l 693 985 l 627 985 l 466 1109 z "},"Ë":{"ha":926,"x_min":31,"x_max":878,"o":"m 399 439 l 399 212 q 406 127 399 147 q 446 94 414 107 q 545 81 479 81 q 678 103 635 81 q 754 182 720 125 q 802 302 787 238 l 878 302 l 872 0 l 31 0 l 31 75 l 48 75 q 137 101 117 75 q 158 188 158 126 l 158 733 q 137 821 158 796 q 48 846 115 846 l 31 846 l 31 920 l 814 920 l 828 682 l 752 682 q 707 781 732 744 q 656 828 682 818 q 570 839 631 839 l 399 839 l 399 522 l 484 522 q 565 545 545 522 q 588 635 585 568 l 665 635 l 665 323 l 588 323 q 589 336 589 332 q 572 408 589 376 q 487 439 555 439 l 399 439 m 218 1102 q 245 1169 218 1140 q 314 1198 273 1198 q 382 1170 353 1198 q 410 1102 410 1142 q 382 1034 410 1063 q 314 1006 353 1006 q 245 1035 273 1006 q 218 1102 218 1063 m 506 1102 q 534 1170 506 1142 q 602 1198 562 1198 q 670 1170 642 1198 q 699 1102 699 1141 q 670 1034 699 1063 q 602 1006 642 1006 q 534 1034 563 1006 q 506 1102 506 1062 z "},"Ì":{"ha":564,"x_min":31,"x_max":523,"o":"m 37 844 l 37 920 l 523 920 l 523 844 l 509 844 q 419 819 440 844 q 399 732 399 793 l 399 188 q 420 100 399 125 q 509 75 441 75 l 523 75 l 523 0 l 37 0 l 37 75 q 134 98 110 75 q 158 188 158 120 l 158 732 q 135 821 158 798 q 37 844 113 844 m 404 989 l 346 989 l 31 1206 l 307 1206 l 404 989 z "},"Í":{"ha":564,"x_min":37,"x_max":527,"o":"m 37 844 l 37 920 l 523 920 l 523 844 l 509 844 q 419 819 440 844 q 399 732 399 793 l 399 188 q 420 100 399 125 q 509 75 441 75 l 523 75 l 523 0 l 37 0 l 37 75 q 134 98 110 75 q 158 188 158 120 l 158 732 q 135 821 158 798 q 37 844 113 844 m 154 989 l 252 1206 l 527 1206 l 213 989 l 154 989 z "},"Î":{"ha":564,"x_min":37,"x_max":523,"o":"m 37 844 l 37 920 l 523 920 l 523 844 l 509 844 q 419 819 440 844 q 399 732 399 793 l 399 188 q 420 100 399 125 q 509 75 441 75 l 523 75 l 523 0 l 37 0 l 37 75 q 134 98 110 75 q 158 188 158 120 l 158 732 q 135 821 158 798 q 37 844 113 844 m 286 1109 l 113 985 l 52 985 l 186 1229 l 388 1229 l 513 985 l 447 985 l 286 1109 z "},"Ï":{"ha":564,"x_min":37,"x_max":523,"o":"m 37 844 l 37 920 l 523 920 l 523 844 l 509 844 q 419 819 440 844 q 399 732 399 793 l 399 188 q 420 100 399 125 q 509 75 441 75 l 523 75 l 523 0 l 37 0 l 37 75 q 134 98 110 75 q 158 188 158 120 l 158 732 q 135 821 158 798 q 37 844 113 844 m 37 1102 q 65 1169 37 1140 q 134 1198 92 1198 q 201 1170 173 1198 q 230 1102 230 1142 q 201 1034 230 1063 q 134 1006 173 1006 q 65 1035 93 1006 q 37 1102 37 1063 m 326 1102 q 354 1170 326 1142 q 422 1198 382 1198 q 490 1170 462 1198 q 518 1102 518 1141 q 490 1034 518 1063 q 422 1006 461 1006 q 354 1034 382 1006 q 326 1102 326 1062 z "},"Ð":{"ha":1114,"x_min":30,"x_max":1044,"o":"m 161 404 l 30 404 l 30 517 l 161 517 l 161 732 q 139 821 161 798 q 41 845 116 845 l 41 920 l 151 924 q 413 930 318 930 q 671 912 572 930 q 859 832 770 894 q 996 671 947 770 q 1044 454 1044 572 q 993 237 1044 332 q 857 84 942 141 q 680 14 771 27 q 372 0 588 0 l 41 0 l 41 75 q 137 98 113 75 q 161 188 161 121 l 161 404 m 401 404 l 401 214 q 407 132 401 153 q 438 96 413 111 q 514 81 463 81 q 705 175 642 81 q 768 455 768 269 q 722 695 768 606 q 600 816 675 784 q 401 848 526 848 l 401 517 l 584 517 l 584 404 l 401 404 z "},"Ñ":{"ha":1085,"x_min":32,"x_max":1050,"o":"m 250 658 l 250 235 q 287 104 250 134 q 382 75 324 75 l 382 0 l 37 0 l 37 75 q 113 97 81 75 q 155 146 146 118 q 163 235 163 174 l 163 704 q 32 844 163 844 l 32 920 l 342 920 l 846 357 l 846 694 q 720 844 846 844 l 720 920 l 1050 920 l 1050 844 q 985 825 1015 844 q 944 777 955 806 q 933 691 933 747 l 933 -15 l 846 -15 l 250 658 m 304 989 q 304 1013 304 1006 q 348 1143 304 1101 q 452 1185 392 1185 q 585 1158 490 1185 q 659 1143 637 1143 q 698 1158 684 1143 q 715 1202 712 1173 l 773 1202 q 774 1177 774 1186 q 736 1046 774 1101 q 631 990 699 990 q 500 1016 590 990 q 411 1034 435 1034 q 380 1023 393 1034 q 360 989 368 1012 l 304 989 z "},"Ò":{"ha":1158,"x_min":64,"x_max":1093,"o":"m 64 463 q 134 705 64 587 q 321 879 203 823 q 574 936 439 936 q 955 796 817 936 q 1093 452 1093 656 q 956 120 1093 259 q 581 -19 818 -19 q 295 50 419 -19 q 117 234 170 118 q 64 463 64 349 m 348 470 q 405 164 348 258 q 574 70 462 70 q 751 156 692 70 q 811 456 811 241 q 755 750 811 653 q 577 847 699 847 q 405 757 462 847 q 348 470 348 667 m 701 989 l 642 989 l 328 1206 l 603 1206 l 701 989 z "},"Ó":{"ha":1158,"x_min":64,"x_max":1093,"o":"m 64 463 q 134 705 64 587 q 321 879 203 823 q 574 936 439 936 q 955 796 817 936 q 1093 452 1093 656 q 956 120 1093 259 q 581 -19 818 -19 q 295 50 419 -19 q 117 234 170 118 q 64 463 64 349 m 348 470 q 405 164 348 258 q 574 70 462 70 q 751 156 692 70 q 811 456 811 241 q 755 750 811 653 q 577 847 699 847 q 405 757 462 847 q 348 470 348 667 m 450 989 l 548 1206 l 823 1206 l 509 989 l 450 989 z "},"Ô":{"ha":1158,"x_min":64,"x_max":1093,"o":"m 64 463 q 134 705 64 587 q 321 879 203 823 q 574 936 439 936 q 955 796 817 936 q 1093 452 1093 656 q 956 120 1093 259 q 581 -19 818 -19 q 295 50 419 -19 q 117 234 170 118 q 64 463 64 349 m 348 470 q 405 164 348 258 q 574 70 462 70 q 751 156 692 70 q 811 456 811 241 q 755 750 811 653 q 577 847 699 847 q 405 757 462 847 q 348 470 348 667 m 582 1109 l 410 985 l 349 985 l 483 1229 l 684 1229 l 809 985 l 743 985 l 582 1109 z "},"Õ":{"ha":1158,"x_min":64,"x_max":1093,"o":"m 64 463 q 134 705 64 587 q 321 879 203 823 q 574 936 439 936 q 955 796 817 936 q 1093 452 1093 656 q 956 120 1093 259 q 581 -19 818 -19 q 295 50 419 -19 q 117 234 170 118 q 64 463 64 349 m 348 470 q 405 164 348 258 q 574 70 462 70 q 751 156 692 70 q 811 456 811 241 q 755 750 811 653 q 577 847 699 847 q 405 757 462 847 q 348 470 348 667 m 340 1010 q 340 1034 340 1027 q 384 1163 340 1121 q 488 1206 428 1206 q 621 1179 526 1206 q 694 1164 673 1164 q 734 1178 720 1164 q 751 1222 748 1193 l 809 1222 q 810 1197 810 1206 q 772 1066 810 1122 q 667 1010 734 1010 q 536 1036 626 1010 q 447 1055 471 1055 q 416 1043 429 1055 q 396 1010 404 1032 l 340 1010 z "},"Ö":{"ha":1158,"x_min":64,"x_max":1093,"o":"m 64 463 q 134 705 64 587 q 321 879 203 823 q 574 936 439 936 q 955 796 817 936 q 1093 452 1093 656 q 956 120 1093 259 q 581 -19 818 -19 q 295 50 419 -19 q 117 234 170 118 q 64 463 64 349 m 348 470 q 405 164 348 258 q 574 70 462 70 q 751 156 692 70 q 811 456 811 241 q 755 750 811 653 q 577 847 699 847 q 405 757 462 847 q 348 470 348 667 m 334 1102 q 361 1169 334 1140 q 430 1198 389 1198 q 498 1170 469 1198 q 526 1102 526 1142 q 498 1034 526 1063 q 430 1006 469 1006 q 361 1035 389 1006 q 334 1102 334 1063 m 622 1102 q 650 1170 622 1142 q 718 1198 678 1198 q 786 1170 758 1198 q 814 1102 814 1141 q 786 1034 814 1063 q 718 1006 758 1006 q 650 1034 679 1006 q 622 1102 622 1062 z "},"×":{"ha":926,"x_min":108,"x_max":819,"o":"m 108 711 l 208 811 l 463 555 l 719 811 l 819 711 l 564 455 l 817 202 l 718 103 l 464 355 l 210 103 l 110 202 l 363 455 l 108 711 z "},"Ø":{"ha":1158,"x_min":64,"x_max":1093,"o":"m 880 857 l 951 937 l 1006 887 l 939 811 q 1093 452 1093 667 q 955 119 1093 258 q 586 -19 816 -19 q 278 59 412 -19 l 210 -18 l 152 31 l 216 104 q 106 259 148 162 q 64 456 64 355 q 205 795 64 654 q 572 936 347 936 q 880 857 754 936 m 766 728 q 577 847 713 847 q 406 759 463 847 q 348 458 348 670 q 364 272 348 362 l 766 728 m 793 645 l 391 189 q 581 70 448 70 q 752 158 694 70 q 811 445 811 247 q 793 645 811 555 z "},"Ù":{"ha":1071,"x_min":23,"x_max":1044,"o":"m 23 844 l 23 920 l 509 920 l 509 844 l 493 844 q 404 819 425 844 q 384 732 384 794 l 384 369 q 400 213 384 270 q 471 116 416 156 q 603 76 526 76 q 746 119 686 76 q 823 223 805 161 q 840 394 840 284 l 840 703 q 704 844 840 844 l 704 920 l 1044 920 l 1044 844 q 983 828 1015 844 q 939 782 951 811 q 927 699 927 752 l 927 392 q 915 230 927 293 q 855 110 902 168 q 725 16 808 52 q 540 -19 642 -19 q 349 16 433 -19 q 220 104 264 51 q 159 220 175 157 q 143 369 143 283 l 143 732 q 121 821 143 797 q 23 844 98 844 m 657 989 l 599 989 l 284 1206 l 559 1206 l 657 989 z "},"Ú":{"ha":1071,"x_min":23,"x_max":1044,"o":"m 23 844 l 23 920 l 509 920 l 509 844 l 493 844 q 404 819 425 844 q 384 732 384 794 l 384 369 q 400 213 384 270 q 471 116 416 156 q 603 76 526 76 q 746 119 686 76 q 823 223 805 161 q 840 394 840 284 l 840 703 q 704 844 840 844 l 704 920 l 1044 920 l 1044 844 q 983 828 1015 844 q 939 782 951 811 q 927 699 927 752 l 927 392 q 915 230 927 293 q 855 110 902 168 q 725 16 808 52 q 540 -19 642 -19 q 349 16 433 -19 q 220 104 264 51 q 159 220 175 157 q 143 369 143 283 l 143 732 q 121 821 143 797 q 23 844 98 844 m 456 989 l 553 1206 l 829 1206 l 515 989 l 456 989 z "},"Û":{"ha":1071,"x_min":23,"x_max":1044,"o":"m 23 844 l 23 920 l 509 920 l 509 844 l 493 844 q 404 819 425 844 q 384 732 384 794 l 384 369 q 400 213 384 270 q 471 116 416 156 q 603 76 526 76 q 746 119 686 76 q 823 223 805 161 q 840 394 840 284 l 840 703 q 704 844 840 844 l 704 920 l 1044 920 l 1044 844 q 983 828 1015 844 q 939 782 951 811 q 927 699 927 752 l 927 392 q 915 230 927 293 q 855 110 902 168 q 725 16 808 52 q 540 -19 642 -19 q 349 16 433 -19 q 220 104 264 51 q 159 220 175 157 q 143 369 143 283 l 143 732 q 121 821 143 797 q 23 844 98 844 m 587 1109 l 415 985 l 354 985 l 488 1229 l 690 1229 l 814 985 l 749 985 l 587 1109 z "},"Ü":{"ha":1071,"x_min":23,"x_max":1044,"o":"m 23 844 l 23 920 l 509 920 l 509 844 l 493 844 q 404 819 425 844 q 384 732 384 794 l 384 369 q 400 213 384 270 q 471 116 416 156 q 603 76 526 76 q 746 119 686 76 q 823 223 805 161 q 840 394 840 284 l 840 703 q 704 844 840 844 l 704 920 l 1044 920 l 1044 844 q 983 828 1015 844 q 939 782 951 811 q 927 699 927 752 l 927 392 q 915 230 927 293 q 855 110 902 168 q 725 16 808 52 q 540 -19 642 -19 q 349 16 433 -19 q 220 104 264 51 q 159 220 175 157 q 143 369 143 283 l 143 732 q 121 821 143 797 q 23 844 98 844 m 326 1102 q 353 1169 326 1140 q 422 1198 380 1198 q 490 1170 461 1198 q 518 1102 518 1142 q 490 1034 518 1063 q 422 1006 461 1006 q 353 1035 381 1006 q 326 1102 326 1063 m 614 1102 q 642 1170 614 1142 q 710 1198 670 1198 q 778 1170 750 1198 q 806 1102 806 1141 q 778 1034 806 1063 q 710 1006 749 1006 q 642 1034 671 1006 q 614 1102 614 1062 z "},"Ý":{"ha":955,"x_min":1,"x_max":953,"o":"m 356 377 l 149 723 q 73 824 100 804 q 1 844 46 844 l 1 920 l 463 920 l 463 844 q 388 804 388 844 q 416 736 388 782 l 566 486 l 705 717 q 726 784 726 752 q 637 844 726 844 l 637 920 l 953 920 l 953 844 q 874 812 909 844 q 774 674 839 779 l 600 392 l 600 188 q 621 100 600 125 q 709 75 642 75 l 724 75 l 724 0 l 231 0 l 231 75 l 245 75 q 335 101 315 75 q 356 188 356 126 l 356 377 m 349 989 l 447 1206 l 722 1206 l 408 989 l 349 989 z "},"Þ":{"ha":882,"x_min":21,"x_max":878,"o":"m 526 920 l 526 844 l 505 844 q 416 820 438 844 q 394 737 394 795 l 394 720 q 670 702 580 720 q 819 618 760 684 q 878 459 878 552 q 822 305 878 369 q 683 220 766 241 q 462 199 599 199 l 394 199 q 414 101 394 127 q 505 75 434 75 l 526 75 l 526 0 l 27 0 l 27 75 l 43 75 q 133 101 112 75 q 153 188 153 126 l 153 732 q 132 820 153 795 q 43 844 111 844 l 21 844 l 21 920 l 526 920 m 394 281 l 439 281 q 573 319 528 281 q 618 454 618 357 q 592 568 618 524 q 525 625 566 612 q 394 638 484 638 l 394 281 z "},"ß":{"ha":868,"x_min":34,"x_max":818,"o":"m 436 473 l 436 544 q 562 703 562 544 q 534 822 562 783 q 450 862 506 862 q 364 830 387 862 q 341 703 341 798 l 341 147 q 352 89 341 104 q 400 72 363 73 l 400 0 l 34 0 l 34 72 q 105 88 88 72 q 121 162 121 104 l 121 595 q 149 791 121 724 q 254 897 176 859 q 449 936 332 936 q 691 874 608 936 q 774 711 774 812 q 719 583 774 637 q 582 511 665 530 q 759 411 700 480 q 818 235 818 342 q 751 57 818 127 q 583 -12 684 -12 q 478 18 515 -12 q 442 90 442 49 q 452 117 442 106 q 476 129 462 129 q 501 100 496 129 q 543 54 509 54 q 577 75 564 54 q 590 182 590 96 q 551 416 590 358 q 436 473 511 475 z "},"à":{"ha":781,"x_min":67,"x_max":777,"o":"m 439 59 q 336 5 390 23 q 223 -13 282 -13 q 106 22 145 -13 q 67 110 67 58 q 145 241 67 184 q 427 367 223 298 l 427 417 q 401 486 427 471 q 340 501 376 501 q 245 439 255 501 q 218 377 239 396 q 155 357 198 357 q 94 378 117 357 q 71 427 71 399 q 155 534 71 490 q 378 578 238 578 q 508 568 456 578 q 593 533 561 559 q 636 479 625 507 q 646 401 646 450 l 646 144 q 682 85 646 85 q 720 123 712 85 l 777 123 q 725 20 774 54 q 608 -13 676 -13 q 439 59 483 -13 m 427 132 l 427 291 q 304 220 333 252 q 275 154 275 188 q 292 107 275 128 q 337 87 309 87 q 384 98 361 87 q 427 132 406 110 m 513 670 l 454 670 l 140 888 l 415 888 l 513 670 z "},"á":{"ha":781,"x_min":67,"x_max":777,"o":"m 439 59 q 336 5 390 23 q 223 -13 282 -13 q 106 22 145 -13 q 67 110 67 58 q 145 241 67 184 q 427 367 223 298 l 427 417 q 401 486 427 471 q 340 501 376 501 q 245 439 255 501 q 218 377 239 396 q 155 357 198 357 q 94 378 117 357 q 71 427 71 399 q 155 534 71 490 q 378 578 238 578 q 508 568 456 578 q 593 533 561 559 q 636 479 625 507 q 646 401 646 450 l 646 144 q 682 85 646 85 q 720 123 712 85 l 777 123 q 725 20 774 54 q 608 -13 676 -13 q 439 59 483 -13 m 427 132 l 427 291 q 304 220 333 252 q 275 154 275 188 q 292 107 275 128 q 337 87 309 87 q 384 98 361 87 q 427 132 406 110 m 262 670 l 360 888 l 635 888 l 321 670 l 262 670 z "},"â":{"ha":781,"x_min":67,"x_max":777,"o":"m 439 59 q 336 5 390 23 q 223 -13 282 -13 q 106 22 145 -13 q 67 110 67 58 q 145 241 67 184 q 427 367 223 298 l 427 417 q 401 486 427 471 q 340 501 376 501 q 245 439 255 501 q 218 377 239 396 q 155 357 198 357 q 94 378 117 357 q 71 427 71 399 q 155 534 71 490 q 378 578 238 578 q 508 568 456 578 q 593 533 561 559 q 636 479 625 507 q 646 401 646 450 l 646 144 q 682 85 646 85 q 720 123 712 85 l 777 123 q 725 20 774 54 q 608 -13 676 -13 q 439 59 483 -13 m 427 132 l 427 291 q 304 220 333 252 q 275 154 275 188 q 292 107 275 128 q 337 87 309 87 q 384 98 361 87 q 427 132 406 110 m 377 791 l 205 666 l 144 666 l 278 910 l 479 910 l 604 666 l 538 666 l 377 791 z "},"ã":{"ha":781,"x_min":67,"x_max":777,"o":"m 439 59 q 336 5 390 23 q 223 -13 282 -13 q 106 22 145 -13 q 67 110 67 58 q 145 241 67 184 q 427 367 223 298 l 427 417 q 401 486 427 471 q 340 501 376 501 q 245 439 255 501 q 218 377 239 396 q 155 357 198 357 q 94 378 117 357 q 71 427 71 399 q 155 534 71 490 q 378 578 238 578 q 508 568 456 578 q 593 533 561 559 q 636 479 625 507 q 646 401 646 450 l 646 144 q 682 85 646 85 q 720 123 712 85 l 777 123 q 725 20 774 54 q 608 -13 676 -13 q 439 59 483 -13 m 427 132 l 427 291 q 304 220 333 252 q 275 154 275 188 q 292 107 275 128 q 337 87 309 87 q 384 98 361 87 q 427 132 406 110 m 153 671 q 152 694 152 688 q 196 824 152 782 q 300 867 240 867 q 433 840 338 867 q 507 825 486 825 q 546 839 532 825 q 563 883 560 854 l 621 883 q 623 858 623 867 q 585 727 623 783 q 479 671 547 671 q 349 697 438 671 q 259 715 283 715 q 228 704 241 715 q 208 671 216 693 l 153 671 z "},"ä":{"ha":781,"x_min":67,"x_max":777,"o":"m 439 59 q 336 5 390 23 q 223 -13 282 -13 q 106 22 145 -13 q 67 110 67 58 q 145 241 67 184 q 427 367 223 298 l 427 417 q 401 486 427 471 q 340 501 376 501 q 245 439 255 501 q 218 377 239 396 q 155 357 198 357 q 94 378 117 357 q 71 427 71 399 q 155 534 71 490 q 378 578 238 578 q 508 568 456 578 q 593 533 561 559 q 636 479 625 507 q 646 401 646 450 l 646 144 q 682 85 646 85 q 720 123 712 85 l 777 123 q 725 20 774 54 q 608 -13 676 -13 q 439 59 483 -13 m 427 132 l 427 291 q 304 220 333 252 q 275 154 275 188 q 292 107 275 128 q 337 87 309 87 q 384 98 361 87 q 427 132 406 110 m 146 783 q 173 850 146 821 q 242 880 201 880 q 310 851 281 880 q 338 783 338 823 q 310 715 338 744 q 242 687 281 687 q 174 716 201 687 q 146 783 146 745 m 434 783 q 462 851 434 823 q 530 880 490 880 q 598 851 570 880 q 627 783 627 823 q 598 715 627 744 q 530 687 570 687 q 463 715 491 687 q 434 783 434 743 z "},"å":{"ha":781,"x_min":67,"x_max":777,"o":"m 439 59 q 336 5 390 23 q 223 -13 282 -13 q 106 22 145 -13 q 67 110 67 58 q 145 241 67 184 q 427 367 223 298 l 427 417 q 401 486 427 471 q 340 501 376 501 q 245 439 255 501 q 218 377 239 396 q 155 357 198 357 q 94 378 117 357 q 71 427 71 399 q 155 534 71 490 q 378 578 238 578 q 508 568 456 578 q 593 533 561 559 q 636 479 625 507 q 646 401 646 450 l 646 144 q 682 85 646 85 q 720 123 712 85 l 777 123 q 725 20 774 54 q 608 -13 676 -13 q 439 59 483 -13 m 427 132 l 427 291 q 304 220 333 252 q 275 154 275 188 q 292 107 275 128 q 337 87 309 87 q 384 98 361 87 q 427 132 406 110 m 265 775 q 301 860 265 825 q 386 896 336 896 q 471 860 435 896 q 507 775 507 825 q 471 690 507 726 q 386 654 435 654 q 300 690 334 654 q 265 775 265 726 m 315 775 q 336 724 315 745 q 386 703 357 703 q 437 724 416 703 q 458 775 458 745 q 437 826 458 804 q 386 848 416 848 q 336 826 357 848 q 315 775 315 805 z "},"æ":{"ha":1042,"x_min":60,"x_max":997,"o":"m 462 85 q 333 12 394 37 q 216 -12 271 -12 q 104 23 149 -12 q 60 113 60 59 q 133 237 60 179 q 410 367 206 296 l 410 404 q 391 478 410 453 q 321 503 372 503 q 239 442 248 503 q 152 361 228 361 q 89 380 113 361 q 65 427 65 399 q 148 535 65 492 q 362 578 231 578 q 476 570 424 578 q 569 545 528 562 q 640 570 604 562 q 713 578 675 578 q 866 537 797 578 q 963 435 935 496 q 997 285 992 373 l 629 285 q 671 118 629 164 q 773 72 713 72 q 913 144 849 72 l 976 106 q 867 19 938 50 q 715 -12 796 -12 q 586 7 649 -12 q 462 85 523 26 m 633 353 l 794 353 q 767 476 792 447 q 711 505 741 505 q 653 472 673 505 q 633 353 633 440 m 410 132 l 410 292 q 295 221 322 253 q 267 157 267 189 q 283 110 267 130 q 326 90 300 90 q 367 101 346 90 q 410 132 389 111 z "},"ç":{"ha":680,"x_min":51,"x_max":654,"o":"m 258 -153 q 273 -98 266 -132 q 287 -14 280 -63 q 145 54 208 3 q 51 264 51 130 q 154 492 51 405 q 421 578 256 578 q 582 541 524 578 q 642 442 642 503 q 618 381 642 408 q 557 355 594 355 q 463 452 484 355 q 445 492 457 480 q 403 505 433 505 q 282 313 282 505 q 291 201 282 248 q 318 125 300 155 q 365 82 337 96 q 432 68 393 68 q 585 171 537 68 l 654 140 q 551 20 626 62 q 376 -22 476 -22 q 368 -22 372 -22 q 360 -22 364 -22 q 357 -42 359 -32 q 353 -63 355 -52 q 450 -102 414 -70 q 485 -187 485 -134 q 426 -290 485 -252 q 266 -328 366 -328 q 151 -310 201 -328 q 157 -276 154 -293 q 161 -241 159 -258 q 271 -255 217 -255 q 334 -209 334 -255 q 313 -171 334 -186 q 258 -153 292 -155 z "},"è":{"ha":724,"x_min":61,"x_max":675,"o":"m 296 284 q 334 118 296 174 q 447 62 372 62 q 594 144 527 62 l 657 106 q 546 14 618 50 q 387 -22 474 -22 q 157 59 252 -22 q 61 280 61 141 q 154 498 61 419 q 376 578 246 578 q 591 505 507 578 q 675 284 675 432 l 296 284 m 296 353 l 467 353 q 380 503 463 503 q 317 465 338 503 q 296 353 296 428 m 484 670 l 425 670 l 111 888 l 386 888 l 484 670 z "},"é":{"ha":724,"x_min":61,"x_max":675,"o":"m 296 284 q 334 118 296 174 q 447 62 372 62 q 594 144 527 62 l 657 106 q 546 14 618 50 q 387 -22 474 -22 q 157 59 252 -22 q 61 280 61 141 q 154 498 61 419 q 376 578 246 578 q 591 505 507 578 q 675 284 675 432 l 296 284 m 296 353 l 467 353 q 380 503 463 503 q 317 465 338 503 q 296 353 296 428 m 233 670 l 331 888 l 606 888 l 292 670 l 233 670 z "},"ê":{"ha":724,"x_min":61,"x_max":675,"o":"m 296 284 q 334 118 296 174 q 447 62 372 62 q 594 144 527 62 l 657 106 q 546 14 618 50 q 387 -22 474 -22 q 157 59 252 -22 q 61 280 61 141 q 154 498 61 419 q 376 578 246 578 q 591 505 507 578 q 675 284 675 432 l 296 284 m 296 353 l 467 353 q 380 503 463 503 q 317 465 338 503 q 296 353 296 428 m 365 791 l 193 666 l 132 666 l 266 910 l 467 910 l 592 666 l 526 666 l 365 791 z "},"ë":{"ha":724,"x_min":61,"x_max":675,"o":"m 296 284 q 334 118 296 174 q 447 62 372 62 q 594 144 527 62 l 657 106 q 546 14 618 50 q 387 -22 474 -22 q 157 59 252 -22 q 61 280 61 141 q 154 498 61 419 q 376 578 246 578 q 591 505 507 578 q 675 284 675 432 l 296 284 m 296 353 l 467 353 q 380 503 463 503 q 317 465 338 503 q 296 353 296 428 m 117 783 q 144 850 117 821 q 213 880 172 880 q 281 851 252 880 q 309 783 309 823 q 281 715 309 744 q 213 687 252 687 q 144 716 172 687 q 117 783 117 745 m 405 783 q 433 851 405 823 q 501 880 461 880 q 569 851 541 880 q 597 783 597 823 q 569 715 597 744 q 501 687 541 687 q 433 715 462 687 q 405 783 405 743 z "},"ì":{"ha":463,"x_min":-20,"x_max":439,"o":"m 347 578 l 347 162 q 363 91 347 111 q 439 72 380 72 l 439 0 l 24 0 l 24 72 l 40 72 q 113 92 98 72 q 128 162 128 113 l 128 364 q 113 434 128 414 q 40 454 97 454 l 24 454 l 24 526 l 347 578 m 353 670 l 295 670 l -20 888 l 256 888 l 353 670 z "},"í":{"ha":463,"x_min":24,"x_max":476,"o":"m 347 578 l 347 162 q 363 91 347 111 q 439 72 380 72 l 439 0 l 24 0 l 24 72 l 40 72 q 113 92 98 72 q 128 162 128 113 l 128 364 q 113 434 128 414 q 40 454 97 454 l 24 454 l 24 526 l 347 578 m 103 670 l 201 888 l 476 888 l 162 670 l 103 670 z "},"î":{"ha":463,"x_min":1,"x_max":462,"o":"m 347 578 l 347 162 q 363 91 347 111 q 439 72 380 72 l 439 0 l 24 0 l 24 72 l 40 72 q 113 92 98 72 q 128 162 128 113 l 128 364 q 113 434 128 414 q 40 454 97 454 l 24 454 l 24 526 l 347 578 m 235 791 l 62 666 l 1 666 l 136 910 l 337 910 l 462 666 l 396 666 l 235 791 z "},"ï":{"ha":463,"x_min":-14,"x_max":467,"o":"m 347 578 l 347 162 q 363 91 347 111 q 439 72 380 72 l 439 0 l 24 0 l 24 72 l 40 72 q 113 92 98 72 q 128 162 128 113 l 128 364 q 113 434 128 414 q 40 454 97 454 l 24 454 l 24 526 l 347 578 m -14 783 q 14 850 -14 821 q 83 880 41 880 q 151 851 122 880 q 179 783 179 823 q 151 715 179 744 q 83 687 122 687 q 14 716 42 687 q -14 783 -14 745 m 275 783 q 303 851 275 823 q 371 880 331 880 q 439 851 411 880 q 467 783 467 823 q 439 715 467 744 q 371 687 410 687 q 303 715 332 687 q 275 783 275 743 z "},"ð":{"ha":767,"x_min":51,"x_max":728,"o":"m 218 832 l 300 934 q 460 842 385 896 l 585 907 l 619 842 l 520 791 q 728 332 728 596 q 639 74 728 168 q 394 -20 551 -20 q 146 60 241 -20 q 51 276 51 140 q 144 492 51 410 q 373 574 238 574 q 466 564 412 574 q 374 715 435 648 l 220 635 l 188 701 l 317 768 q 218 832 272 802 m 283 305 q 310 107 283 157 q 389 57 336 57 q 468 111 441 57 q 494 274 494 165 q 468 447 494 397 q 387 497 443 497 q 310 449 336 497 q 283 305 283 401 z "},"ñ":{"ha":839,"x_min":28,"x_max":831,"o":"m 343 381 l 343 161 q 357 93 343 113 q 408 72 372 73 l 408 0 l 28 0 l 28 72 q 104 91 87 72 q 120 161 120 109 l 120 351 q 104 421 120 402 q 28 441 88 441 l 28 513 l 330 562 q 343 481 341 536 q 437 554 388 530 q 539 578 486 578 q 688 525 634 578 q 743 381 743 473 l 743 161 q 759 91 743 110 q 831 72 776 72 l 831 0 l 454 0 l 454 72 q 502 88 482 73 q 521 161 521 103 l 521 364 q 506 440 521 420 q 462 460 490 460 q 404 441 433 460 q 343 381 374 421 m 181 671 q 180 694 180 688 q 224 824 180 782 q 328 867 269 867 q 461 840 367 867 q 535 825 514 825 q 574 839 560 825 q 591 883 589 854 l 650 883 q 651 858 651 867 q 613 727 651 783 q 508 671 575 671 q 377 697 467 671 q 288 715 312 715 q 257 704 269 715 q 237 671 244 693 l 181 671 z "},"ò":{"ha":781,"x_min":52,"x_max":730,"o":"m 52 279 q 151 498 52 419 q 390 578 250 578 q 629 501 527 578 q 730 279 730 424 q 631 59 730 141 q 389 -22 531 -22 q 151 55 251 -22 q 52 279 52 133 m 284 286 q 308 104 284 156 q 392 52 332 52 q 469 96 440 52 q 498 281 498 139 q 472 455 498 410 q 391 501 446 501 q 315 462 347 501 q 284 286 284 423 m 513 670 l 454 670 l 140 888 l 415 888 l 513 670 z "},"ó":{"ha":781,"x_min":52,"x_max":730,"o":"m 52 279 q 151 498 52 419 q 390 578 250 578 q 629 501 527 578 q 730 279 730 424 q 631 59 730 141 q 389 -22 531 -22 q 151 55 251 -22 q 52 279 52 133 m 284 286 q 308 104 284 156 q 392 52 332 52 q 469 96 440 52 q 498 281 498 139 q 472 455 498 410 q 391 501 446 501 q 315 462 347 501 q 284 286 284 423 m 262 670 l 360 888 l 635 888 l 321 670 l 262 670 z "},"ô":{"ha":781,"x_min":52,"x_max":730,"o":"m 52 279 q 151 498 52 419 q 390 578 250 578 q 629 501 527 578 q 730 279 730 424 q 631 59 730 141 q 389 -22 531 -22 q 151 55 251 -22 q 52 279 52 133 m 284 286 q 308 104 284 156 q 392 52 332 52 q 469 96 440 52 q 498 281 498 139 q 472 455 498 410 q 391 501 446 501 q 315 462 347 501 q 284 286 284 423 m 394 791 l 222 666 l 161 666 l 295 910 l 496 910 l 621 666 l 555 666 l 394 791 z "},"õ":{"ha":781,"x_min":52,"x_max":730,"o":"m 52 279 q 151 498 52 419 q 390 578 250 578 q 629 501 527 578 q 730 279 730 424 q 631 59 730 141 q 389 -22 531 -22 q 151 55 251 -22 q 52 279 52 133 m 284 286 q 308 104 284 156 q 392 52 332 52 q 469 96 440 52 q 498 281 498 139 q 472 455 498 410 q 391 501 446 501 q 315 462 347 501 q 284 286 284 423 m 153 671 q 152 694 152 688 q 196 824 152 782 q 300 867 240 867 q 433 840 338 867 q 507 825 486 825 q 546 839 532 825 q 563 883 560 854 l 621 883 q 623 858 623 867 q 585 727 623 783 q 479 671 547 671 q 349 697 438 671 q 259 715 283 715 q 228 704 241 715 q 208 671 216 693 l 153 671 z "},"ö":{"ha":781,"x_min":52,"x_max":730,"o":"m 52 279 q 151 498 52 419 q 390 578 250 578 q 629 501 527 578 q 730 279 730 424 q 631 59 730 141 q 389 -22 531 -22 q 151 55 251 -22 q 52 279 52 133 m 284 286 q 308 104 284 156 q 392 52 332 52 q 469 96 440 52 q 498 281 498 139 q 472 455 498 410 q 391 501 446 501 q 315 462 347 501 q 284 286 284 423 m 146 783 q 173 850 146 821 q 242 880 201 880 q 310 851 281 880 q 338 783 338 823 q 310 715 338 744 q 242 687 281 687 q 174 716 201 687 q 146 783 146 745 m 434 783 q 462 851 434 823 q 530 880 490 880 q 598 851 570 880 q 627 783 627 823 q 598 715 627 744 q 530 687 570 687 q 463 715 491 687 q 434 783 434 743 z "},"÷":{"ha":926,"x_min":86,"x_max":840,"o":"m 545 741 q 520 681 545 706 q 461 656 496 656 q 401 681 426 656 q 376 741 376 706 q 401 801 376 776 q 461 826 426 826 q 520 801 496 826 q 545 741 545 777 m 86 525 l 840 525 l 840 389 l 86 389 l 86 525 m 547 177 q 522 117 547 142 q 462 92 497 92 q 401 117 427 92 q 376 177 376 142 q 401 237 376 212 q 462 262 427 262 q 522 237 497 262 q 547 177 547 212 z "},"ø":{"ha":781,"x_min":52,"x_max":730,"o":"m 568 538 l 631 610 l 685 562 l 631 499 q 730 278 730 420 q 631 59 730 141 q 389 -22 531 -22 q 212 18 297 -22 l 150 -52 l 94 -4 l 149 58 q 52 275 52 134 q 151 499 52 420 q 389 578 250 578 q 568 538 484 578 m 480 437 q 391 501 456 501 q 327 476 353 501 q 293 409 301 451 q 284 279 284 367 q 286 215 284 245 l 480 437 m 496 345 l 301 121 q 392 52 326 52 q 475 106 452 52 q 498 281 498 160 q 496 345 498 317 z "},"ù":{"ha":839,"x_min":24,"x_max":823,"o":"m 511 76 q 416 2 467 27 q 306 -22 365 -22 q 169 20 231 -22 q 108 180 108 62 l 108 393 q 91 465 108 446 q 24 484 75 484 l 24 555 l 327 555 l 327 193 q 343 117 327 140 q 395 94 359 94 q 450 115 421 94 q 511 180 479 137 l 511 393 q 495 464 511 444 q 420 484 479 484 l 420 555 l 731 555 l 731 162 q 747 91 731 111 q 823 72 763 72 l 823 0 q 790 1 805 1 q 511 -22 665 1 l 511 76 m 541 670 l 483 670 l 168 888 l 444 888 l 541 670 z "},"ú":{"ha":839,"x_min":24,"x_max":823,"o":"m 511 76 q 416 2 467 27 q 306 -22 365 -22 q 169 20 231 -22 q 108 180 108 62 l 108 393 q 91 465 108 446 q 24 484 75 484 l 24 555 l 327 555 l 327 193 q 343 117 327 140 q 395 94 359 94 q 450 115 421 94 q 511 180 479 137 l 511 393 q 495 464 511 444 q 420 484 479 484 l 420 555 l 731 555 l 731 162 q 747 91 731 111 q 823 72 763 72 l 823 0 q 790 1 805 1 q 511 -22 665 1 l 511 76 m 291 670 l 389 888 l 664 888 l 350 670 l 291 670 z "},"û":{"ha":839,"x_min":24,"x_max":823,"o":"m 511 76 q 416 2 467 27 q 306 -22 365 -22 q 169 20 231 -22 q 108 180 108 62 l 108 393 q 91 465 108 446 q 24 484 75 484 l 24 555 l 327 555 l 327 193 q 343 117 327 140 q 395 94 359 94 q 450 115 421 94 q 511 180 479 137 l 511 393 q 495 464 511 444 q 420 484 479 484 l 420 555 l 731 555 l 731 162 q 747 91 731 111 q 823 72 763 72 l 823 0 q 790 1 805 1 q 511 -22 665 1 l 511 76 m 422 791 l 250 666 l 189 666 l 323 910 l 525 910 l 650 666 l 584 666 l 422 791 z "},"ü":{"ha":839,"x_min":24,"x_max":823,"o":"m 511 76 q 416 2 467 27 q 306 -22 365 -22 q 169 20 231 -22 q 108 180 108 62 l 108 393 q 91 465 108 446 q 24 484 75 484 l 24 555 l 327 555 l 327 193 q 343 117 327 140 q 395 94 359 94 q 450 115 421 94 q 511 180 479 137 l 511 393 q 495 464 511 444 q 420 484 479 484 l 420 555 l 731 555 l 731 162 q 747 91 731 111 q 823 72 763 72 l 823 0 q 790 1 805 1 q 511 -22 665 1 l 511 76 m 174 783 q 202 850 174 821 q 271 880 229 880 q 338 851 310 880 q 367 783 367 823 q 338 715 367 744 q 271 687 310 687 q 202 716 230 687 q 174 783 174 745 m 463 783 q 491 851 463 823 q 559 880 519 880 q 627 851 599 880 q 655 783 655 823 q 627 715 655 744 q 559 687 598 687 q 491 715 519 687 q 463 783 463 743 z "},"ý":{"ha":738,"x_min":4,"x_max":729,"o":"m 451 192 l 541 383 q 565 448 565 435 q 507 484 565 484 l 507 555 l 729 555 l 729 484 q 672 459 689 480 q 597 317 656 438 l 380 -133 q 278 -306 317 -266 q 180 -346 239 -346 q 108 -319 136 -346 q 79 -254 79 -293 q 171 -166 79 -189 q 283 -122 256 -146 q 344 -25 311 -98 l 102 389 l 92 410 q 51 471 64 460 q 4 484 37 481 l 4 555 l 364 555 l 364 484 q 311 456 311 482 q 332 407 311 446 l 451 192 m 241 670 l 338 888 l 614 888 l 300 670 l 241 670 z "},"þ":{"ha":854,"x_min":16,"x_max":802,"o":"m 328 56 l 328 -165 q 344 -235 328 -216 q 416 -255 360 -255 l 438 -255 l 438 -328 l 16 -328 l 16 -255 q 92 -237 75 -255 q 109 -165 109 -219 l 109 720 q 93 791 109 772 q 16 810 77 810 l 16 882 l 324 936 l 324 481 q 426 554 372 530 q 537 578 479 578 q 724 497 646 578 q 802 284 802 416 q 720 63 802 149 q 526 -22 637 -22 q 424 -3 473 -22 q 328 56 375 17 m 328 138 q 386 95 355 109 q 448 80 416 80 q 541 129 510 80 q 571 274 571 177 q 543 426 571 376 q 457 477 514 477 q 381 449 418 477 q 328 389 345 422 l 328 138 z "},"ÿ":{"ha":738,"x_min":4,"x_max":729,"o":"m 451 192 l 541 383 q 565 448 565 435 q 507 484 565 484 l 507 555 l 729 555 l 729 484 q 672 459 689 480 q 597 317 656 438 l 380 -133 q 278 -306 317 -266 q 180 -346 239 -346 q 108 -319 136 -346 q 79 -254 79 -293 q 171 -166 79 -189 q 283 -122 256 -146 q 344 -25 311 -98 l 102 389 l 92 410 q 51 471 64 460 q 4 484 37 481 l 4 555 l 364 555 l 364 484 q 311 456 311 482 q 332 407 311 446 l 451 192 m 124 783 q 152 850 124 821 q 220 880 179 880 q 288 851 260 880 q 317 783 317 823 q 288 715 317 744 q 220 687 260 687 q 152 716 180 687 q 124 783 124 745 m 412 783 q 440 851 412 823 q 509 880 469 880 q 577 851 549 880 q 605 783 605 823 q 576 715 605 744 q 509 687 548 687 q 441 715 469 687 q 412 783 412 743 z "},"Ā":{"ha":882,"x_min":-28,"x_max":911,"o":"m 216 248 l 199 203 q 180 135 180 155 q 202 89 180 102 q 275 75 224 75 l 275 0 l -28 0 l -28 75 q 117 223 58 75 l 400 936 l 479 936 l 768 224 q 845 97 810 118 q 911 75 880 75 l 911 0 l 455 0 l 455 75 q 532 87 517 75 q 547 117 547 99 q 534 160 547 134 l 526 181 l 499 248 l 216 248 m 245 326 l 469 326 l 354 601 l 245 326 m 194 1095 l 194 1211 l 688 1211 l 688 1095 l 194 1095 z "},"ā":{"ha":781,"x_min":67,"x_max":777,"o":"m 439 59 q 336 5 390 23 q 223 -13 282 -13 q 106 22 145 -13 q 67 110 67 58 q 145 241 67 184 q 427 367 223 298 l 427 417 q 401 486 427 471 q 340 501 376 501 q 245 439 255 501 q 218 377 239 396 q 155 357 198 357 q 94 378 117 357 q 71 427 71 399 q 155 534 71 490 q 378 578 238 578 q 508 568 456 578 q 593 533 561 559 q 636 479 625 507 q 646 401 646 450 l 646 144 q 682 85 646 85 q 720 123 712 85 l 777 123 q 725 20 774 54 q 608 -13 676 -13 q 439 59 483 -13 m 427 132 l 427 291 q 304 220 333 252 q 275 154 275 188 q 292 107 275 128 q 337 87 309 87 q 384 98 361 87 q 427 132 406 110 m 143 726 l 143 841 l 637 841 l 637 726 l 143 726 z "},"Ă":{"ha":882,"x_min":-28,"x_max":911,"o":"m 216 248 l 199 203 q 180 135 180 155 q 202 89 180 102 q 275 75 224 75 l 275 0 l -28 0 l -28 75 q 117 223 58 75 l 400 936 l 479 936 l 768 224 q 845 97 810 118 q 911 75 880 75 l 911 0 l 455 0 l 455 75 q 532 87 517 75 q 547 117 547 99 q 534 160 547 134 l 526 181 l 499 248 l 216 248 m 245 326 l 469 326 l 354 601 l 245 326 m 234 1261 l 281 1261 q 445 1150 317 1150 q 603 1261 568 1150 l 648 1261 q 590 1099 648 1170 q 442 1029 532 1029 q 292 1100 351 1029 q 234 1261 234 1172 z "},"ă":{"ha":781,"x_min":67,"x_max":777,"o":"m 439 59 q 336 5 390 23 q 223 -13 282 -13 q 106 22 145 -13 q 67 110 67 58 q 145 241 67 184 q 427 367 223 298 l 427 417 q 401 486 427 471 q 340 501 376 501 q 245 439 255 501 q 218 377 239 396 q 155 357 198 357 q 94 378 117 357 q 71 427 71 399 q 155 534 71 490 q 378 578 238 578 q 508 568 456 578 q 593 533 561 559 q 636 479 625 507 q 646 401 646 450 l 646 144 q 682 85 646 85 q 720 123 712 85 l 777 123 q 725 20 774 54 q 608 -13 676 -13 q 439 59 483 -13 m 427 132 l 427 291 q 304 220 333 252 q 275 154 275 188 q 292 107 275 128 q 337 87 309 87 q 384 98 361 87 q 427 132 406 110 m 183 892 l 230 892 q 394 781 266 781 q 552 892 517 781 l 597 892 q 539 730 597 800 q 391 659 481 659 q 241 731 300 659 q 183 892 183 802 z "},"Ą":{"ha":882,"x_min":-28,"x_max":911,"o":"m 216 248 l 199 203 q 184 162 189 179 q 180 135 179 144 q 202 89 180 102 q 275 75 224 75 l 275 0 l -28 0 l -28 75 q 117 223 58 75 l 400 936 l 479 936 l 768 224 q 845 96 810 117 q 911 75 879 75 l 911 0 l 764 0 q 700 -25 724 -13 q 662 -51 675 -37 q 644 -78 649 -64 q 640 -110 640 -93 q 648 -144 640 -130 q 670 -168 656 -158 q 701 -182 684 -178 q 738 -187 719 -187 q 790 -184 772 -187 q 824 -176 808 -181 l 853 -220 q 771 -271 813 -258 q 690 -284 728 -284 q 627 -274 656 -284 q 575 -245 597 -264 q 541 -201 553 -227 q 528 -144 528 -176 q 534 -101 528 -122 q 558 -61 541 -80 q 606 -27 576 -43 q 683 0 636 -12 l 455 0 l 455 75 q 532 87 516 75 q 547 117 547 98 q 534 160 547 134 l 499 248 l 216 248 m 245 326 l 469 326 l 354 601 l 245 326 z "},"ą":{"ha":781,"x_min":67,"x_max":777,"o":"m 439 59 q 223 -13 341 -13 q 155 -3 184 -13 q 106 23 125 6 q 77 62 87 39 q 67 110 67 84 q 85 179 67 147 q 144 240 102 210 q 255 301 186 271 q 427 367 324 332 l 427 417 q 420 461 427 444 q 401 486 413 477 q 373 498 389 495 q 340 501 357 501 q 245 439 255 501 q 218 377 239 396 q 155 357 198 357 q 120 363 136 357 q 94 378 105 368 q 77 400 83 387 q 71 427 71 412 q 93 486 71 458 q 156 534 115 513 q 252 566 196 554 q 378 578 309 578 q 508 568 456 578 q 593 533 560 559 q 620 507 609 519 q 636 478 630 494 q 644 445 642 463 q 646 401 646 426 l 646 144 q 682 85 646 85 q 720 123 712 85 l 777 123 q 750 43 775 73 q 679 -3 724 13 q 619 -27 642 -15 q 584 -52 596 -39 q 567 -79 571 -64 q 562 -110 562 -93 q 570 -144 562 -130 q 592 -168 578 -158 q 624 -182 606 -178 q 661 -187 642 -187 q 713 -184 694 -187 q 747 -176 731 -181 l 776 -220 q 693 -271 736 -258 q 613 -284 651 -284 q 550 -274 579 -284 q 498 -245 520 -264 q 463 -201 476 -227 q 450 -144 450 -176 q 455 -105 450 -124 q 474 -70 460 -87 q 510 -38 487 -52 q 568 -11 532 -23 q 439 59 476 -1 m 427 291 q 350 253 379 271 q 303 219 320 236 q 281 187 287 203 q 275 154 275 171 q 280 129 275 141 q 292 107 284 117 q 312 93 300 98 q 337 87 323 87 q 427 132 385 87 l 427 291 z "},"Ć":{"ha":1042,"x_min":64,"x_max":951,"o":"m 951 353 l 951 8 l 876 8 q 837 96 863 63 q 534 -19 722 -19 q 193 121 321 -19 q 64 452 64 260 q 191 789 64 642 q 542 936 318 936 q 826 825 709 936 q 854 907 842 860 l 929 907 l 939 568 l 864 568 q 755 777 831 706 q 576 848 680 848 q 396 754 456 848 q 336 462 336 661 q 357 240 336 322 q 443 115 379 159 q 583 71 507 71 q 762 140 684 71 q 876 353 841 210 l 951 353 m 409 1040 l 507 1257 l 782 1257 l 468 1040 l 409 1040 z "},"ć":{"ha":680,"x_min":51,"x_max":654,"o":"m 585 171 l 654 140 q 551 20 626 62 q 376 -22 476 -22 q 145 54 240 -22 q 51 264 51 130 q 154 492 51 406 q 421 578 257 578 q 582 541 523 578 q 642 442 642 503 q 618 381 642 408 q 557 355 595 355 q 463 452 484 355 q 445 492 457 480 q 403 505 433 505 q 312 457 342 505 q 282 313 282 409 q 318 125 282 182 q 432 68 355 68 q 585 171 538 68 m 228 670 l 326 888 l 601 888 l 287 670 l 228 670 z "},"Ĉ":{"ha":1042,"x_min":64,"x_max":951,"o":"m 951 353 l 951 8 l 876 8 q 837 96 863 63 q 534 -19 722 -19 q 193 121 321 -19 q 64 452 64 260 q 191 789 64 642 q 542 936 318 936 q 826 825 709 936 q 854 907 842 860 l 929 907 l 939 568 l 864 568 q 755 777 831 706 q 576 848 680 848 q 396 754 456 848 q 336 462 336 661 q 357 240 336 322 q 443 115 379 159 q 583 71 507 71 q 762 140 684 71 q 876 353 841 210 l 951 353 m 564 1160 l 392 1036 l 331 1036 l 465 1280 l 667 1280 l 791 1036 l 726 1036 l 564 1160 z "},"ĉ":{"ha":680,"x_min":51,"x_max":654,"o":"m 585 171 l 654 140 q 551 20 626 62 q 376 -22 476 -22 q 145 54 240 -22 q 51 264 51 130 q 154 492 51 406 q 421 578 257 578 q 582 541 523 578 q 642 442 642 503 q 618 381 642 408 q 557 355 595 355 q 463 452 484 355 q 445 492 457 480 q 403 505 433 505 q 312 457 342 505 q 282 313 282 409 q 318 125 282 182 q 432 68 355 68 q 585 171 538 68 m 384 791 l 212 666 l 151 666 l 285 910 l 486 910 l 611 666 l 545 666 l 384 791 z "},"Ċ":{"ha":1042,"x_min":64,"x_max":951,"o":"m 951 353 l 951 8 l 876 8 q 837 96 863 63 q 534 -19 722 -19 q 193 121 321 -19 q 64 452 64 260 q 191 789 64 642 q 542 936 318 936 q 826 825 709 936 q 854 907 842 860 l 929 907 l 939 568 l 864 568 q 755 777 831 706 q 576 848 680 848 q 396 754 456 848 q 336 462 336 661 q 357 240 336 322 q 443 115 379 159 q 583 71 507 71 q 762 140 684 71 q 876 353 841 210 l 951 353 m 465 1153 q 493 1220 465 1191 q 562 1249 520 1249 q 629 1221 601 1249 q 658 1153 658 1193 q 629 1085 658 1114 q 562 1057 601 1057 q 493 1085 521 1057 q 465 1153 465 1114 z "},"ċ":{"ha":680,"x_min":51,"x_max":654,"o":"m 585 171 l 654 140 q 551 20 626 62 q 376 -22 476 -22 q 145 54 240 -22 q 51 264 51 130 q 154 492 51 406 q 421 578 257 578 q 582 541 523 578 q 642 442 642 503 q 618 381 642 408 q 557 355 595 355 q 463 452 484 355 q 445 492 457 480 q 403 505 433 505 q 312 457 342 505 q 282 313 282 409 q 318 125 282 182 q 432 68 355 68 q 585 171 538 68 m 284 783 q 312 850 284 821 q 380 880 339 880 q 448 851 420 880 q 477 783 477 823 q 448 715 477 744 q 380 687 420 687 q 312 716 340 687 q 284 783 284 745 z "},"Č":{"ha":1042,"x_min":64,"x_max":951,"o":"m 951 353 l 951 8 l 876 8 q 837 96 863 63 q 534 -19 722 -19 q 193 121 321 -19 q 64 452 64 260 q 191 789 64 642 q 542 936 318 936 q 826 825 709 936 q 854 907 842 860 l 929 907 l 939 568 l 864 568 q 755 777 831 706 q 576 848 680 848 q 396 754 456 848 q 336 462 336 661 q 357 240 336 322 q 443 115 379 159 q 583 71 507 71 q 762 140 684 71 q 876 353 841 210 l 951 353 m 564 1171 l 726 1296 l 791 1296 l 667 1052 l 465 1052 l 331 1296 l 392 1296 l 564 1171 z "},"č":{"ha":680,"x_min":51,"x_max":654,"o":"m 585 171 l 654 140 q 551 20 626 62 q 376 -22 476 -22 q 145 54 240 -22 q 51 264 51 130 q 154 492 51 406 q 421 578 257 578 q 582 541 523 578 q 642 442 642 503 q 618 381 642 408 q 557 355 595 355 q 463 452 484 355 q 445 492 457 480 q 403 505 433 505 q 312 457 342 505 q 282 313 282 409 q 318 125 282 182 q 432 68 355 68 q 585 171 538 68 m 384 801 l 545 926 l 611 926 l 486 682 l 285 682 l 151 926 l 212 926 l 384 801 z "},"Ď":{"ha":1114,"x_min":41,"x_max":1043,"o":"m 41 0 l 41 75 q 137 98 113 75 q 161 188 161 121 l 161 732 q 138 821 161 798 q 41 845 116 845 l 41 920 l 151 924 q 413 930 318 930 q 671 912 572 930 q 859 832 770 894 q 995 671 947 770 q 1043 454 1043 572 q 992 237 1043 332 q 857 84 942 141 q 680 14 771 27 q 372 0 588 0 l 41 0 m 401 848 l 401 214 q 407 132 401 153 q 438 96 413 111 q 514 81 463 81 q 705 175 642 81 q 768 455 768 269 q 722 695 768 606 q 600 816 675 784 q 401 848 526 848 m 519 1171 l 681 1296 l 747 1296 l 622 1052 l 420 1052 l 286 1296 l 347 1296 l 519 1171 z "},"ď":{"ha":1072,"x_min":56,"x_max":1088,"o":"m 523 77 q 422 10 475 33 q 310 -13 369 -13 q 128 57 201 -13 q 56 271 56 127 q 137 504 56 431 q 330 578 218 578 q 440 559 392 578 q 523 505 488 541 l 523 724 q 507 794 523 774 q 433 813 491 813 l 433 886 l 742 936 l 742 182 q 761 107 742 124 q 836 91 781 91 l 836 14 q 539 -13 637 7 q 523 77 523 22 m 523 171 l 523 423 q 464 466 494 452 q 406 479 435 479 q 317 433 347 479 q 288 292 288 386 q 314 139 288 190 q 395 88 341 88 q 468 111 431 88 q 523 171 505 134 m 762 670 l 823 888 l 1088 888 l 827 670 l 762 670 z "},"Đ":{"ha":1114,"x_min":30,"x_max":1044,"o":"m 161 404 l 30 404 l 30 517 l 161 517 l 161 732 q 139 821 161 798 q 41 845 116 845 l 41 920 l 151 924 q 413 930 318 930 q 671 912 572 930 q 859 832 770 894 q 996 671 947 770 q 1044 454 1044 572 q 993 237 1044 332 q 857 84 942 141 q 680 14 771 27 q 372 0 588 0 l 41 0 l 41 75 q 137 98 113 75 q 161 188 161 121 l 161 404 m 401 404 l 401 214 q 407 132 401 153 q 438 96 413 111 q 514 81 463 81 q 705 175 642 81 q 768 455 768 269 q 722 695 768 606 q 600 816 675 784 q 401 848 526 848 l 401 517 l 584 517 l 584 404 l 401 404 z "},"đ":{"ha":854,"x_min":56,"x_max":836,"o":"m 523 77 q 310 -13 427 -13 q 128 57 200 -13 q 56 271 56 127 q 137 504 56 431 q 330 578 218 578 q 523 505 454 578 l 523 658 l 327 658 l 327 760 l 520 760 q 507 793 516 781 q 433 813 491 813 l 433 886 l 742 936 l 742 760 l 808 760 l 808 658 l 742 658 l 742 182 q 761 107 742 124 q 836 91 780 91 l 836 14 q 662 4 736 11 q 539 -13 589 -3 q 523 77 523 22 m 523 423 q 464 466 494 452 q 406 479 435 479 q 288 292 288 479 q 395 88 288 88 q 468 111 431 88 q 523 171 506 134 l 523 423 z "},"Ē":{"ha":926,"x_min":31,"x_max":878,"o":"m 399 439 l 399 212 q 406 127 399 147 q 446 94 414 107 q 545 81 479 81 q 678 103 635 81 q 754 182 720 125 q 802 302 787 238 l 878 302 l 872 0 l 31 0 l 31 75 l 48 75 q 137 101 117 75 q 158 188 158 126 l 158 733 q 137 821 158 796 q 48 846 115 846 l 31 846 l 31 920 l 814 920 l 828 682 l 752 682 q 707 781 732 744 q 656 828 682 818 q 570 839 631 839 l 399 839 l 399 522 l 484 522 q 565 545 545 522 q 588 635 585 568 l 665 635 l 665 323 l 588 323 q 589 336 589 332 q 572 408 589 376 q 487 439 555 439 l 399 439 m 216 1095 l 216 1211 l 710 1211 l 710 1095 l 216 1095 z "},"ē":{"ha":724,"x_min":61,"x_max":675,"o":"m 296 284 q 334 118 296 174 q 447 62 372 62 q 594 144 527 62 l 657 106 q 546 14 618 50 q 387 -22 474 -22 q 157 59 252 -22 q 61 280 61 141 q 154 498 61 419 q 376 578 246 578 q 591 505 507 578 q 675 284 675 432 l 296 284 m 296 353 l 467 353 q 380 503 463 503 q 317 465 338 503 q 296 353 296 428 m 128 726 l 128 841 l 623 841 l 623 726 l 128 726 z "},"Ĕ":{"ha":926,"x_min":31,"x_max":878,"o":"m 399 439 l 399 212 q 406 127 399 147 q 446 94 414 107 q 545 81 479 81 q 678 103 635 81 q 754 182 720 125 q 802 302 787 238 l 878 302 l 872 0 l 31 0 l 31 75 l 48 75 q 137 101 117 75 q 158 188 158 126 l 158 733 q 137 821 158 796 q 48 846 115 846 l 31 846 l 31 920 l 814 920 l 828 682 l 752 682 q 707 781 732 744 q 656 828 682 818 q 570 839 631 839 l 399 839 l 399 522 l 484 522 q 565 545 545 522 q 588 635 585 568 l 665 635 l 665 323 l 588 323 q 589 336 589 332 q 572 408 589 376 q 487 439 555 439 l 399 439 m 256 1261 l 302 1261 q 467 1150 338 1150 q 625 1261 589 1150 l 670 1261 q 612 1099 669 1170 q 464 1029 554 1029 q 314 1100 372 1029 q 256 1261 256 1172 z "},"ĕ":{"ha":724,"x_min":61,"x_max":675,"o":"m 296 284 q 334 118 296 174 q 447 62 372 62 q 594 144 527 62 l 657 106 q 546 14 618 50 q 387 -22 474 -22 q 157 59 252 -22 q 61 280 61 141 q 154 498 61 419 q 376 578 246 578 q 591 505 507 578 q 675 284 675 432 l 296 284 m 296 353 l 467 353 q 380 503 463 503 q 317 465 338 503 q 296 353 296 428 m 168 892 l 215 892 q 379 781 251 781 q 537 892 502 781 l 583 892 q 524 730 582 800 q 376 659 467 659 q 227 731 285 659 q 168 892 168 802 z "},"Ė":{"ha":926,"x_min":31,"x_max":878,"o":"m 399 439 l 399 212 q 406 127 399 147 q 446 94 414 107 q 545 81 479 81 q 678 103 635 81 q 754 182 720 125 q 802 302 787 238 l 878 302 l 872 0 l 31 0 l 31 75 l 48 75 q 137 101 117 75 q 158 188 158 126 l 158 733 q 137 821 158 796 q 48 846 115 846 l 31 846 l 31 920 l 814 920 l 828 682 l 752 682 q 707 781 732 744 q 656 828 682 818 q 570 839 631 839 l 399 839 l 399 522 l 484 522 q 565 545 545 522 q 588 635 585 568 l 665 635 l 665 323 l 588 323 q 589 336 589 332 q 572 408 589 376 q 487 439 555 439 l 399 439 m 366 1153 q 394 1220 366 1191 q 463 1249 421 1249 q 530 1221 502 1249 q 559 1153 559 1193 q 530 1085 559 1114 q 463 1057 502 1057 q 394 1085 422 1057 q 366 1153 366 1114 z "},"ė":{"ha":724,"x_min":61,"x_max":675,"o":"m 296 284 q 334 118 296 174 q 447 62 372 62 q 594 144 527 62 l 657 106 q 546 14 618 50 q 387 -22 474 -22 q 157 59 252 -22 q 61 280 61 141 q 154 498 61 419 q 376 578 246 578 q 591 505 507 578 q 675 284 675 432 l 296 284 m 296 353 l 467 353 q 380 503 463 503 q 317 465 338 503 q 296 353 296 428 m 279 783 q 306 850 279 821 q 375 880 334 880 q 443 851 414 880 q 471 783 471 823 q 443 715 471 744 q 375 687 414 687 q 307 716 334 687 q 279 783 279 745 z "},"Ę":{"ha":926,"x_min":31,"x_max":892,"o":"m 399 439 l 399 212 q 406 127 399 148 q 446 94 414 107 q 545 81 479 81 q 677 103 635 81 q 753 182 720 125 q 802 302 787 237 l 878 302 l 872 0 l 803 0 q 739 -25 764 -13 q 702 -51 715 -37 q 684 -78 688 -64 q 679 -110 679 -93 q 687 -144 679 -130 q 709 -168 695 -158 q 741 -182 723 -178 q 777 -187 758 -187 q 829 -184 811 -187 q 863 -176 848 -181 l 892 -220 q 810 -271 852 -258 q 730 -284 768 -284 q 666 -274 696 -284 q 615 -245 637 -264 q 580 -201 593 -227 q 567 -144 567 -176 q 574 -101 567 -122 q 598 -61 581 -80 q 645 -27 615 -43 q 722 0 675 -12 l 31 0 l 31 75 l 48 75 q 137 100 117 75 q 158 188 158 125 l 158 733 q 136 821 158 795 q 48 846 115 846 l 31 846 l 31 920 l 814 920 l 828 682 l 752 682 q 707 781 731 745 q 656 828 682 818 q 570 839 631 839 l 399 839 l 399 522 l 484 522 q 565 545 546 522 q 588 635 585 568 l 665 635 l 665 323 l 588 323 q 589 331 589 328 q 589 336 589 334 q 572 408 589 376 q 487 439 555 439 l 399 439 z "},"ę":{"ha":724,"x_min":61,"x_max":675,"o":"m 296 284 q 334 118 298 173 q 447 62 370 62 q 594 144 527 62 l 657 106 q 493 -7 604 29 q 440 -29 460 -18 q 409 -53 420 -41 q 394 -80 397 -66 q 390 -110 390 -94 q 398 -144 390 -130 q 420 -168 406 -158 q 452 -182 434 -178 q 488 -187 469 -187 q 541 -184 522 -187 q 574 -176 559 -181 l 604 -220 q 521 -271 564 -258 q 441 -284 479 -284 q 377 -274 407 -284 q 326 -245 348 -264 q 291 -201 304 -227 q 278 -144 278 -176 q 282 -109 278 -126 q 296 -77 286 -92 q 324 -48 307 -62 q 368 -22 341 -34 q 157 59 244 -16 q 61 280 61 141 q 153 498 61 419 q 376 578 245 578 q 591 505 506 578 q 675 284 675 431 l 296 284 m 467 353 q 380 503 463 503 q 296 353 296 503 l 467 353 z "},"Ě":{"ha":926,"x_min":31,"x_max":878,"o":"m 399 439 l 399 212 q 406 127 399 147 q 446 94 414 107 q 545 81 479 81 q 678 103 635 81 q 754 182 720 125 q 802 302 787 238 l 878 302 l 872 0 l 31 0 l 31 75 l 48 75 q 137 101 117 75 q 158 188 158 126 l 158 733 q 137 821 158 796 q 48 846 115 846 l 31 846 l 31 920 l 814 920 l 828 682 l 752 682 q 707 781 732 744 q 656 828 682 818 q 570 839 631 839 l 399 839 l 399 522 l 484 522 q 565 545 545 522 q 588 635 585 568 l 665 635 l 665 323 l 588 323 q 589 336 589 332 q 572 408 589 376 q 487 439 555 439 l 399 439 m 466 1171 l 627 1296 l 693 1296 l 568 1052 l 367 1052 l 233 1296 l 294 1296 l 466 1171 z "},"ě":{"ha":724,"x_min":61,"x_max":675,"o":"m 296 284 q 334 118 296 174 q 447 62 372 62 q 594 144 527 62 l 657 106 q 546 14 618 50 q 387 -22 474 -22 q 157 59 252 -22 q 61 280 61 141 q 154 498 61 419 q 376 578 246 578 q 591 505 507 578 q 675 284 675 432 l 296 284 m 296 353 l 467 353 q 380 503 463 503 q 317 465 338 503 q 296 353 296 428 m 378 801 l 540 926 l 606 926 l 481 682 l 279 682 l 145 926 l 206 926 l 378 801 z "},"Ĝ":{"ha":1099,"x_min":65,"x_max":1071,"o":"m 640 350 l 640 425 l 1071 425 l 1071 350 q 1004 320 1019 341 q 988 231 988 298 l 988 39 q 953 40 966 40 q 726 5 886 40 q 534 -19 611 -19 q 195 121 324 -19 q 65 448 65 261 q 202 792 65 648 q 541 936 338 936 q 830 831 705 936 q 857 926 852 876 l 929 926 l 937 605 l 863 605 q 591 840 793 840 q 407 751 470 840 q 343 452 343 662 q 362 229 343 305 q 434 110 380 152 q 572 68 487 68 q 696 100 647 68 q 746 229 746 133 l 746 262 q 640 350 746 343 m 553 1160 l 380 1036 l 319 1036 l 454 1280 l 655 1280 l 780 1036 l 714 1036 l 553 1160 z "},"ĝ":{"ha":752,"x_min":45,"x_max":760,"o":"m 218 198 q 103 269 144 217 q 62 381 62 321 q 144 527 62 477 q 357 576 227 576 q 483 562 429 576 q 573 518 537 547 q 692 578 644 578 q 760 512 760 578 q 713 456 760 456 q 667 481 696 456 q 645 491 655 491 q 614 475 631 491 q 640 381 640 433 q 574 241 640 299 q 340 176 509 183 q 243 161 270 174 q 216 123 216 149 q 304 87 216 87 q 391 90 323 87 q 439 91 415 91 q 653 45 587 91 q 719 -104 719 -1 q 627 -277 719 -210 q 350 -344 536 -344 q 109 -299 174 -344 q 45 -198 45 -254 q 68 -140 45 -163 q 122 -118 92 -118 q 180 -134 146 -118 q 172 -157 175 -146 q 170 -178 170 -168 q 217 -249 170 -225 q 359 -273 264 -273 q 536 -239 477 -273 q 595 -158 595 -206 q 555 -100 595 -113 q 371 -88 515 -88 q 145 -55 214 -88 q 77 56 77 -22 q 113 147 77 111 q 218 198 148 182 m 273 387 q 293 289 273 321 q 355 256 314 256 q 414 290 394 256 q 433 391 433 323 q 410 477 433 450 q 353 503 386 503 q 293 474 313 503 q 273 387 273 445 m 379 791 l 207 666 l 146 666 l 280 910 l 481 910 l 606 666 l 541 666 l 379 791 z "},"Ğ":{"ha":1099,"x_min":65,"x_max":1071,"o":"m 640 350 l 640 425 l 1071 425 l 1071 350 q 1004 320 1019 341 q 988 231 988 298 l 988 39 q 953 40 966 40 q 726 5 886 40 q 534 -19 611 -19 q 195 121 324 -19 q 65 448 65 261 q 202 792 65 648 q 541 936 338 936 q 830 831 705 936 q 857 926 852 876 l 929 926 l 937 605 l 863 605 q 591 840 793 840 q 407 751 470 840 q 343 452 343 662 q 362 229 343 305 q 434 110 380 152 q 572 68 487 68 q 696 100 647 68 q 746 229 746 133 l 746 262 q 640 350 746 343 m 342 1261 l 389 1261 q 553 1150 425 1150 q 711 1261 676 1150 l 757 1261 q 699 1099 756 1170 q 551 1029 641 1029 q 401 1100 459 1029 q 342 1261 342 1172 z "},"ğ":{"ha":752,"x_min":45,"x_max":760,"o":"m 218 198 q 103 269 144 217 q 62 381 62 321 q 144 527 62 477 q 357 576 227 576 q 483 562 429 576 q 573 518 537 547 q 692 578 644 578 q 760 512 760 578 q 713 456 760 456 q 667 481 696 456 q 645 491 655 491 q 614 475 631 491 q 640 381 640 433 q 574 241 640 299 q 340 176 509 183 q 243 161 270 174 q 216 123 216 149 q 304 87 216 87 q 391 90 323 87 q 439 91 415 91 q 653 45 587 91 q 719 -104 719 -1 q 627 -277 719 -210 q 350 -344 536 -344 q 109 -299 174 -344 q 45 -198 45 -254 q 68 -140 45 -163 q 122 -118 92 -118 q 180 -134 146 -118 q 172 -157 175 -146 q 170 -178 170 -168 q 217 -249 170 -225 q 359 -273 264 -273 q 536 -239 477 -273 q 595 -158 595 -206 q 555 -100 595 -113 q 371 -88 515 -88 q 145 -55 214 -88 q 77 56 77 -22 q 113 147 77 111 q 218 198 148 182 m 273 387 q 293 289 273 321 q 355 256 314 256 q 414 290 394 256 q 433 391 433 323 q 410 477 433 450 q 353 503 386 503 q 293 474 313 503 q 273 387 273 445 m 169 892 l 216 892 q 380 781 252 781 q 538 892 503 781 l 583 892 q 525 730 583 800 q 377 659 467 659 q 227 731 286 659 q 169 892 169 802 z "},"Ġ":{"ha":1099,"x_min":65,"x_max":1071,"o":"m 640 350 l 640 425 l 1071 425 l 1071 350 q 1004 320 1019 341 q 988 231 988 298 l 988 39 q 953 40 966 40 q 726 5 886 40 q 534 -19 611 -19 q 195 121 324 -19 q 65 448 65 261 q 202 792 65 648 q 541 936 338 936 q 830 831 705 936 q 857 926 852 876 l 929 926 l 937 605 l 863 605 q 591 840 793 840 q 407 751 470 840 q 343 452 343 662 q 362 229 343 305 q 434 110 380 152 q 572 68 487 68 q 696 100 647 68 q 746 229 746 133 l 746 262 q 640 350 746 343 m 453 1153 q 480 1220 453 1191 q 549 1249 508 1249 q 617 1221 589 1249 q 646 1153 646 1193 q 617 1085 646 1114 q 549 1057 589 1057 q 481 1085 509 1057 q 453 1153 453 1114 z "},"ġ":{"ha":752,"x_min":45,"x_max":760,"o":"m 218 198 q 103 269 144 217 q 62 381 62 321 q 144 527 62 477 q 357 576 227 576 q 483 562 429 576 q 573 518 537 547 q 692 578 644 578 q 760 512 760 578 q 713 456 760 456 q 667 481 696 456 q 645 491 655 491 q 614 475 631 491 q 640 381 640 433 q 574 241 640 299 q 340 176 509 183 q 243 161 270 174 q 216 123 216 149 q 304 87 216 87 q 391 90 323 87 q 439 91 415 91 q 653 45 587 91 q 719 -104 719 -1 q 627 -277 719 -210 q 350 -344 536 -344 q 109 -299 174 -344 q 45 -198 45 -254 q 68 -140 45 -163 q 122 -118 92 -118 q 180 -134 146 -118 q 172 -157 175 -146 q 170 -178 170 -168 q 217 -249 170 -225 q 359 -273 264 -273 q 536 -239 477 -273 q 595 -158 595 -206 q 555 -100 595 -113 q 371 -88 515 -88 q 145 -55 214 -88 q 77 56 77 -22 q 113 147 77 111 q 218 198 148 182 m 273 387 q 293 289 273 321 q 355 256 314 256 q 414 290 394 256 q 433 391 433 323 q 410 477 433 450 q 353 503 386 503 q 293 474 313 503 q 273 387 273 445 m 279 783 q 307 850 279 821 q 376 880 334 880 q 444 851 415 880 q 472 783 472 823 q 444 715 472 744 q 376 687 415 687 q 307 716 335 687 q 279 783 279 745 z "},"Ģ":{"ha":1099,"x_min":65,"x_max":1071,"o":"m 640 350 l 640 425 l 1071 425 l 1071 350 q 1004 320 1019 341 q 988 231 988 298 l 988 39 q 953 40 966 40 q 726 5 886 40 q 534 -19 611 -19 q 195 121 324 -19 q 65 448 65 261 q 202 792 65 648 q 541 936 338 936 q 830 831 705 936 q 857 926 852 876 l 929 926 l 937 605 l 863 605 q 591 840 793 840 q 407 751 470 840 q 343 452 343 662 q 362 229 343 305 q 434 110 380 152 q 572 68 487 68 q 696 100 647 68 q 746 229 746 133 l 746 262 q 640 350 746 343 m 315 -347 l 413 -129 l 688 -129 l 374 -347 l 315 -347 z "},"ģ":{"ha":752,"x_min":45,"x_max":760,"o":"m 218 198 q 103 269 144 217 q 62 381 62 321 q 144 527 62 477 q 357 576 227 576 q 483 562 429 576 q 573 518 537 547 q 692 578 644 578 q 760 512 760 578 q 713 456 760 456 q 667 481 696 456 q 645 491 655 491 q 614 475 631 491 q 640 381 640 433 q 574 241 640 299 q 340 176 509 183 q 243 161 270 174 q 216 123 216 149 q 304 87 216 87 q 391 90 323 87 q 439 91 415 91 q 653 45 587 91 q 719 -104 719 -1 q 627 -277 719 -210 q 350 -344 536 -344 q 109 -299 174 -344 q 45 -198 45 -254 q 68 -140 45 -163 q 122 -118 92 -118 q 180 -134 146 -118 q 172 -157 175 -146 q 170 -178 170 -168 q 217 -249 170 -225 q 359 -273 264 -273 q 536 -239 477 -273 q 595 -158 595 -206 q 555 -100 595 -113 q 371 -88 515 -88 q 145 -55 214 -88 q 77 56 77 -22 q 113 147 77 111 q 218 198 148 182 m 273 387 q 293 289 273 321 q 355 256 314 256 q 414 290 394 256 q 433 391 433 323 q 410 477 433 450 q 353 503 386 503 q 293 474 313 503 q 273 387 273 445 m 305 670 l 366 888 l 631 888 l 370 670 l 305 670 z "},"Ĥ":{"ha":1172,"x_min":38,"x_max":1138,"o":"m 399 441 l 399 188 q 421 99 399 123 q 517 75 444 75 l 517 0 l 38 0 l 38 75 q 135 98 111 75 q 159 188 159 121 l 159 732 q 136 821 159 797 q 38 844 113 844 l 38 920 l 517 920 l 517 844 q 422 821 446 844 q 399 732 399 798 l 399 526 l 777 526 l 777 732 q 754 820 777 795 q 660 844 732 844 l 660 920 l 1138 920 l 1138 844 q 1041 822 1065 844 q 1017 732 1017 800 l 1017 188 q 1040 99 1017 122 q 1138 75 1063 75 l 1138 0 l 660 0 l 660 75 q 754 99 731 75 q 777 188 777 123 l 777 441 l 399 441 m 589 1160 l 416 1036 l 355 1036 l 490 1280 l 691 1280 l 816 1036 l 750 1036 l 589 1160 z "},"ĥ":{"ha":839,"x_min":25,"x_max":827,"o":"m 334 375 l 334 162 q 349 93 334 114 q 403 72 363 73 l 403 0 l 25 0 l 25 72 q 99 92 83 72 q 115 162 115 111 l 115 720 q 99 791 115 771 q 25 810 83 810 l 25 882 l 334 936 l 334 479 q 429 553 378 529 q 537 578 479 578 q 657 547 608 578 q 724 473 707 517 q 741 351 741 430 l 741 162 q 757 91 741 110 q 827 72 773 72 l 827 0 l 449 0 l 449 72 q 497 88 476 74 q 518 162 518 102 l 518 375 q 452 463 518 463 q 395 441 425 463 q 334 375 366 419 m 365 1160 l 193 1036 l 132 1036 l 266 1280 l 467 1280 l 592 1036 l 526 1036 l 365 1160 z "},"Ħ":{"ha":1172,"x_min":38,"x_max":1138,"o":"m 399 441 l 399 188 q 403 135 399 156 q 420 100 408 113 q 456 81 433 87 q 517 75 479 75 l 517 0 l 38 0 l 38 75 q 99 80 75 75 q 135 98 122 85 q 154 133 149 111 q 159 188 159 155 l 159 648 l 74 648 l 74 732 l 159 732 q 154 786 159 764 q 137 820 150 807 q 100 839 123 833 q 38 844 77 844 l 38 920 l 517 920 l 517 844 q 458 839 481 844 q 421 821 435 833 q 404 787 408 808 q 399 732 399 765 l 777 732 q 772 785 777 764 q 755 820 768 806 q 720 839 743 833 q 660 844 696 844 l 660 920 l 1138 920 l 1138 844 q 1078 840 1101 844 q 1041 822 1055 835 q 1022 788 1027 810 q 1017 732 1017 766 l 1097 732 l 1097 648 l 1017 648 l 1017 188 q 1021 133 1017 155 q 1039 98 1026 111 q 1076 80 1053 85 q 1138 75 1100 75 l 1138 0 l 660 0 l 660 75 q 719 81 696 75 q 754 99 741 86 q 772 134 767 113 q 777 188 777 155 l 777 441 l 399 441 m 777 526 l 777 648 l 399 648 l 399 526 l 777 526 z "},"ħ":{"ha":839,"x_min":25,"x_max":827,"o":"m 334 658 l 334 479 q 537 578 422 578 q 657 547 607 578 q 724 473 706 517 q 741 351 741 431 l 741 162 q 757 91 741 110 q 827 72 773 72 l 827 0 l 449 0 l 449 72 q 497 88 475 74 q 518 162 518 102 l 518 375 q 452 463 518 463 q 334 375 397 463 l 334 162 q 349 93 334 114 q 403 72 363 73 l 403 0 l 25 0 l 25 72 q 99 92 83 72 q 115 162 115 111 l 115 658 l 30 658 l 30 760 l 111 760 q 98 791 107 780 q 25 810 83 810 l 25 882 l 334 936 l 334 760 l 511 760 l 511 658 l 334 658 z "},"Ĩ":{"ha":564,"x_min":37,"x_max":523,"o":"m 37 844 l 37 920 l 523 920 l 523 844 l 509 844 q 419 819 440 844 q 399 732 399 793 l 399 188 q 420 100 399 125 q 509 75 441 75 l 523 75 l 523 0 l 37 0 l 37 75 q 134 98 110 75 q 158 188 158 120 l 158 732 q 135 821 158 798 q 37 844 113 844 m 47 1040 q 47 1064 47 1057 q 91 1194 47 1152 q 195 1236 135 1236 q 328 1209 233 1236 q 401 1194 380 1194 q 441 1209 427 1194 q 458 1253 455 1223 l 516 1253 q 517 1227 517 1237 q 479 1097 517 1152 q 374 1041 441 1041 q 243 1067 333 1041 q 154 1085 178 1085 q 123 1074 136 1085 q 103 1040 111 1063 l 47 1040 z "},"ĩ":{"ha":505,"x_min":12,"x_max":483,"o":"m 363 578 l 363 162 q 380 91 363 111 q 456 72 396 72 l 456 0 l 41 0 l 41 72 l 56 72 q 129 92 114 72 q 144 162 144 113 l 144 364 q 129 434 144 414 q 56 454 113 454 l 41 454 l 41 526 l 363 578 m 13 671 q 12 694 12 688 q 56 824 12 782 q 160 867 100 867 q 293 840 199 867 q 367 825 346 825 q 406 839 392 825 q 423 883 420 854 l 481 883 q 483 858 483 867 q 445 727 483 783 q 340 671 407 671 q 209 697 298 671 q 119 715 144 715 q 89 704 101 715 q 68 671 76 693 l 13 671 z "},"Ī":{"ha":564,"x_min":35,"x_max":529,"o":"m 37 844 l 37 920 l 523 920 l 523 844 l 509 844 q 419 819 440 844 q 399 732 399 793 l 399 188 q 420 100 399 125 q 509 75 441 75 l 523 75 l 523 0 l 37 0 l 37 75 q 134 98 110 75 q 158 188 158 120 l 158 732 q 135 821 158 798 q 37 844 113 844 m 35 1095 l 35 1211 l 529 1211 l 529 1095 l 35 1095 z "},"ī":{"ha":541,"x_min":23,"x_max":517,"o":"m 386 578 l 386 162 q 402 91 386 111 q 478 72 418 72 l 478 0 l 63 0 l 63 72 l 79 72 q 152 92 136 72 q 167 162 167 113 l 167 364 q 151 434 167 414 q 79 454 136 454 l 63 454 l 63 526 l 386 578 m 23 726 l 23 841 l 517 841 l 517 726 l 23 726 z "},"Ĭ":{"ha":564,"x_min":37,"x_max":523,"o":"m 37 844 l 37 920 l 523 920 l 523 844 l 509 844 q 419 819 440 844 q 399 732 399 793 l 399 188 q 420 100 399 125 q 509 75 441 75 l 523 75 l 523 0 l 37 0 l 37 75 q 134 98 110 75 q 158 188 158 120 l 158 732 q 135 821 158 798 q 37 844 113 844 m 75 1261 l 121 1261 q 286 1150 157 1150 q 444 1261 408 1150 l 489 1261 q 431 1099 488 1170 q 283 1029 373 1029 q 133 1100 191 1029 q 75 1261 75 1172 z "},"ĭ":{"ha":517,"x_min":54,"x_max":469,"o":"m 376 578 l 376 162 q 393 91 376 111 q 469 72 409 72 l 469 0 l 54 0 l 54 72 l 69 72 q 142 92 127 72 q 157 162 157 113 l 157 364 q 142 434 157 414 q 69 454 126 454 l 54 454 l 54 526 l 376 578 m 54 892 l 100 892 q 264 781 136 781 q 422 892 387 781 l 468 892 q 410 730 467 800 q 262 659 352 659 q 112 731 170 659 q 54 892 54 802 z "},"Į":{"ha":564,"x_min":37,"x_max":523,"o":"m 37 920 l 523 920 l 523 844 l 509 844 q 419 819 441 844 q 399 732 399 793 l 399 188 q 420 100 399 125 q 509 75 441 75 l 523 75 l 523 0 l 355 0 q 292 -25 316 -13 q 254 -51 267 -37 q 236 -78 241 -64 q 231 -110 231 -93 q 239 -144 231 -130 q 261 -168 248 -158 q 293 -182 275 -178 q 330 -187 311 -187 q 382 -184 363 -187 q 416 -176 400 -181 l 445 -220 q 362 -271 405 -258 q 282 -284 320 -284 q 219 -274 248 -284 q 167 -245 189 -264 q 132 -201 145 -227 q 119 -144 119 -176 q 126 -101 119 -122 q 150 -61 133 -80 q 198 -27 168 -43 q 275 0 228 -12 l 37 0 l 37 75 q 134 98 110 75 q 158 188 158 120 l 158 732 q 135 821 158 798 q 37 844 113 844 l 37 920 z "},"į":{"ha":463,"x_min":24,"x_max":439,"o":"m 347 578 l 347 162 q 363 91 347 110 q 439 72 380 72 l 439 0 l 305 0 q 241 -25 266 -13 q 204 -51 217 -37 q 186 -78 191 -64 q 181 -110 181 -93 q 189 -144 181 -130 q 211 -168 197 -158 q 243 -182 225 -178 q 279 -187 260 -187 q 332 -184 313 -187 q 366 -176 350 -181 l 395 -220 q 312 -271 355 -258 q 232 -284 270 -284 q 169 -274 198 -284 q 117 -245 139 -264 q 82 -201 95 -227 q 69 -144 69 -176 q 76 -101 69 -122 q 100 -61 83 -80 q 148 -27 117 -43 q 224 0 178 -12 l 24 0 l 24 72 l 40 72 q 113 92 97 72 q 128 162 128 113 l 128 364 q 113 434 128 414 q 40 454 97 454 l 24 454 l 24 526 l 347 578 m 119 813 q 155 899 119 863 q 241 936 190 936 q 327 900 291 936 q 362 813 362 865 q 326 726 362 762 q 241 690 290 690 q 153 727 189 690 q 119 813 119 764 z "},"İ":{"ha":564,"x_min":37,"x_max":523,"o":"m 37 844 l 37 920 l 523 920 l 523 844 l 509 844 q 419 819 440 844 q 399 732 399 793 l 399 188 q 420 100 399 125 q 509 75 441 75 l 523 75 l 523 0 l 37 0 l 37 75 q 134 98 110 75 q 158 188 158 120 l 158 732 q 135 821 158 798 q 37 844 113 844 m 186 1153 q 213 1220 186 1191 q 282 1249 241 1249 q 350 1221 321 1249 q 378 1153 378 1193 q 350 1085 378 1114 q 282 1057 321 1057 q 214 1085 241 1057 q 186 1153 186 1114 z "},"ı":{"ha":463,"x_min":24,"x_max":439,"o":"m 347 578 l 347 162 q 363 91 347 111 q 439 72 380 72 l 439 0 l 24 0 l 24 72 l 40 72 q 113 92 98 72 q 128 162 128 113 l 128 364 q 113 434 128 414 q 40 454 97 454 l 24 454 l 24 526 l 347 578 z "},"Ĳ":{"ha":1099,"x_min":37,"x_max":1078,"o":"m 37 844 l 37 920 l 523 920 l 523 844 l 509 844 q 419 819 440 844 q 399 732 399 793 l 399 188 q 420 100 399 125 q 509 75 441 75 l 523 75 l 523 0 l 37 0 l 37 75 q 134 98 110 75 q 158 188 158 120 l 158 732 q 135 821 158 798 q 37 844 113 844 m 581 844 l 581 920 l 1078 920 l 1078 844 q 979 822 1004 844 q 955 732 955 800 l 955 73 q 926 -148 955 -69 q 810 -277 897 -227 q 589 -328 722 -328 q 414 -291 481 -328 q 347 -191 347 -254 q 382 -119 347 -146 q 465 -92 417 -92 q 540 -114 512 -92 q 568 -175 568 -136 q 562 -205 568 -186 q 559 -221 559 -216 q 610 -252 559 -252 q 691 -201 668 -252 q 715 10 715 -151 l 715 732 q 693 820 715 795 q 604 844 672 844 l 581 844 z "},"ĳ":{"ha":911,"x_min":24,"x_max":821,"o":"m 119 813 q 155 900 119 863 q 241 936 191 936 q 327 900 292 936 q 362 813 362 864 q 327 726 362 762 q 241 690 291 690 q 154 727 189 690 q 119 813 119 764 m 347 578 l 347 162 q 363 91 347 111 q 439 72 380 72 l 439 0 l 24 0 l 24 72 l 40 72 q 113 92 98 72 q 128 162 128 113 l 128 364 q 113 434 128 414 q 40 454 97 454 l 24 454 l 24 526 l 347 578 m 577 813 q 613 900 577 863 q 699 936 649 936 q 785 900 749 936 q 821 813 821 864 q 785 726 821 762 q 699 690 749 690 q 613 727 649 690 q 577 813 577 763 m 815 578 l 815 24 q 794 -185 815 -122 q 692 -294 773 -248 q 496 -340 611 -340 q 373 -314 421 -340 q 326 -241 326 -288 q 350 -183 326 -206 q 410 -160 375 -160 q 492 -222 470 -160 q 537 -263 507 -263 q 583 -229 570 -263 q 596 -85 596 -195 l 596 363 q 580 433 596 414 q 508 453 564 453 l 487 453 l 487 526 l 815 578 z "},"Ĵ":{"ha":535,"x_min":-218,"x_max":513,"o":"m 16 844 l 16 920 l 513 920 l 513 844 q 415 822 439 844 q 391 732 391 800 l 391 73 q 362 -148 391 -69 q 245 -277 333 -227 q 25 -328 158 -328 q -151 -291 -83 -328 q -218 -191 -218 -254 q -182 -119 -218 -146 q -99 -92 -147 -92 q -24 -114 -52 -92 q 3 -175 3 -136 q -2 -205 3 -186 q -5 -221 -5 -216 q 46 -252 -5 -252 q 127 -201 104 -252 q 151 10 151 -151 l 151 732 q 129 820 151 795 q 40 844 108 844 l 16 844 m 271 1160 l 98 1036 l 37 1036 l 172 1280 l 373 1280 l 498 1036 l 432 1036 l 271 1160 z "},"ĵ":{"ha":448,"x_min":-138,"x_max":435,"o":"m 352 578 l 352 24 q 331 -184 352 -123 q 294 -244 321 -216 q 229 -293 268 -272 q 140 -328 190 -315 q 33 -340 90 -340 q -35 -334 -3 -340 q -89 -314 -66 -327 q -125 -283 -112 -302 q -138 -241 -138 -264 q -131 -209 -138 -224 q -113 -184 -125 -195 q -86 -166 -102 -173 q -53 -160 -71 -160 q 28 -222 6 -160 q 74 -263 43 -263 q 101 -257 90 -263 q 119 -231 112 -250 q 130 -177 126 -212 q 133 -85 133 -142 l 133 363 q 130 405 133 388 q 118 433 127 422 q 91 448 109 444 q 45 453 73 453 l 24 453 l 24 526 l 352 578 m 208 791 l 35 666 l -26 666 l 109 910 l 310 910 l 435 666 l 369 666 l 208 791 z "},"Ķ":{"ha":1056,"x_min":28,"x_max":1130,"o":"m 394 363 l 394 188 q 415 100 394 124 q 508 75 437 75 l 508 0 l 28 0 l 28 75 l 43 75 q 133 101 112 75 q 153 188 153 126 l 153 732 q 132 820 153 795 q 43 844 111 844 l 28 844 l 28 920 l 519 920 l 519 844 l 504 844 q 415 819 435 844 q 394 732 394 793 l 394 475 l 643 705 q 708 802 708 764 q 626 844 708 844 l 626 920 l 1033 920 l 1033 844 q 916 816 977 844 q 743 684 855 787 l 660 606 l 913 231 q 1018 105 977 136 q 1130 75 1060 75 l 1130 0 l 602 0 l 602 75 q 705 117 705 75 q 663 195 705 134 l 488 450 l 394 363 m 375 -347 l 473 -129 l 748 -129 l 434 -347 l 375 -347 z "},"ķ":{"ha":839,"x_min":22,"x_max":823,"o":"m 335 221 l 335 162 q 349 94 335 114 q 409 72 363 74 l 409 0 l 22 0 l 22 72 q 99 90 81 72 q 116 162 116 109 l 116 726 q 100 797 116 777 q 22 816 83 816 l 22 888 l 335 936 l 335 311 l 479 414 q 521 461 521 445 q 513 477 521 471 q 465 484 505 484 l 465 555 l 774 555 l 774 484 q 604 416 699 484 l 551 378 l 692 189 q 770 96 743 121 q 823 72 797 72 l 823 0 l 465 0 l 465 72 q 508 97 508 72 q 485 138 508 107 l 393 262 l 335 221 m 239 -347 l 337 -129 l 612 -129 l 298 -347 l 239 -347 z "},"ĸ":{"ha":839,"x_min":12,"x_max":823,"o":"m 335 221 l 335 162 q 338 122 335 138 q 348 95 340 105 q 371 78 356 84 q 409 72 385 73 l 409 0 l 22 0 l 22 72 q 70 76 52 72 q 98 90 88 80 q 112 118 109 100 q 116 162 116 135 l 116 367 q 112 411 116 393 q 96 437 108 428 q 64 451 85 447 q 12 454 44 454 l 12 526 l 335 577 l 335 311 l 479 414 q 521 461 521 445 q 520 469 521 465 q 514 476 519 473 q 498 481 509 479 q 465 484 486 484 l 465 555 l 774 555 l 774 484 q 694 467 735 484 q 604 416 653 450 l 551 378 l 692 189 q 738 131 719 154 q 771 95 756 109 q 797 77 785 82 q 823 72 809 72 l 823 0 l 465 0 l 465 72 q 508 97 508 72 q 485 138 508 107 l 393 262 l 335 221 z "},"Ĺ":{"ha":882,"x_min":31,"x_max":873,"o":"m 873 306 l 869 0 l 31 0 l 31 75 l 44 75 q 134 101 113 75 q 155 188 155 126 l 155 732 q 133 820 155 795 q 44 844 111 844 l 31 844 l 31 920 l 524 920 l 524 844 l 505 844 q 415 819 436 844 q 395 732 395 793 l 395 207 q 401 129 395 148 q 437 96 408 110 q 538 82 466 82 q 718 143 659 82 q 800 306 778 203 l 873 306 m 288 1040 l 386 1257 l 661 1257 l 347 1040 l 288 1040 z "},"ĺ":{"ha":434,"x_min":14,"x_max":438,"o":"m 332 936 l 332 162 q 349 91 332 110 q 427 72 365 72 l 427 0 l 14 0 l 14 72 q 90 85 68 72 q 113 162 113 98 l 113 724 q 95 796 113 778 q 14 814 78 814 l 14 886 l 332 936 m 65 1040 l 163 1257 l 438 1257 l 124 1040 l 65 1040 z "},"Ļ":{"ha":882,"x_min":31,"x_max":873,"o":"m 873 306 l 869 0 l 31 0 l 31 75 l 44 75 q 134 101 113 75 q 155 188 155 126 l 155 732 q 133 820 155 795 q 44 844 111 844 l 31 844 l 31 920 l 524 920 l 524 844 l 505 844 q 415 819 436 844 q 395 732 395 793 l 395 207 q 401 129 395 148 q 437 96 408 110 q 538 82 466 82 q 718 143 659 82 q 800 306 778 203 l 873 306 m 288 -347 l 386 -129 l 661 -129 l 347 -347 l 288 -347 z "},"ļ":{"ha":434,"x_min":14,"x_max":438,"o":"m 332 936 l 332 162 q 349 91 332 110 q 427 72 365 72 l 427 0 l 14 0 l 14 72 q 90 85 68 72 q 113 162 113 98 l 113 724 q 95 796 113 778 q 14 814 78 814 l 14 886 l 332 936 m 65 -347 l 163 -129 l 438 -129 l 124 -347 l 65 -347 z "},"Ľ":{"ha":882,"x_min":31,"x_max":873,"o":"m 873 306 l 869 0 l 31 0 l 31 75 l 44 75 q 134 101 113 75 q 155 188 155 126 l 155 732 q 133 820 155 795 q 44 844 111 844 l 31 844 l 31 920 l 524 920 l 524 844 l 505 844 q 415 819 436 844 q 395 732 395 793 l 395 207 q 401 129 395 148 q 437 96 408 110 q 538 82 466 82 q 718 143 659 82 q 800 306 778 203 l 873 306 m 518 670 l 579 888 l 844 888 l 583 670 l 518 670 z "},"ľ":{"ha":689,"x_min":14,"x_max":705,"o":"m 332 936 l 332 162 q 349 91 332 110 q 427 72 365 72 l 427 0 l 14 0 l 14 72 q 90 85 68 72 q 113 162 113 98 l 113 724 q 95 796 113 778 q 14 814 78 814 l 14 886 l 332 936 m 379 670 l 440 888 l 705 888 l 444 670 l 379 670 z "},"Ŀ":{"ha":882,"x_min":31,"x_max":873,"o":"m 873 306 l 869 0 l 31 0 l 31 75 l 44 75 q 134 101 113 75 q 155 188 155 126 l 155 732 q 133 820 155 795 q 44 844 111 844 l 31 844 l 31 920 l 524 920 l 524 844 l 505 844 q 415 819 436 844 q 395 732 395 793 l 395 207 q 401 129 395 148 q 437 96 408 110 q 538 82 466 82 q 718 143 659 82 q 800 306 778 203 l 873 306 m 471 478 q 498 545 471 516 q 567 574 526 574 q 635 546 606 574 q 663 478 663 518 q 635 410 663 439 q 567 382 606 382 q 498 411 526 382 q 471 478 471 439 z "},"ŀ":{"ha":566,"x_min":14,"x_max":603,"o":"m 332 936 l 332 162 q 349 91 332 110 q 427 72 365 72 l 427 0 l 14 0 l 14 72 q 90 85 68 72 q 113 162 113 98 l 113 724 q 95 796 113 778 q 14 814 78 814 l 14 886 l 332 936 m 410 485 q 438 552 410 523 q 507 581 465 581 q 574 553 546 581 q 603 485 603 525 q 574 417 603 446 q 507 389 546 389 q 438 417 466 389 q 410 485 410 446 z "},"Ł":{"ha":882,"x_min":31,"x_max":869,"o":"m 155 566 l 155 732 q 150 785 155 764 q 133 820 145 806 q 99 839 121 833 q 44 844 77 844 l 31 844 l 31 920 l 524 920 l 524 844 l 505 844 q 449 839 471 844 q 415 820 427 833 q 399 785 404 806 q 395 732 395 763 l 395 667 l 629 766 l 629 627 l 395 528 l 395 207 q 401 129 395 147 q 413 111 405 119 q 437 96 421 102 q 477 86 452 90 q 538 82 501 82 q 644 98 599 82 q 720 143 688 114 q 770 214 751 173 q 800 306 789 256 l 869 306 l 869 0 l 31 0 l 31 75 l 44 75 q 101 81 79 75 q 135 101 123 87 q 151 136 146 115 q 155 188 155 157 l 155 427 l 31 375 l 31 514 l 155 566 z "},"ł":{"ha":434,"x_min":0,"x_max":434,"o":"m 113 557 l 113 724 q 95 795 113 778 q 14 814 77 814 l 14 886 l 332 936 l 332 646 l 434 688 l 434 549 l 332 507 l 332 162 q 349 91 332 110 q 427 72 365 72 l 427 0 l 14 0 l 14 72 q 90 85 68 72 q 113 162 113 98 l 113 418 l 0 372 l 0 511 l 113 557 z "},"Ń":{"ha":1085,"x_min":32,"x_max":1050,"o":"m 250 658 l 250 235 q 287 104 250 134 q 382 75 324 75 l 382 0 l 37 0 l 37 75 q 113 97 81 75 q 155 146 146 118 q 163 235 163 174 l 163 704 q 32 844 163 844 l 32 920 l 342 920 l 846 357 l 846 694 q 720 844 846 844 l 720 920 l 1050 920 l 1050 844 q 985 825 1015 844 q 944 777 955 806 q 933 691 933 747 l 933 -15 l 846 -15 l 250 658 m 390 1040 l 488 1257 l 763 1257 l 449 1040 l 390 1040 z "},"ń":{"ha":839,"x_min":28,"x_max":831,"o":"m 343 381 l 343 161 q 357 93 343 113 q 408 72 372 73 l 408 0 l 28 0 l 28 72 q 104 91 87 72 q 120 161 120 109 l 120 351 q 104 421 120 402 q 28 441 88 441 l 28 513 l 330 562 q 343 481 341 536 q 437 554 388 530 q 539 578 486 578 q 688 525 634 578 q 743 381 743 473 l 743 161 q 759 91 743 110 q 831 72 776 72 l 831 0 l 454 0 l 454 72 q 502 88 482 73 q 521 161 521 103 l 521 364 q 506 440 521 420 q 462 460 490 460 q 404 441 433 460 q 343 381 374 421 m 267 670 l 364 888 l 640 888 l 326 670 l 267 670 z "},"Ņ":{"ha":1085,"x_min":32,"x_max":1050,"o":"m 250 658 l 250 235 q 287 104 250 134 q 382 75 324 75 l 382 0 l 37 0 l 37 75 q 113 97 81 75 q 155 146 146 118 q 163 235 163 174 l 163 704 q 32 844 163 844 l 32 920 l 342 920 l 846 357 l 846 694 q 720 844 846 844 l 720 920 l 1050 920 l 1050 844 q 985 825 1015 844 q 944 777 955 806 q 933 691 933 747 l 933 -15 l 846 -15 l 250 658 m 390 -347 l 488 -129 l 763 -129 l 449 -347 l 390 -347 z "},"ņ":{"ha":839,"x_min":28,"x_max":831,"o":"m 343 381 l 343 161 q 357 93 343 113 q 408 72 372 73 l 408 0 l 28 0 l 28 72 q 104 91 87 72 q 120 161 120 109 l 120 351 q 104 421 120 402 q 28 441 88 441 l 28 513 l 330 562 q 343 481 341 536 q 437 554 388 530 q 539 578 486 578 q 688 525 634 578 q 743 381 743 473 l 743 161 q 759 91 743 110 q 831 72 776 72 l 831 0 l 454 0 l 454 72 q 502 88 482 73 q 521 161 521 103 l 521 364 q 506 440 521 420 q 462 460 490 460 q 404 441 433 460 q 343 381 374 421 m 253 -347 l 351 -129 l 626 -129 l 312 -347 l 253 -347 z "},"Ň":{"ha":1085,"x_min":32,"x_max":1050,"o":"m 250 658 l 250 235 q 287 104 250 134 q 382 75 324 75 l 382 0 l 37 0 l 37 75 q 113 97 81 75 q 155 146 146 118 q 163 235 163 174 l 163 704 q 32 844 163 844 l 32 920 l 342 920 l 846 357 l 846 694 q 720 844 846 844 l 720 920 l 1050 920 l 1050 844 q 985 825 1015 844 q 944 777 955 806 q 933 691 933 747 l 933 -15 l 846 -15 l 250 658 m 545 1171 l 707 1296 l 772 1296 l 648 1052 l 446 1052 l 312 1296 l 373 1296 l 545 1171 z "},"ň":{"ha":839,"x_min":28,"x_max":831,"o":"m 343 381 l 343 161 q 357 93 343 113 q 408 72 372 73 l 408 0 l 28 0 l 28 72 q 104 91 87 72 q 120 161 120 109 l 120 351 q 104 421 120 402 q 28 441 88 441 l 28 513 l 330 562 q 343 481 341 536 q 437 554 388 530 q 539 578 486 578 q 688 525 634 578 q 743 381 743 473 l 743 161 q 759 91 743 110 q 831 72 776 72 l 831 0 l 454 0 l 454 72 q 502 88 482 73 q 521 161 521 103 l 521 364 q 506 440 521 420 q 462 460 490 460 q 404 441 433 460 q 343 381 374 421 m 422 801 l 584 926 l 650 926 l 525 682 l 323 682 l 189 926 l 250 926 l 422 801 z "},"ŉ":{"ha":839,"x_min":26,"x_max":831,"o":"m 343 381 l 343 161 q 357 93 343 113 q 408 72 372 73 l 408 0 l 28 0 l 28 72 q 104 91 87 72 q 120 161 120 109 l 120 351 q 104 421 120 402 q 28 441 88 441 l 28 513 l 330 562 q 343 481 341 536 q 437 554 388 530 q 539 578 486 578 q 688 525 634 578 q 743 381 743 473 l 743 161 q 759 91 743 110 q 831 72 776 72 l 831 0 l 454 0 l 454 72 q 502 88 482 73 q 521 161 521 103 l 521 364 q 506 440 521 420 q 462 460 490 460 q 404 441 433 460 q 343 381 374 421 m 38 662 l 38 743 q 155 783 98 743 q 212 882 212 824 q 184 916 212 916 q 160 911 178 916 q 130 907 141 907 q 59 938 92 907 q 26 1021 26 968 q 61 1110 26 1074 q 154 1146 95 1146 q 268 1093 224 1146 q 311 945 311 1040 q 231 740 311 814 q 38 662 151 665 z "},"Ŋ":{"ha":1085,"x_min":32,"x_max":1050,"o":"m 846 365 l 846 694 q 720 844 846 844 l 720 920 l 1050 920 l 1050 844 q 985 825 1015 844 q 960 804 970 816 q 944 777 950 793 q 936 740 938 761 q 933 691 933 720 l 933 -15 q 919 -148 933 -88 q 869 -251 905 -208 q 771 -317 833 -294 q 614 -340 709 -340 q 546 -334 577 -340 q 491 -314 514 -327 q 456 -283 469 -302 q 443 -241 443 -264 q 449 -209 443 -224 q 467 -184 456 -195 q 494 -166 479 -173 q 528 -160 510 -160 q 609 -222 587 -160 q 654 -263 623 -263 q 722 -257 688 -263 q 783 -231 755 -250 q 828 -177 810 -212 q 846 -85 846 -142 l 846 -14 l 250 658 l 250 235 q 287 104 250 134 q 382 75 324 75 l 382 0 l 37 0 l 37 75 q 113 96 81 75 q 140 119 130 107 q 155 146 150 130 q 162 183 160 162 q 163 235 163 204 l 163 704 q 32 844 163 844 l 32 920 l 342 920 l 846 357 l 846 363 l 846 365 z "},"ŋ":{"ha":831,"x_min":28,"x_max":742,"o":"m 464 -263 q 490 -257 479 -263 q 508 -231 501 -250 q 518 -177 515 -212 q 521 -85 521 -142 l 521 364 q 517 410 521 392 q 506 440 513 429 q 487 456 498 451 q 462 460 476 460 q 343 381 404 460 l 343 161 q 357 93 343 113 q 408 72 372 73 l 408 0 l 28 0 l 28 72 q 77 76 59 72 q 104 91 95 81 q 117 118 114 101 q 120 161 120 135 l 120 351 q 117 393 120 376 q 104 421 114 410 q 77 436 95 431 q 28 441 59 441 l 28 513 l 330 562 q 343 481 341 535 q 539 578 432 578 q 624 564 586 578 q 688 525 661 551 q 728 464 714 500 q 742 381 742 427 l 742 24 q 721 -184 742 -123 q 684 -244 711 -216 q 619 -293 658 -272 q 530 -328 580 -315 q 423 -340 480 -340 q 355 -334 387 -340 q 301 -314 323 -327 q 265 -283 278 -302 q 252 -241 252 -264 q 259 -209 252 -224 q 277 -184 265 -195 q 304 -166 288 -173 q 337 -160 319 -160 q 418 -222 396 -160 q 464 -263 433 -263 z "},"Ō":{"ha":1158,"x_min":64,"x_max":1093,"o":"m 64 463 q 134 705 64 587 q 321 879 203 823 q 574 936 439 936 q 955 796 817 936 q 1093 452 1093 656 q 956 120 1093 259 q 581 -19 818 -19 q 295 50 419 -19 q 117 234 170 118 q 64 463 64 349 m 348 470 q 405 164 348 258 q 574 70 462 70 q 751 156 692 70 q 811 456 811 241 q 755 750 811 653 q 577 847 699 847 q 405 757 462 847 q 348 470 348 667 m 332 1095 l 332 1211 l 826 1211 l 826 1095 l 332 1095 z "},"ō":{"ha":781,"x_min":52,"x_max":730,"o":"m 52 279 q 151 498 52 419 q 390 578 250 578 q 629 501 527 578 q 730 279 730 424 q 631 59 730 141 q 389 -22 531 -22 q 151 55 251 -22 q 52 279 52 133 m 284 286 q 308 104 284 156 q 392 52 332 52 q 469 96 440 52 q 498 281 498 139 q 472 455 498 410 q 391 501 446 501 q 315 462 347 501 q 284 286 284 423 m 143 726 l 143 841 l 637 841 l 637 726 l 143 726 z "},"Ŏ":{"ha":1158,"x_min":64,"x_max":1093,"o":"m 64 463 q 134 705 64 587 q 321 879 203 823 q 574 936 439 936 q 955 796 817 936 q 1093 452 1093 656 q 956 120 1093 259 q 581 -19 818 -19 q 295 50 419 -19 q 117 234 170 118 q 64 463 64 349 m 348 470 q 405 164 348 258 q 574 70 462 70 q 751 156 692 70 q 811 456 811 241 q 755 750 811 653 q 577 847 699 847 q 405 757 462 847 q 348 470 348 667 m 372 1261 l 418 1261 q 583 1150 454 1150 q 741 1261 705 1150 l 786 1261 q 728 1099 785 1170 q 580 1029 670 1029 q 430 1100 488 1029 q 372 1261 372 1172 z "},"ŏ":{"ha":781,"x_min":52,"x_max":730,"o":"m 52 279 q 151 498 52 419 q 390 578 250 578 q 629 501 527 578 q 730 279 730 424 q 631 59 730 141 q 389 -22 531 -22 q 151 55 251 -22 q 52 279 52 133 m 284 286 q 308 104 284 156 q 392 52 332 52 q 469 96 440 52 q 498 281 498 139 q 472 455 498 410 q 391 501 446 501 q 315 462 347 501 q 284 286 284 423 m 183 892 l 230 892 q 394 781 266 781 q 552 892 517 781 l 597 892 q 539 730 597 800 q 391 659 481 659 q 241 731 300 659 q 183 892 183 802 z "},"Ő":{"ha":1158,"x_min":64,"x_max":1093,"o":"m 64 463 q 134 705 64 587 q 321 879 203 823 q 574 936 439 936 q 955 796 817 936 q 1093 452 1093 656 q 956 120 1093 259 q 581 -19 818 -19 q 295 50 419 -19 q 117 234 170 118 q 64 463 64 349 m 348 470 q 405 164 348 258 q 574 70 462 70 q 751 156 692 70 q 811 456 811 241 q 755 750 811 653 q 577 847 699 847 q 405 757 462 847 q 348 470 348 667 m 337 1040 l 435 1257 l 710 1257 l 396 1040 l 337 1040 m 623 1040 l 722 1257 l 996 1257 l 682 1040 l 623 1040 z "},"ő":{"ha":781,"x_min":52,"x_max":808,"o":"m 52 279 q 151 498 52 419 q 390 578 250 578 q 629 501 527 578 q 730 279 730 424 q 631 59 730 141 q 389 -22 531 -22 q 151 55 251 -22 q 52 279 52 133 m 284 286 q 308 104 284 156 q 392 52 332 52 q 469 96 440 52 q 498 281 498 139 q 472 455 498 410 q 391 501 446 501 q 315 462 347 501 q 284 286 284 423 m 149 670 l 247 888 l 522 888 l 208 670 l 149 670 m 435 670 l 534 888 l 808 888 l 494 670 l 435 670 z "},"Œ":{"ha":1389,"x_min":64,"x_max":1340,"o":"m 900 439 l 900 214 l 899 174 q 934 98 899 115 q 1024 81 969 81 q 1190 145 1139 81 q 1265 302 1242 210 l 1340 302 l 1334 0 l 625 0 q 329 41 441 0 q 140 193 216 82 q 64 452 64 304 q 117 677 64 572 q 245 834 170 782 q 418 903 321 886 q 665 920 516 920 l 1278 920 l 1292 679 l 1215 679 q 1165 787 1191 753 q 1114 830 1139 821 q 1029 839 1088 839 l 900 839 l 900 521 l 981 521 q 1049 548 1031 521 q 1069 636 1067 576 l 1145 636 l 1145 325 l 1069 325 q 1044 419 1067 399 q 983 439 1021 439 l 900 439 m 659 727 q 639 812 659 788 q 565 836 618 836 q 400 741 465 836 q 335 452 335 646 q 363 253 335 337 q 449 126 392 168 q 569 84 507 84 q 621 96 597 84 q 652 129 645 109 q 659 214 659 150 l 659 727 z "},"œ":{"ha":1114,"x_min":52,"x_max":1074,"o":"m 713 280 q 747 110 713 155 q 842 65 781 65 q 989 144 924 65 l 1049 106 q 937 20 1010 53 q 787 -12 865 -12 q 691 0 737 -12 q 602 38 644 13 q 503 0 556 13 q 388 -12 450 -12 q 151 67 250 -12 q 52 282 52 146 q 151 501 52 424 q 392 578 251 578 q 509 565 456 578 q 602 524 561 551 q 785 578 687 578 q 983 507 898 578 q 1074 280 1069 436 l 713 280 m 284 298 q 311 107 284 153 q 387 62 338 62 q 463 106 433 62 q 493 286 493 151 q 467 448 493 394 q 389 502 441 502 q 310 451 336 502 q 284 298 284 400 m 712 349 l 875 349 q 857 465 875 431 q 793 499 839 499 q 733 469 753 499 q 712 349 712 439 z "},"Ŕ":{"ha":1042,"x_min":27,"x_max":1048,"o":"m 396 406 l 396 188 q 418 100 396 125 q 507 75 439 75 l 523 75 l 523 0 l 27 0 l 27 75 l 45 75 q 135 101 115 75 q 156 188 156 126 l 156 732 q 134 820 156 795 q 45 844 113 844 l 27 844 l 27 920 l 396 920 l 479 921 q 658 913 602 921 q 770 874 715 905 q 856 789 825 843 q 888 674 888 736 q 702 450 888 510 q 856 254 751 418 q 972 101 937 127 q 1048 75 1006 75 l 1048 0 l 760 0 q 614 237 721 47 q 539 361 561 334 q 495 397 517 389 q 396 406 472 405 m 396 488 q 551 502 511 487 q 614 557 591 517 q 637 665 637 597 q 591 799 637 762 q 433 836 545 836 q 396 836 419 836 l 396 488 m 368 1040 l 466 1257 l 741 1257 l 427 1040 l 368 1040 z "},"ŕ":{"ha":665,"x_min":33,"x_max":654,"o":"m 336 438 q 426 543 376 508 q 536 578 476 578 q 624 542 594 578 q 654 463 654 505 q 630 394 654 422 q 564 366 606 366 q 526 374 541 366 q 486 411 511 383 q 433 438 462 438 q 367 384 389 438 q 345 222 345 330 l 345 162 q 361 92 345 112 q 433 72 376 72 l 446 72 l 446 0 l 35 0 l 35 72 q 109 92 94 72 q 125 162 125 111 l 125 356 q 109 427 125 408 q 33 446 93 446 l 33 518 l 315 578 q 336 438 334 523 m 180 670 l 277 888 l 553 888 l 239 670 l 180 670 z "},"Ŗ":{"ha":1042,"x_min":27,"x_max":1048,"o":"m 396 406 l 396 188 q 418 100 396 125 q 507 75 439 75 l 523 75 l 523 0 l 27 0 l 27 75 l 45 75 q 135 101 115 75 q 156 188 156 126 l 156 732 q 134 820 156 795 q 45 844 113 844 l 27 844 l 27 920 l 396 920 l 479 921 q 658 913 602 921 q 770 874 715 905 q 856 789 825 843 q 888 674 888 736 q 702 450 888 510 q 856 254 751 418 q 972 101 937 127 q 1048 75 1006 75 l 1048 0 l 760 0 q 614 237 721 47 q 539 361 561 334 q 495 397 517 389 q 396 406 472 405 m 396 488 q 551 502 511 487 q 614 557 591 517 q 637 665 637 597 q 591 799 637 762 q 433 836 545 836 q 396 836 419 836 l 396 488 m 368 -347 l 466 -129 l 741 -129 l 427 -347 l 368 -347 z "},"ŗ":{"ha":665,"x_min":33,"x_max":654,"o":"m 336 438 q 426 543 376 508 q 536 578 476 578 q 624 542 594 578 q 654 463 654 505 q 630 394 654 422 q 564 366 606 366 q 526 374 541 366 q 486 411 511 383 q 433 438 462 438 q 367 384 389 438 q 345 222 345 330 l 345 162 q 361 92 345 112 q 433 72 376 72 l 446 72 l 446 0 l 35 0 l 35 72 q 109 92 94 72 q 125 162 125 111 l 125 356 q 109 427 125 408 q 33 446 93 446 l 33 518 l 315 578 q 336 438 334 523 m 65 -347 l 163 -129 l 438 -129 l 124 -347 l 65 -347 z "},"Ř":{"ha":1042,"x_min":27,"x_max":1048,"o":"m 396 406 l 396 188 q 418 100 396 125 q 507 75 439 75 l 523 75 l 523 0 l 27 0 l 27 75 l 45 75 q 135 101 115 75 q 156 188 156 126 l 156 732 q 134 820 156 795 q 45 844 113 844 l 27 844 l 27 920 l 396 920 l 479 921 q 658 913 602 921 q 770 874 715 905 q 856 789 825 843 q 888 674 888 736 q 702 450 888 510 q 856 254 751 418 q 972 101 937 127 q 1048 75 1006 75 l 1048 0 l 760 0 q 614 237 721 47 q 539 361 561 334 q 495 397 517 389 q 396 406 472 405 m 396 488 q 551 502 511 487 q 614 557 591 517 q 637 665 637 597 q 591 799 637 762 q 433 836 545 836 q 396 836 419 836 l 396 488 m 524 1171 l 685 1296 l 751 1296 l 626 1052 l 425 1052 l 290 1296 l 351 1296 l 524 1171 z "},"ř":{"ha":665,"x_min":33,"x_max":654,"o":"m 336 438 q 426 543 376 508 q 536 578 476 578 q 624 542 594 578 q 654 463 654 505 q 630 394 654 422 q 564 366 606 366 q 526 374 541 366 q 486 411 511 383 q 433 438 462 438 q 367 384 389 438 q 345 222 345 330 l 345 162 q 361 92 345 112 q 433 72 376 72 l 446 72 l 446 0 l 35 0 l 35 72 q 109 92 94 72 q 125 162 125 111 l 125 356 q 109 427 125 408 q 33 446 93 446 l 33 518 l 315 578 q 336 438 334 523 m 336 801 l 497 926 l 563 926 l 438 682 l 237 682 l 102 926 l 163 926 l 336 801 z "},"Ś":{"ha":781,"x_min":76,"x_max":734,"o":"m 77 16 l 77 330 l 158 330 q 260 129 192 189 q 406 68 328 68 q 499 103 465 68 q 534 184 534 138 q 512 251 534 218 q 409 325 490 284 q 197 439 252 403 q 109 532 142 475 q 76 663 76 589 q 161 859 76 782 q 358 936 246 936 q 557 857 475 936 q 580 920 571 878 l 658 920 l 658 648 l 582 648 q 505 797 562 739 q 376 855 448 855 q 291 825 323 855 q 260 751 260 795 q 280 687 260 716 q 335 638 300 657 q 481 566 370 618 q 630 481 582 519 q 706 388 678 444 q 734 265 734 331 q 644 62 734 143 q 429 -19 554 -19 q 290 11 358 -19 q 181 90 222 41 q 158 16 165 60 l 77 16 m 238 1040 l 336 1257 l 611 1257 l 297 1040 l 238 1040 z "},"ś":{"ha":665,"x_min":47,"x_max":616,"o":"m 68 -22 l 64 162 l 130 162 q 324 47 183 47 q 422 68 383 47 q 460 114 460 88 q 439 149 460 136 q 342 176 418 160 q 170 221 226 199 q 81 287 115 242 q 47 388 47 331 q 116 525 47 473 q 301 578 185 578 q 484 543 391 578 q 509 578 500 558 l 566 578 l 572 410 l 517 410 q 309 513 465 513 q 226 497 258 513 q 193 454 193 480 q 220 414 193 427 q 346 382 245 401 q 503 339 450 361 q 586 276 555 317 q 616 179 616 234 q 537 34 616 90 q 342 -22 458 -22 q 157 16 254 -22 q 130 -22 138 2 l 68 -22 m 180 670 l 277 888 l 553 888 l 239 670 l 180 670 z "},"Ŝ":{"ha":781,"x_min":76,"x_max":734,"o":"m 77 16 l 77 330 l 158 330 q 260 129 192 189 q 406 68 328 68 q 499 103 465 68 q 534 184 534 138 q 512 251 534 218 q 409 325 490 284 q 197 439 252 403 q 109 532 142 475 q 76 663 76 589 q 161 859 76 782 q 358 936 246 936 q 557 857 475 936 q 580 920 571 878 l 658 920 l 658 648 l 582 648 q 505 797 562 739 q 376 855 448 855 q 291 825 323 855 q 260 751 260 795 q 280 687 260 716 q 335 638 300 657 q 481 566 370 618 q 630 481 582 519 q 706 388 678 444 q 734 265 734 331 q 644 62 734 143 q 429 -19 554 -19 q 290 11 358 -19 q 181 90 222 41 q 158 16 165 60 l 77 16 m 393 1160 l 221 1036 l 160 1036 l 294 1280 l 496 1280 l 621 1036 l 555 1036 l 393 1160 z "},"ŝ":{"ha":665,"x_min":47,"x_max":616,"o":"m 68 -22 l 64 162 l 130 162 q 324 47 183 47 q 422 68 383 47 q 460 114 460 88 q 439 149 460 136 q 342 176 418 160 q 170 221 226 199 q 81 287 115 242 q 47 388 47 331 q 116 525 47 473 q 301 578 185 578 q 484 543 391 578 q 509 578 500 558 l 566 578 l 572 410 l 517 410 q 309 513 465 513 q 226 497 258 513 q 193 454 193 480 q 220 414 193 427 q 346 382 245 401 q 503 339 450 361 q 586 276 555 317 q 616 179 616 234 q 537 34 616 90 q 342 -22 458 -22 q 157 16 254 -22 q 130 -22 138 2 l 68 -22 m 336 791 l 163 666 l 102 666 l 237 910 l 438 910 l 563 666 l 497 666 l 336 791 z "},"Ş":{"ha":781,"x_min":76,"x_max":734,"o":"m 331 -153 q 359 -12 346 -112 q 325 -2 342 -7 q 290 11 307 3 q 181 90 222 40 q 168 56 174 75 q 158 16 161 37 l 77 16 l 77 330 l 158 330 q 260 129 191 189 q 406 68 328 68 q 499 103 465 68 q 534 184 534 138 q 512 251 534 217 q 409 325 491 283 q 197 439 252 403 q 109 532 142 475 q 76 663 76 589 q 161 859 76 782 q 358 936 246 936 q 557 857 475 936 q 580 920 570 878 l 658 920 l 658 648 l 582 648 q 505 797 562 739 q 376 855 448 855 q 328 847 350 855 q 291 825 307 840 q 268 792 276 811 q 260 751 260 773 q 280 686 260 715 q 335 637 300 656 q 481 566 370 618 q 569 522 532 543 q 630 481 606 500 q 707 388 679 444 q 734 265 734 331 q 644 62 734 143 q 433 -19 555 -17 q 430 -41 432 -30 q 425 -63 427 -52 q 522 -102 487 -70 q 557 -187 557 -134 q 498 -290 557 -252 q 338 -328 439 -328 q 223 -310 274 -328 q 229 -276 227 -293 q 234 -241 232 -258 q 344 -255 290 -255 q 406 -209 406 -255 q 385 -171 406 -186 q 331 -153 364 -155 z "},"ş":{"ha":665,"x_min":47,"x_max":616,"o":"m 68 -22 l 64 162 l 130 162 q 324 47 183 47 q 422 68 383 47 q 460 114 460 88 q 439 149 460 136 q 405 161 429 154 q 342 176 380 168 q 170 220 227 199 q 120 248 142 231 q 81 287 97 265 q 56 334 64 308 q 47 388 47 359 q 116 525 47 473 q 301 578 185 578 q 484 543 392 578 q 509 578 500 558 l 566 578 l 572 410 l 517 410 q 309 513 465 513 q 262 509 283 513 q 226 497 241 505 q 202 478 210 489 q 193 454 193 467 q 220 414 193 427 q 346 382 245 401 q 503 339 450 360 q 586 276 555 317 q 616 179 616 234 q 537 34 616 90 q 376 -21 470 -14 l 368 -63 q 465 -102 429 -70 q 500 -187 500 -134 q 441 -290 500 -252 q 281 -328 381 -328 q 165 -310 216 -328 q 172 -276 169 -293 q 176 -241 174 -258 q 286 -255 232 -255 q 349 -209 349 -255 q 328 -171 349 -186 q 273 -153 307 -155 q 288 -100 281 -134 q 300 -20 294 -67 q 157 16 232 -14 q 130 -22 139 3 l 68 -22 z "},"Š":{"ha":781,"x_min":76,"x_max":734,"o":"m 77 16 l 77 330 l 158 330 q 260 129 192 189 q 406 68 328 68 q 499 103 465 68 q 534 184 534 138 q 512 251 534 218 q 409 325 490 284 q 197 439 252 403 q 109 532 142 475 q 76 663 76 589 q 161 859 76 782 q 358 936 246 936 q 557 857 475 936 q 580 920 571 878 l 658 920 l 658 648 l 582 648 q 505 797 562 739 q 376 855 448 855 q 291 825 323 855 q 260 751 260 795 q 280 687 260 716 q 335 638 300 657 q 481 566 370 618 q 630 481 582 519 q 706 388 678 444 q 734 265 734 331 q 644 62 734 143 q 429 -19 554 -19 q 290 11 358 -19 q 181 90 222 41 q 158 16 165 60 l 77 16 m 394 1120 l 555 1245 l 621 1245 l 496 1001 l 295 1001 l 161 1245 l 222 1245 l 394 1120 z "},"š":{"ha":665,"x_min":47,"x_max":616,"o":"m 68 -22 l 64 162 l 130 162 q 324 47 183 47 q 422 68 383 47 q 460 114 460 88 q 439 149 460 136 q 342 176 418 160 q 170 221 226 199 q 81 287 115 242 q 47 388 47 331 q 116 525 47 473 q 301 578 185 578 q 484 543 391 578 q 509 578 500 558 l 566 578 l 572 410 l 517 410 q 309 513 465 513 q 226 497 258 513 q 193 454 193 480 q 220 414 193 427 q 346 382 245 401 q 503 339 450 361 q 586 276 555 317 q 616 179 616 234 q 537 34 616 90 q 342 -22 458 -22 q 157 16 254 -22 q 130 -22 138 2 l 68 -22 m 336 801 l 497 926 l 563 926 l 438 682 l 237 682 l 102 926 l 163 926 l 336 801 z "},"Ţ":{"ha":998,"x_min":37,"x_max":958,"o":"m 445 -153 q 460 -93 452 -132 q 475 0 467 -55 l 242 0 l 242 75 l 264 75 q 353 100 333 75 q 374 188 374 125 l 374 838 l 297 838 q 195 823 227 838 q 141 763 163 808 q 114 658 119 719 l 37 658 l 37 920 l 958 920 l 958 658 l 881 658 q 820 800 859 764 q 694 838 781 838 l 615 838 l 615 188 q 636 100 615 125 q 726 75 657 75 l 750 75 l 750 0 l 550 0 l 539 -63 q 636 -102 601 -70 q 671 -187 671 -134 q 612 -290 671 -252 q 452 -328 553 -328 q 337 -310 388 -328 q 343 -276 340 -293 q 348 -241 346 -258 q 458 -255 404 -255 q 520 -209 520 -255 q 499 -171 520 -186 q 445 -153 478 -155 z "},"ţ":{"ha":507,"x_min":27,"x_max":515,"o":"m 208 -153 q 235 -17 222 -111 q 108 158 108 9 l 108 482 l 27 482 l 27 555 l 44 555 q 121 569 85 555 q 184 607 157 583 q 231 666 212 632 q 255 740 249 700 l 328 740 l 328 555 l 494 555 l 494 482 l 328 482 l 328 193 q 330 133 328 156 q 337 96 332 109 q 352 78 342 83 q 376 73 361 73 q 448 129 421 73 l 515 106 q 309 -22 465 -17 q 306 -42 308 -32 q 302 -63 304 -52 q 399 -102 363 -70 q 434 -187 434 -134 q 418 -245 434 -220 q 374 -290 403 -271 q 305 -318 346 -308 q 215 -328 264 -328 q 100 -310 151 -328 q 106 -276 103 -293 q 111 -241 109 -258 q 220 -255 166 -255 q 283 -209 283 -255 q 262 -171 283 -186 q 208 -153 241 -155 z "},"Ť":{"ha":998,"x_min":37,"x_max":958,"o":"m 374 838 l 297 838 q 195 823 228 838 q 141 763 163 808 q 114 658 119 719 l 37 658 l 37 920 l 958 920 l 958 658 l 881 658 q 820 801 859 764 q 694 838 781 838 l 615 838 l 615 188 q 636 100 615 125 q 726 75 658 75 l 750 75 l 750 0 l 242 0 l 242 75 l 264 75 q 354 101 333 75 q 374 188 374 126 l 374 838 m 502 1171 l 663 1296 l 729 1296 l 604 1052 l 403 1052 l 269 1296 l 330 1296 l 502 1171 z "},"ť":{"ha":684,"x_min":27,"x_max":699,"o":"m 328 482 l 328 193 q 337 97 328 120 q 376 73 347 73 q 448 129 421 73 l 515 106 q 294 -22 463 -22 q 155 23 201 -22 q 108 158 108 68 l 108 482 l 27 482 l 27 555 l 44 555 q 184 607 126 555 q 255 740 243 659 l 328 740 l 328 555 l 494 555 l 494 482 l 328 482 m 374 670 l 435 888 l 699 888 l 439 670 l 374 670 z "},"Ŧ":{"ha":998,"x_min":37,"x_max":958,"o":"m 374 440 l 191 440 l 191 555 l 374 555 l 374 838 l 297 838 q 195 823 227 838 q 141 763 163 808 q 114 658 119 719 l 37 658 l 37 920 l 958 920 l 958 658 l 881 658 q 820 800 859 764 q 694 838 781 838 l 615 838 l 615 555 l 807 555 l 807 440 l 615 440 l 615 188 q 636 100 615 125 q 726 75 657 75 l 750 75 l 750 0 l 242 0 l 242 75 l 264 75 q 353 100 333 75 q 374 188 374 125 l 374 440 z "},"ŧ":{"ha":507,"x_min":27,"x_max":515,"o":"m 328 265 l 328 193 q 330 133 328 156 q 337 96 332 109 q 352 78 342 83 q 376 73 361 73 q 448 129 421 73 l 515 106 q 294 -22 463 -22 q 108 158 108 -22 l 108 265 l 31 265 l 31 344 l 108 344 l 108 482 l 27 482 l 27 555 l 44 555 q 121 569 85 555 q 184 607 157 583 q 231 666 212 632 q 255 740 249 700 l 328 740 l 328 555 l 494 555 l 494 482 l 328 482 l 328 344 l 490 344 l 490 265 l 328 265 z "},"Ũ":{"ha":1071,"x_min":23,"x_max":1044,"o":"m 23 844 l 23 920 l 509 920 l 509 844 l 493 844 q 404 819 425 844 q 384 732 384 794 l 384 369 q 400 213 384 270 q 471 116 416 156 q 603 76 526 76 q 746 119 686 76 q 823 223 805 161 q 840 394 840 284 l 840 703 q 704 844 840 844 l 704 920 l 1044 920 l 1044 844 q 983 828 1015 844 q 939 782 951 811 q 927 699 927 752 l 927 392 q 915 230 927 293 q 855 110 902 168 q 725 16 808 52 q 540 -19 642 -19 q 349 16 433 -19 q 220 104 264 51 q 159 220 175 157 q 143 369 143 283 l 143 732 q 121 821 143 797 q 23 844 98 844 m 355 1040 q 354 1064 354 1057 q 398 1194 354 1152 q 502 1236 442 1236 q 635 1209 541 1236 q 709 1194 688 1194 q 748 1209 734 1194 q 765 1253 762 1223 l 823 1253 q 825 1227 825 1237 q 787 1097 825 1152 q 682 1041 749 1041 q 551 1067 640 1041 q 461 1085 486 1085 q 430 1074 443 1085 q 410 1040 418 1063 l 355 1040 z "},"ũ":{"ha":839,"x_min":24,"x_max":823,"o":"m 511 76 q 416 2 467 27 q 306 -22 365 -22 q 169 20 231 -22 q 108 180 108 62 l 108 393 q 91 465 108 446 q 24 484 75 484 l 24 555 l 327 555 l 327 193 q 343 117 327 140 q 395 94 359 94 q 450 115 421 94 q 511 180 479 137 l 511 393 q 495 464 511 444 q 420 484 479 484 l 420 555 l 731 555 l 731 162 q 747 91 731 111 q 823 72 763 72 l 823 0 q 790 1 805 1 q 511 -22 665 1 l 511 76 m 184 671 q 184 694 184 688 q 228 824 184 782 q 332 867 272 867 q 465 840 370 867 q 538 825 517 825 q 578 839 564 825 q 595 883 592 854 l 653 883 q 654 858 654 867 q 616 727 654 783 q 511 671 578 671 q 380 697 470 671 q 291 715 315 715 q 260 704 273 715 q 240 671 248 693 l 184 671 z "},"Ū":{"ha":1071,"x_min":23,"x_max":1044,"o":"m 23 844 l 23 920 l 509 920 l 509 844 l 493 844 q 404 819 425 844 q 384 732 384 794 l 384 369 q 400 213 384 270 q 471 116 416 156 q 603 76 526 76 q 746 119 686 76 q 823 223 805 161 q 840 394 840 284 l 840 703 q 704 844 840 844 l 704 920 l 1044 920 l 1044 844 q 983 828 1015 844 q 939 782 951 811 q 927 699 927 752 l 927 392 q 915 230 927 293 q 855 110 902 168 q 725 16 808 52 q 540 -19 642 -19 q 349 16 433 -19 q 220 104 264 51 q 159 220 175 157 q 143 369 143 283 l 143 732 q 121 821 143 797 q 23 844 98 844 m 342 1095 l 342 1211 l 837 1211 l 837 1095 l 342 1095 z "},"ū":{"ha":839,"x_min":24,"x_max":823,"o":"m 511 76 q 416 2 467 27 q 306 -22 365 -22 q 169 20 231 -22 q 108 180 108 62 l 108 393 q 91 465 108 446 q 24 484 75 484 l 24 555 l 327 555 l 327 193 q 343 117 327 140 q 395 94 359 94 q 450 115 421 94 q 511 180 479 137 l 511 393 q 495 464 511 444 q 420 484 479 484 l 420 555 l 731 555 l 731 162 q 747 91 731 111 q 823 72 763 72 l 823 0 q 790 1 805 1 q 511 -22 665 1 l 511 76 m 172 726 l 172 841 l 667 841 l 667 726 l 172 726 z "},"Ŭ":{"ha":1071,"x_min":23,"x_max":1044,"o":"m 23 844 l 23 920 l 509 920 l 509 844 l 493 844 q 404 819 425 844 q 384 732 384 794 l 384 369 q 400 213 384 270 q 471 116 416 156 q 603 76 526 76 q 746 119 686 76 q 823 223 805 161 q 840 394 840 284 l 840 703 q 704 844 840 844 l 704 920 l 1044 920 l 1044 844 q 983 828 1015 844 q 939 782 951 811 q 927 699 927 752 l 927 392 q 915 230 927 293 q 855 110 902 168 q 725 16 808 52 q 540 -19 642 -19 q 349 16 433 -19 q 220 104 264 51 q 159 220 175 157 q 143 369 143 283 l 143 732 q 121 821 143 797 q 23 844 98 844 m 382 1261 l 429 1261 q 593 1150 465 1150 q 751 1261 716 1150 l 797 1261 q 739 1099 796 1170 q 591 1029 681 1029 q 441 1100 499 1029 q 382 1261 382 1172 z "},"ŭ":{"ha":839,"x_min":24,"x_max":823,"o":"m 511 76 q 416 2 467 27 q 306 -22 365 -22 q 169 20 231 -22 q 108 180 108 62 l 108 393 q 91 465 108 446 q 24 484 75 484 l 24 555 l 327 555 l 327 193 q 343 117 327 140 q 395 94 359 94 q 450 115 421 94 q 511 180 479 137 l 511 393 q 495 464 511 444 q 420 484 479 484 l 420 555 l 731 555 l 731 162 q 747 91 731 111 q 823 72 763 72 l 823 0 q 790 1 805 1 q 511 -22 665 1 l 511 76 m 212 892 l 259 892 q 423 781 295 781 q 581 892 546 781 l 627 892 q 568 730 626 800 q 420 659 511 659 q 271 731 329 659 q 212 892 212 802 z "},"Ů":{"ha":1071,"x_min":23,"x_max":1044,"o":"m 23 844 l 23 920 l 509 920 l 509 844 l 493 844 q 404 819 425 844 q 384 732 384 794 l 384 369 q 400 213 384 270 q 471 116 416 156 q 603 76 526 76 q 746 119 686 76 q 823 223 805 161 q 840 394 840 284 l 840 703 q 704 844 840 844 l 704 920 l 1044 920 l 1044 844 q 983 828 1015 844 q 939 782 951 811 q 927 699 927 752 l 927 392 q 915 230 927 293 q 855 110 902 168 q 725 16 808 52 q 540 -19 642 -19 q 349 16 433 -19 q 220 104 264 51 q 159 220 175 157 q 143 369 143 283 l 143 732 q 121 821 143 797 q 23 844 98 844 m 475 1145 q 511 1230 475 1194 q 596 1265 547 1265 q 681 1230 646 1265 q 717 1145 717 1194 q 681 1060 717 1095 q 596 1024 646 1024 q 510 1060 545 1024 q 475 1145 475 1096 m 525 1145 q 546 1094 525 1115 q 596 1072 567 1072 q 647 1094 627 1072 q 668 1145 668 1115 q 647 1196 668 1174 q 596 1217 626 1217 q 546 1196 567 1217 q 525 1145 525 1175 z "},"ů":{"ha":839,"x_min":24,"x_max":823,"o":"m 511 76 q 416 2 467 27 q 306 -22 365 -22 q 169 20 231 -22 q 108 180 108 62 l 108 393 q 91 465 108 446 q 24 484 75 484 l 24 555 l 327 555 l 327 193 q 343 117 327 140 q 395 94 359 94 q 450 115 421 94 q 511 180 479 137 l 511 393 q 495 464 511 444 q 420 484 479 484 l 420 555 l 731 555 l 731 162 q 747 91 731 111 q 823 72 763 72 l 823 0 q 790 1 805 1 q 511 -22 665 1 l 511 76 m 298 775 q 334 860 298 825 q 419 896 370 896 q 504 860 469 896 q 540 775 540 825 q 504 690 540 726 q 419 654 469 654 q 333 690 368 654 q 298 775 298 726 m 348 775 q 369 724 348 745 q 419 703 390 703 q 470 724 450 703 q 491 775 491 745 q 470 826 491 804 q 419 848 449 848 q 369 826 390 848 q 348 775 348 805 z "},"Ű":{"ha":1071,"x_min":23,"x_max":1044,"o":"m 23 844 l 23 920 l 509 920 l 509 844 l 493 844 q 404 819 425 844 q 384 732 384 794 l 384 369 q 400 213 384 270 q 471 116 416 156 q 603 76 526 76 q 746 119 686 76 q 823 223 805 161 q 840 394 840 284 l 840 703 q 704 844 840 844 l 704 920 l 1044 920 l 1044 844 q 983 828 1015 844 q 939 782 951 811 q 927 699 927 752 l 927 392 q 915 230 927 293 q 855 110 902 168 q 725 16 808 52 q 540 -19 642 -19 q 349 16 433 -19 q 220 104 264 51 q 159 220 175 157 q 143 369 143 283 l 143 732 q 121 821 143 797 q 23 844 98 844 m 341 1040 l 439 1257 l 714 1257 l 400 1040 l 341 1040 m 627 1040 l 726 1257 l 1000 1257 l 686 1040 l 627 1040 z "},"ű":{"ha":839,"x_min":24,"x_max":823,"o":"m 511 76 q 416 2 467 27 q 306 -22 365 -22 q 169 20 231 -22 q 108 180 108 62 l 108 393 q 91 465 108 446 q 24 484 75 484 l 24 555 l 327 555 l 327 193 q 343 117 327 140 q 395 94 359 94 q 450 115 421 94 q 511 180 479 137 l 511 393 q 495 464 511 444 q 420 484 479 484 l 420 555 l 731 555 l 731 162 q 747 91 731 111 q 823 72 763 72 l 823 0 q 790 1 805 1 q 511 -22 665 1 l 511 76 m 144 670 l 241 888 l 517 888 l 203 670 l 144 670 m 430 670 l 528 888 l 803 888 l 489 670 l 430 670 z "},"Ų":{"ha":1071,"x_min":23,"x_max":1044,"o":"m 23 920 l 509 920 l 509 844 l 493 844 q 437 838 458 844 q 404 819 416 832 q 388 784 392 806 q 384 732 384 763 l 384 369 q 400 213 384 270 q 427 160 408 184 q 471 116 445 135 q 531 87 498 98 q 603 76 565 76 q 745 119 685 76 q 794 165 776 140 q 823 223 813 191 q 837 297 833 256 q 840 394 840 339 l 840 703 q 704 844 840 844 l 704 920 l 1044 920 l 1044 844 q 983 827 1016 844 q 939 781 951 810 q 927 699 927 752 l 927 392 q 914 230 927 292 q 888 158 907 193 q 839 92 869 123 q 767 37 809 62 q 670 -3 724 13 q 611 -25 633 -14 q 575 -51 588 -37 q 559 -78 563 -64 q 555 -110 555 -93 q 563 -144 555 -130 q 585 -168 571 -158 q 616 -182 599 -178 q 653 -187 634 -187 q 705 -184 687 -187 q 739 -176 724 -181 l 768 -220 q 686 -271 728 -258 q 606 -284 644 -284 q 542 -274 572 -284 q 491 -245 513 -264 q 456 -201 469 -227 q 443 -144 443 -176 q 447 -109 443 -126 q 463 -75 452 -91 q 492 -45 473 -59 q 539 -19 511 -31 q 349 16 432 -19 q 245 78 285 42 q 182 158 205 114 q 151 255 159 202 q 143 369 143 308 l 143 732 q 139 786 143 764 q 121 821 134 808 q 84 839 108 833 q 23 844 61 844 l 23 920 z "},"ų":{"ha":839,"x_min":24,"x_max":823,"o":"m 790 1 q 742 -1 769 1 q 686 -7 714 -3 q 630 -19 657 -12 q 582 -39 603 -26 q 547 -69 560 -52 q 534 -110 534 -86 q 542 -144 534 -130 q 564 -168 550 -158 q 595 -182 578 -178 q 632 -187 613 -187 q 684 -184 666 -187 q 718 -176 703 -181 l 747 -220 q 665 -271 707 -258 q 585 -284 623 -284 q 521 -274 551 -284 q 470 -245 492 -264 q 435 -201 448 -227 q 422 -144 422 -176 q 426 -109 422 -126 q 440 -77 430 -92 q 468 -48 450 -62 q 511 -22 485 -34 l 511 76 q 306 -22 422 -22 q 169 20 231 -22 q 108 180 108 61 l 108 393 q 104 436 108 418 q 92 464 101 453 q 66 479 83 475 q 24 484 50 484 l 24 555 l 327 555 l 327 193 q 343 117 327 140 q 395 94 359 94 q 511 180 447 94 l 511 393 q 508 435 511 418 q 496 463 505 452 q 468 479 486 474 q 420 484 450 484 l 420 555 l 731 555 l 731 162 q 734 118 731 136 q 747 91 737 101 q 774 76 756 80 q 823 72 793 72 l 823 0 q 806 1 814 1 q 790 1 798 1 z "},"Ŵ":{"ha":1302,"x_min":-14,"x_max":1320,"o":"m 331 -19 l 107 709 q 55 826 77 807 q -14 844 33 844 l -14 920 l 405 920 l 405 844 q 330 798 330 844 q 340 736 330 772 l 469 326 l 663 920 l 768 920 l 1001 326 l 1104 699 q 1116 765 1116 742 q 1025 844 1116 844 l 1025 920 l 1320 920 l 1320 844 q 1248 815 1278 844 q 1177 642 1217 787 l 992 -19 l 886 -19 l 646 598 l 440 -19 l 331 -19 m 722 1160 l 549 1036 l 488 1036 l 623 1280 l 824 1280 l 949 1036 l 883 1036 l 722 1160 z "},"ŵ":{"ha":1085,"x_min":-11,"x_max":1094,"o":"m 261 -12 l 87 391 q 41 470 59 456 q -11 484 24 484 l -11 555 l 361 555 l 361 484 q 292 458 292 484 q 307 408 292 445 l 393 199 l 555 555 l 671 555 l 836 199 l 924 418 q 931 448 931 438 q 852 484 931 484 l 852 555 l 1094 555 l 1094 484 q 1037 461 1057 484 q 984 358 1017 438 l 828 -12 l 709 -12 l 541 343 l 381 -12 l 261 -12 m 613 791 l 441 666 l 380 666 l 514 910 l 715 910 l 840 666 l 774 666 l 613 791 z "},"Ŷ":{"ha":955,"x_min":1,"x_max":953,"o":"m 356 377 l 149 723 q 73 824 100 804 q 1 844 46 844 l 1 920 l 463 920 l 463 844 q 388 804 388 844 q 416 736 388 782 l 566 486 l 705 717 q 726 784 726 752 q 637 844 726 844 l 637 920 l 953 920 l 953 844 q 874 812 909 844 q 774 674 839 779 l 600 392 l 600 188 q 621 100 600 125 q 709 75 642 75 l 724 75 l 724 0 l 231 0 l 231 75 l 245 75 q 335 101 315 75 q 356 188 356 126 l 356 377 m 514 1160 l 342 1036 l 281 1036 l 415 1280 l 616 1280 l 741 1036 l 675 1036 l 514 1160 z "},"ŷ":{"ha":738,"x_min":4,"x_max":729,"o":"m 451 192 l 541 383 q 565 448 565 435 q 507 484 565 484 l 507 555 l 729 555 l 729 484 q 672 459 689 480 q 597 317 656 438 l 380 -133 q 278 -306 317 -266 q 180 -346 239 -346 q 108 -319 136 -346 q 79 -254 79 -293 q 171 -166 79 -189 q 283 -122 256 -146 q 344 -25 311 -98 l 102 389 l 92 410 q 51 471 64 460 q 4 484 37 481 l 4 555 l 364 555 l 364 484 q 311 456 311 482 q 332 407 311 446 l 451 192 m 406 791 l 233 666 l 172 666 l 307 910 l 508 910 l 633 666 l 567 666 l 406 791 z "},"Ÿ":{"ha":955,"x_min":1,"x_max":953,"o":"m 356 377 l 149 723 q 73 824 100 804 q 1 844 46 844 l 1 920 l 463 920 l 463 844 q 388 804 388 844 q 416 736 388 782 l 566 486 l 705 717 q 726 784 726 752 q 637 844 726 844 l 637 920 l 953 920 l 953 844 q 874 812 909 844 q 774 674 839 779 l 600 392 l 600 188 q 621 100 600 125 q 709 75 642 75 l 724 75 l 724 0 l 231 0 l 231 75 l 245 75 q 335 101 315 75 q 356 188 356 126 l 356 377 m 233 1102 q 260 1169 233 1140 q 329 1198 288 1198 q 397 1170 368 1198 q 425 1102 425 1142 q 397 1034 425 1063 q 329 1006 368 1006 q 260 1035 288 1006 q 233 1102 233 1063 m 521 1102 q 549 1170 521 1142 q 617 1198 577 1198 q 685 1170 657 1198 q 713 1102 713 1141 q 685 1034 713 1063 q 617 1006 656 1006 q 549 1034 578 1006 q 521 1102 521 1062 z "},"Ź":{"ha":941,"x_min":47,"x_max":890,"o":"m 47 0 l 47 60 l 563 839 l 414 839 q 224 809 271 839 q 145 675 178 780 l 73 675 l 87 920 l 861 920 l 861 858 l 340 81 l 551 81 q 682 97 640 81 q 757 156 724 113 q 813 274 790 199 l 890 274 l 873 0 l 47 0 m 317 1040 l 415 1257 l 690 1257 l 376 1040 l 317 1040 z "},"ź":{"ha":680,"x_min":47,"x_max":646,"o":"m 47 0 l 47 58 l 359 482 l 231 482 q 187 469 201 482 q 141 384 172 455 l 68 384 l 81 555 l 637 555 l 637 492 l 328 74 l 452 74 q 521 98 497 74 q 574 190 545 122 l 646 190 l 629 0 l 47 0 m 187 670 l 285 888 l 560 888 l 246 670 l 187 670 z "},"Ż":{"ha":941,"x_min":47,"x_max":890,"o":"m 47 0 l 47 60 l 563 839 l 414 839 q 224 809 271 839 q 145 675 178 780 l 73 675 l 87 920 l 861 920 l 861 858 l 340 81 l 551 81 q 682 97 640 81 q 757 156 724 113 q 813 274 790 199 l 890 274 l 873 0 l 47 0 m 374 1153 q 401 1220 374 1191 q 470 1249 429 1249 q 538 1221 509 1249 q 566 1153 566 1193 q 538 1085 566 1114 q 470 1057 509 1057 q 401 1085 429 1057 q 374 1153 374 1114 z "},"ż":{"ha":680,"x_min":47,"x_max":646,"o":"m 47 0 l 47 58 l 359 482 l 231 482 q 187 469 201 482 q 141 384 172 455 l 68 384 l 81 555 l 637 555 l 637 492 l 328 74 l 452 74 q 521 98 497 74 q 574 190 545 122 l 646 190 l 629 0 l 47 0 m 243 783 q 271 850 243 821 q 340 880 298 880 q 408 851 379 880 q 436 783 436 823 q 408 715 436 744 q 340 687 379 687 q 271 716 299 687 q 243 783 243 745 z "},"Ž":{"ha":941,"x_min":47,"x_max":890,"o":"m 47 0 l 47 60 l 563 839 l 414 839 q 224 809 271 839 q 145 675 178 780 l 73 675 l 87 920 l 861 920 l 861 858 l 340 81 l 551 81 q 682 97 640 81 q 757 156 724 113 q 813 274 790 199 l 890 274 l 873 0 l 47 0 m 473 1120 l 635 1245 l 701 1245 l 576 1001 l 374 1001 l 240 1245 l 301 1245 l 473 1120 z "},"ž":{"ha":680,"x_min":47,"x_max":646,"o":"m 47 0 l 47 58 l 359 482 l 231 482 q 187 469 201 482 q 141 384 172 455 l 68 384 l 81 555 l 637 555 l 637 492 l 328 74 l 452 74 q 521 98 497 74 q 574 190 545 122 l 646 190 l 629 0 l 47 0 m 343 801 l 505 926 l 570 926 l 446 682 l 244 682 l 110 926 l 171 926 l 343 801 z "},"ſ":{"ha":492,"x_min":21,"x_max":665,"o":"m 352 162 q 355 120 352 138 q 367 92 357 103 q 393 77 376 81 q 439 72 410 72 l 475 72 l 475 0 l 21 0 l 21 72 l 45 72 q 91 77 74 72 q 118 92 109 81 q 130 120 127 103 q 132 162 132 138 l 132 555 q 140 720 132 663 q 170 804 146 764 q 231 872 193 843 q 324 919 270 902 q 448 937 378 937 q 542 927 501 937 q 610 900 583 917 q 651 859 637 882 q 665 806 665 835 q 657 769 665 787 q 635 737 649 751 q 603 715 621 724 q 564 707 585 707 q 458 809 484 707 q 409 859 446 859 q 383 852 393 859 q 365 828 372 844 q 355 785 358 812 q 352 720 352 759 l 352 162 z "},"Ə":{"ha":1158,"x_min":69,"x_max":1093,"o":"m 581 -19 q 362 14 457 -19 q 203 106 268 47 q 105 249 139 165 q 69 433 71 332 l 811 433 q 797 618 811 541 q 751 747 783 696 q 670 823 720 798 q 549 847 621 847 q 376 809 455 847 q 241 688 298 772 l 149 728 q 320 885 218 834 q 562 936 421 936 q 791 902 692 936 q 958 804 890 867 q 1059 649 1025 740 q 1093 446 1093 559 q 1075 318 1093 378 q 1023 205 1057 257 q 943 112 989 154 q 839 41 896 71 q 716 -3 782 12 q 581 -19 651 -19 m 574 70 q 680 93 637 70 q 749 156 722 117 q 788 247 775 195 q 807 355 802 298 l 353 355 q 373 228 356 282 q 419 139 391 174 q 487 87 448 104 q 574 70 526 70 z "},"ƒ":{"ha":694,"x_min":-150,"x_max":844,"o":"m 495 480 l 427 176 q 270 -216 368 -87 q 4 -346 172 -346 q -112 -316 -74 -346 q -150 -241 -150 -287 q -121 -175 -150 -202 q -54 -149 -92 -149 q 37 -233 24 -149 q 74 -275 43 -275 q 132 -218 106 -275 q 195 12 158 -161 l 216 110 q 230 165 226 145 l 298 480 l 210 480 l 233 555 l 314 555 q 463 863 378 787 q 666 939 548 939 q 794 908 745 939 q 844 827 844 878 q 820 767 844 793 q 759 742 796 742 q 667 817 705 742 q 609 873 638 873 q 557 783 575 873 l 512 555 l 613 555 l 590 480 l 495 480 z "},"Ơ":{"ha":1182,"x_min":64,"x_max":1182,"o":"m 64 463 q 134 705 64 587 q 216 807 168 764 q 322 879 264 850 q 444 922 379 908 q 574 936 508 936 q 667 930 623 936 q 749 915 711 924 q 818 892 787 905 q 871 863 849 878 q 933 832 907 840 q 981 824 960 824 q 1018 828 1003 824 q 1043 844 1034 833 q 1057 873 1053 854 q 1061 920 1061 891 l 1182 920 q 1139 801 1182 844 q 1015 759 1095 759 q 1001 759 1008 759 q 987 760 994 760 q 1093 452 1093 631 q 956 120 1093 260 q 581 -19 819 -19 q 429 -1 501 -19 q 296 49 356 16 q 190 129 235 82 q 117 233 144 176 q 64 463 64 349 m 348 470 q 362 288 348 363 q 405 164 376 212 q 476 93 433 115 q 574 70 518 70 q 751 155 691 70 q 811 456 811 241 q 755 750 811 653 q 577 847 699 847 q 476 825 519 847 q 405 757 433 803 q 362 640 376 711 q 348 470 348 568 z "},"ơ":{"ha":870,"x_min":52,"x_max":870,"o":"m 52 279 q 151 498 52 419 q 390 578 249 578 q 618 508 519 578 l 619 508 q 669 494 638 494 q 706 498 691 494 q 731 513 722 503 q 745 543 741 524 q 749 589 749 561 l 870 589 q 827 471 870 513 q 703 429 783 429 l 693 429 q 730 279 730 367 q 631 59 730 141 q 389 -22 531 -22 q 151 55 251 -22 q 52 279 52 133 m 284 286 q 308 104 284 157 q 392 52 332 52 q 469 96 440 52 q 498 281 498 139 q 472 455 498 409 q 391 501 446 501 q 315 462 347 501 q 284 286 284 424 z "},"Ƣ":{"ha":1722,"x_min":64,"x_max":1681,"o":"m 64 463 q 134 705 64 587 q 216 807 168 764 q 322 879 264 850 q 444 922 379 908 q 574 936 508 936 q 757 911 675 936 q 904 840 839 886 q 963 811 930 821 q 1033 801 997 801 q 1089 808 1061 801 q 1140 829 1117 814 q 1181 866 1164 844 q 1205 920 1198 888 l 1681 920 l 1681 844 l 1666 844 q 1611 839 1632 844 q 1577 820 1590 833 q 1561 785 1565 806 q 1556 732 1556 763 l 1556 188 q 1561 135 1556 156 q 1577 100 1565 113 q 1610 81 1589 87 q 1666 75 1632 75 l 1681 75 l 1681 0 l 1194 0 l 1194 75 q 1255 80 1232 75 q 1292 98 1278 85 q 1311 132 1305 111 q 1316 188 1316 154 l 1316 732 q 1300 812 1316 787 q 1244 842 1284 837 q 1214 781 1235 808 q 1163 735 1192 753 q 1100 707 1135 717 q 1031 696 1066 697 q 1093 452 1093 588 q 956 120 1093 260 q 581 -19 819 -19 q 429 -1 501 -19 q 296 49 356 16 q 190 129 235 82 q 117 233 144 176 q 64 463 64 349 m 348 470 q 362 288 348 363 q 405 164 376 212 q 476 93 433 115 q 574 70 518 70 q 751 155 691 70 q 811 456 811 241 q 755 750 811 653 q 577 847 699 847 q 476 825 519 847 q 405 757 433 803 q 362 640 376 711 q 348 470 348 568 z "},"ƣ":{"ha":1244,"x_min":52,"x_max":1221,"o":"m 52 279 q 151 498 52 419 q 390 578 249 578 q 497 566 446 578 q 591 527 547 555 q 647 504 614 512 q 721 496 680 496 q 819 504 766 496 q 924 523 871 511 q 1030 549 977 535 q 1128 578 1082 564 l 1128 162 q 1132 119 1128 136 q 1144 91 1135 102 q 1172 76 1154 81 q 1221 72 1190 72 l 1221 0 l 806 0 l 806 72 l 821 72 q 868 77 850 72 q 895 93 886 82 q 907 120 904 103 q 909 162 909 138 l 909 364 q 897 433 909 415 q 820 405 863 416 q 735 393 778 393 q 722 394 728 393 q 710 395 716 394 q 730 279 730 344 q 631 59 730 141 q 389 -22 531 -22 q 151 55 250 -22 q 52 279 52 132 m 284 286 q 290 175 284 220 q 308 103 295 130 q 341 64 321 76 q 392 52 362 52 q 469 96 440 52 q 498 281 498 139 q 491 389 498 347 q 472 456 485 431 q 438 491 458 481 q 391 501 418 501 q 315 462 347 501 q 284 286 284 424 z "},"Ư":{"ha":1287,"x_min":23,"x_max":1287,"o":"m 23 920 l 509 920 l 509 844 l 493 844 q 437 838 458 844 q 404 819 416 832 q 388 784 392 806 q 384 732 384 763 l 384 369 q 400 213 384 270 q 427 160 408 184 q 471 116 445 135 q 531 87 498 98 q 603 76 565 76 q 745 119 685 76 q 794 165 776 140 q 823 223 813 191 q 837 297 833 256 q 840 394 840 339 l 840 703 q 704 844 840 844 l 704 920 l 1015 920 q 1015 911 1015 916 q 1015 903 1015 907 q 1017 872 1015 886 q 1028 847 1020 857 q 1049 830 1036 836 q 1086 824 1063 824 q 1123 828 1108 824 q 1148 844 1139 833 q 1162 873 1158 854 q 1166 920 1166 891 l 1287 920 q 1244 801 1287 844 q 1120 759 1200 759 q 1032 780 1065 759 q 985 829 1000 800 q 958 809 969 821 q 940 783 947 798 q 930 747 933 767 q 927 699 927 726 l 927 392 q 914 230 927 292 q 873 134 904 179 q 794 55 842 89 q 681 1 745 21 q 540 -19 617 -19 q 349 16 432 -19 q 245 78 285 42 q 182 158 205 114 q 151 255 159 203 q 143 369 143 308 l 143 732 q 139 786 143 764 q 121 821 134 808 q 84 839 108 833 q 23 844 61 844 l 23 920 z "},"ư":{"ha":1004,"x_min":24,"x_max":1004,"o":"m 511 76 q 306 -22 422 -22 q 169 20 231 -22 q 108 180 108 61 l 108 393 q 91 465 108 446 q 24 484 75 484 l 24 555 l 327 555 l 327 193 q 343 117 327 140 q 395 94 359 94 q 511 180 447 94 l 511 393 q 495 464 511 444 q 420 484 479 484 l 420 555 l 731 555 l 731 552 q 752 508 732 522 q 802 494 772 494 q 840 498 825 494 q 865 513 855 503 q 879 543 875 524 q 883 589 883 561 l 1004 589 q 960 471 1004 513 q 837 429 917 429 q 774 438 800 429 q 731 462 749 447 l 731 162 q 747 91 731 111 q 823 72 763 72 l 823 0 q 806 1 814 1 q 790 1 798 1 q 658 -5 727 1 q 511 -22 589 -11 l 511 76 z "},"Ƶ":{"ha":941,"x_min":47,"x_max":890,"o":"m 556 404 l 340 81 l 551 81 q 682 97 640 81 q 757 156 724 113 q 813 274 790 199 l 890 274 l 873 0 l 47 0 l 47 60 l 274 404 l 129 404 l 129 519 l 351 519 l 563 839 l 414 839 q 224 809 271 839 q 145 675 178 779 l 73 675 l 87 920 l 861 920 l 861 858 l 633 519 l 789 519 l 789 404 l 556 404 z "},"ƶ":{"ha":680,"x_min":47,"x_max":646,"o":"m 452 241 l 328 74 l 452 74 q 521 98 497 74 q 574 190 545 122 l 646 190 l 629 0 l 47 0 l 47 58 l 182 241 l 98 241 l 98 334 l 250 334 l 359 482 l 231 482 q 186 469 202 482 q 141 384 173 456 l 68 384 l 81 555 l 637 555 l 637 492 l 520 334 l 594 334 l 594 241 l 452 241 z "},"ǀ":{"ha":382,"x_min":102,"x_max":281,"o":"m 102 936 l 281 936 l 281 -344 l 102 -344 l 102 936 z "},"ǁ":{"ha":940,"x_min":102,"x_max":838,"o":"m 102 936 l 281 936 l 281 -344 l 102 -344 l 102 936 m 659 936 l 838 936 l 838 -344 l 659 -344 l 659 936 z "},"ǃ":{"ha":463,"x_min":107,"x_max":353,"o":"m 193 303 l 130 764 q 123 832 123 810 q 230 936 123 936 q 338 843 338 936 q 332 768 338 814 l 269 303 l 193 303 m 107 98 q 143 185 107 149 q 230 221 179 221 q 317 185 281 221 q 353 98 353 149 q 316 12 353 47 q 230 -24 280 -24 q 143 12 180 -24 q 107 98 107 47 z "},"Ǆ":{"ha":2055,"x_min":41,"x_max":2004,"o":"m 41 0 l 41 75 q 137 98 113 75 q 161 188 161 121 l 161 732 q 138 821 161 798 q 41 845 116 845 l 41 920 l 151 924 q 413 930 318 930 q 671 912 572 930 q 859 832 770 894 q 995 671 947 770 q 1043 454 1043 572 q 992 237 1043 332 q 857 84 942 141 q 680 14 771 27 q 372 0 588 0 l 41 0 m 401 848 l 401 214 q 407 132 401 153 q 438 96 413 111 q 514 81 463 81 q 705 175 642 81 q 768 455 768 269 q 722 695 768 606 q 600 816 675 784 q 401 848 526 848 m 1161 0 l 1161 60 l 1677 839 l 1528 839 q 1339 809 1385 839 q 1259 675 1293 780 l 1187 675 l 1201 920 l 1975 920 l 1975 858 l 1455 81 l 1666 81 q 1796 97 1754 81 q 1871 156 1838 113 q 1927 274 1904 199 l 2004 274 l 1988 0 l 1161 0 z "},"ǅ":{"ha":1794,"x_min":41,"x_max":1761,"o":"m 41 0 l 41 75 q 137 98 113 75 q 161 188 161 121 l 161 732 q 138 821 161 798 q 41 845 116 845 l 41 920 l 151 924 q 413 930 318 930 q 671 912 572 930 q 859 832 770 894 q 995 671 947 770 q 1043 454 1043 572 q 992 237 1043 332 q 857 84 942 141 q 680 14 771 27 q 372 0 588 0 l 41 0 m 401 848 l 401 214 q 407 132 401 153 q 438 96 413 111 q 514 81 463 81 q 705 175 642 81 q 768 455 768 269 q 722 695 768 606 q 600 816 675 784 q 401 848 526 848 m 1162 0 l 1162 58 l 1474 482 l 1345 482 q 1301 469 1316 482 q 1255 384 1286 455 l 1182 384 l 1195 555 l 1751 555 l 1751 492 l 1442 74 l 1566 74 q 1635 98 1611 74 q 1688 190 1659 122 l 1761 190 l 1743 0 l 1162 0 z "},"ǆ":{"ha":1534,"x_min":56,"x_max":1500,"o":"m 523 77 q 422 10 475 33 q 310 -13 369 -13 q 128 57 201 -13 q 56 271 56 127 q 137 504 56 431 q 330 578 218 578 q 440 559 392 578 q 523 505 488 541 l 523 724 q 507 794 523 774 q 433 813 491 813 l 433 886 l 742 936 l 742 182 q 761 107 742 124 q 836 91 781 91 l 836 14 q 539 -13 637 7 q 523 77 523 22 m 523 171 l 523 423 q 464 466 494 452 q 406 479 435 479 q 317 433 347 479 q 288 292 288 386 q 314 139 288 190 q 395 88 341 88 q 468 111 431 88 q 523 171 505 134 m 901 0 l 901 58 l 1213 482 l 1085 482 q 1041 469 1055 482 q 995 384 1026 455 l 922 384 l 935 555 l 1491 555 l 1491 492 l 1181 74 l 1305 74 q 1375 98 1351 74 q 1428 190 1399 122 l 1500 190 l 1482 0 l 901 0 z "},"Ǉ":{"ha":1417,"x_min":31,"x_max":1396,"o":"m 873 306 l 869 0 l 31 0 l 31 75 l 44 75 q 134 101 113 75 q 155 188 155 126 l 155 732 q 133 820 155 795 q 44 844 111 844 l 31 844 l 31 920 l 524 920 l 524 844 l 505 844 q 415 819 436 844 q 395 732 395 793 l 395 207 q 401 129 395 148 q 437 96 408 110 q 538 82 466 82 q 718 143 659 82 q 800 306 778 203 l 873 306 m 899 844 l 899 920 l 1396 920 l 1396 844 q 1297 822 1322 844 q 1273 732 1273 800 l 1273 73 q 1244 -148 1273 -69 q 1128 -277 1215 -227 q 907 -328 1040 -328 q 732 -291 799 -328 q 665 -191 665 -254 q 700 -119 665 -146 q 783 -92 735 -92 q 858 -114 830 -92 q 886 -175 886 -136 q 880 -205 886 -186 q 877 -221 877 -216 q 928 -252 877 -252 q 1009 -201 986 -252 q 1033 10 1033 -151 l 1033 732 q 1011 820 1033 795 q 922 844 990 844 l 899 844 z "},"ǈ":{"ha":1331,"x_min":31,"x_max":1240,"o":"m 873 306 l 869 0 l 31 0 l 31 75 l 44 75 q 134 101 113 75 q 155 188 155 126 l 155 732 q 133 820 155 795 q 44 844 111 844 l 31 844 l 31 920 l 524 920 l 524 844 l 505 844 q 415 819 436 844 q 395 732 395 793 l 395 207 q 401 129 395 148 q 437 96 408 110 q 538 82 466 82 q 718 143 659 82 q 800 306 778 203 l 873 306 m 996 813 q 1032 900 996 863 q 1118 936 1068 936 q 1204 900 1168 936 q 1240 813 1240 864 q 1204 726 1240 762 q 1118 690 1168 690 q 1032 727 1068 690 q 996 813 996 763 m 1234 578 l 1234 24 q 1213 -185 1234 -122 q 1111 -294 1192 -248 q 916 -340 1030 -340 q 792 -314 840 -340 q 745 -241 745 -288 q 769 -183 745 -206 q 829 -160 794 -160 q 911 -222 889 -160 q 956 -263 926 -263 q 1002 -229 989 -263 q 1015 -85 1015 -195 l 1015 363 q 999 433 1015 414 q 927 453 983 453 l 906 453 l 906 526 l 1234 578 z "},"ǉ":{"ha":882,"x_min":14,"x_max":791,"o":"m 332 936 l 332 162 q 349 91 332 110 q 427 72 365 72 l 427 0 l 14 0 l 14 72 q 90 85 68 72 q 113 162 113 98 l 113 724 q 95 796 113 778 q 14 814 78 814 l 14 886 l 332 936 m 548 813 q 584 900 548 863 q 670 936 620 936 q 756 900 720 936 q 791 813 791 864 q 756 726 791 762 q 670 690 720 690 q 584 727 620 690 q 548 813 548 763 m 786 578 l 786 24 q 765 -185 786 -122 q 663 -294 744 -248 q 467 -340 582 -340 q 344 -314 392 -340 q 296 -241 296 -288 q 321 -183 296 -206 q 381 -160 346 -160 q 463 -222 441 -160 q 508 -263 477 -263 q 554 -229 541 -263 q 567 -85 567 -195 l 567 363 q 551 433 567 414 q 479 453 535 453 l 458 453 l 458 526 l 786 578 z "},"Ǌ":{"ha":1085,"x_min":32,"x_max":1050,"o":"m 250 658 l 250 235 q 287 104 250 134 q 382 75 324 75 l 382 0 l 37 0 l 37 75 q 113 97 81 75 q 155 146 146 118 q 163 235 163 174 l 163 704 q 32 844 163 844 l 32 920 l 342 920 l 846 357 l 846 694 q 720 844 846 844 l 720 920 l 1050 920 l 1050 844 q 985 825 1015 844 q 944 777 955 806 q 933 691 933 747 l 933 -15 l 846 -15 l 250 658 m 446 1153 q 474 1220 446 1191 q 543 1249 501 1249 q 610 1221 582 1249 q 639 1153 639 1193 q 610 1085 639 1114 q 543 1057 582 1057 q 474 1085 502 1057 q 446 1153 446 1114 z "},"ǋ":{"ha":839,"x_min":28,"x_max":831,"o":"m 343 381 l 343 161 q 357 93 343 113 q 408 72 372 73 l 408 0 l 28 0 l 28 72 q 104 91 87 72 q 120 161 120 109 l 120 351 q 104 421 120 402 q 28 441 88 441 l 28 513 l 330 562 q 343 481 341 536 q 437 554 388 530 q 539 578 486 578 q 688 525 634 578 q 743 381 743 473 l 743 161 q 759 91 743 110 q 831 72 776 72 l 831 0 l 454 0 l 454 72 q 502 88 482 73 q 521 161 521 103 l 521 364 q 506 440 521 420 q 462 460 490 460 q 404 441 433 460 q 343 381 374 421 m 323 783 q 350 850 323 821 q 419 880 378 880 q 487 851 458 880 q 515 783 515 823 q 487 715 515 744 q 419 687 458 687 q 351 716 378 687 q 323 783 323 745 z "},"ǌ":{"ha":1085,"x_min":32,"x_max":1050,"o":"m 250 658 l 250 235 q 287 104 250 134 q 382 75 324 75 l 382 0 l 37 0 l 37 75 q 113 97 81 75 q 155 146 146 118 q 163 235 163 174 l 163 704 q 32 844 163 844 l 32 920 l 342 920 l 846 357 l 846 694 q 720 844 846 844 l 720 920 l 1050 920 l 1050 844 q 985 825 1015 844 q 944 777 955 806 q 933 691 933 747 l 933 -15 l 846 -15 l 250 658 m 446 -233 q 474 -166 446 -195 q 543 -137 501 -137 q 610 -165 582 -137 q 639 -233 639 -193 q 610 -301 639 -273 q 543 -330 582 -330 q 474 -301 502 -330 q 446 -233 446 -272 z "},"ǎ":{"ha":781,"x_min":67,"x_max":777,"o":"m 439 59 q 336 5 390 23 q 223 -13 282 -13 q 106 22 145 -13 q 67 110 67 58 q 145 241 67 184 q 427 367 223 298 l 427 417 q 401 486 427 471 q 340 501 376 501 q 245 439 255 501 q 218 377 239 396 q 155 357 198 357 q 94 378 117 357 q 71 427 71 399 q 155 534 71 490 q 378 578 238 578 q 508 568 456 578 q 593 533 561 559 q 636 479 625 507 q 646 401 646 450 l 646 144 q 682 85 646 85 q 720 123 712 85 l 777 123 q 725 20 774 54 q 608 -13 676 -13 q 439 59 483 -13 m 427 132 l 427 291 q 304 220 333 252 q 275 154 275 188 q 292 107 275 128 q 337 87 309 87 q 384 98 361 87 q 427 132 406 110 m 393 801 l 555 926 l 621 926 l 496 682 l 294 682 l 160 926 l 221 926 l 393 801 z "},"Ǐ":{"ha":564,"x_min":37,"x_max":523,"o":"m 37 844 l 37 920 l 523 920 l 523 844 l 509 844 q 419 819 440 844 q 399 732 399 793 l 399 188 q 420 100 399 125 q 509 75 441 75 l 523 75 l 523 0 l 37 0 l 37 75 q 134 98 110 75 q 158 188 158 120 l 158 732 q 135 821 158 798 q 37 844 113 844 m 285 1171 l 446 1296 l 512 1296 l 387 1052 l 186 1052 l 52 1296 l 113 1296 l 285 1171 z "},"ǐ":{"ha":509,"x_min":23,"x_max":484,"o":"m 369 578 l 369 162 q 385 91 369 111 q 461 72 401 72 l 461 0 l 46 0 l 46 72 l 62 72 q 135 92 119 72 q 150 162 150 113 l 150 364 q 134 434 150 414 q 62 454 119 454 l 46 454 l 46 526 l 369 578 m 256 801 l 418 926 l 484 926 l 359 682 l 157 682 l 23 926 l 84 926 l 256 801 z "},"Ǒ":{"ha":1158,"x_min":64,"x_max":1093,"o":"m 64 463 q 134 705 64 587 q 321 879 203 823 q 574 936 439 936 q 955 796 817 936 q 1093 452 1093 656 q 956 120 1093 259 q 581 -19 818 -19 q 295 50 419 -19 q 117 234 170 118 q 64 463 64 349 m 348 470 q 405 164 348 258 q 574 70 462 70 q 751 156 692 70 q 811 456 811 241 q 755 750 811 653 q 577 847 699 847 q 405 757 462 847 q 348 470 348 667 m 582 1171 l 743 1296 l 809 1296 l 684 1052 l 483 1052 l 349 1296 l 410 1296 l 582 1171 z "},"ǒ":{"ha":781,"x_min":52,"x_max":730,"o":"m 52 279 q 151 498 52 419 q 390 578 250 578 q 629 501 527 578 q 730 279 730 424 q 631 59 730 141 q 389 -22 531 -22 q 151 55 251 -22 q 52 279 52 133 m 284 286 q 308 104 284 156 q 392 52 332 52 q 469 96 440 52 q 498 281 498 139 q 472 455 498 410 q 391 501 446 501 q 315 462 347 501 q 284 286 284 423 m 393 801 l 555 926 l 621 926 l 496 682 l 294 682 l 160 926 l 221 926 l 393 801 z "},"Ǔ":{"ha":1071,"x_min":23,"x_max":1044,"o":"m 23 844 l 23 920 l 509 920 l 509 844 l 493 844 q 404 819 425 844 q 384 732 384 794 l 384 369 q 400 213 384 270 q 471 116 416 156 q 603 76 526 76 q 746 119 686 76 q 823 223 805 161 q 840 394 840 284 l 840 703 q 704 844 840 844 l 704 920 l 1044 920 l 1044 844 q 983 828 1015 844 q 939 782 951 811 q 927 699 927 752 l 927 392 q 915 230 927 293 q 855 110 902 168 q 725 16 808 52 q 540 -19 642 -19 q 349 16 433 -19 q 220 104 264 51 q 159 220 175 157 q 143 369 143 283 l 143 732 q 121 821 143 797 q 23 844 98 844 m 593 1171 l 754 1296 l 820 1296 l 695 1052 l 494 1052 l 359 1296 l 420 1296 l 593 1171 z "},"ǔ":{"ha":839,"x_min":24,"x_max":823,"o":"m 511 76 q 416 2 467 27 q 306 -22 365 -22 q 169 20 231 -22 q 108 180 108 62 l 108 393 q 91 465 108 446 q 24 484 75 484 l 24 555 l 327 555 l 327 193 q 343 117 327 140 q 395 94 359 94 q 450 115 421 94 q 511 180 479 137 l 511 393 q 495 464 511 444 q 420 484 479 484 l 420 555 l 731 555 l 731 162 q 747 91 731 111 q 823 72 763 72 l 823 0 q 790 1 805 1 q 511 -22 665 1 l 511 76 m 422 801 l 584 926 l 650 926 l 525 682 l 323 682 l 189 926 l 250 926 l 422 801 z "},"Ǖ":{"ha":1071,"x_min":23,"x_max":1044,"o":"m 23 844 l 23 920 l 509 920 l 509 844 l 493 844 q 404 819 425 844 q 384 732 384 794 l 384 369 q 400 213 384 270 q 471 116 416 156 q 603 76 526 76 q 746 119 686 76 q 823 223 805 161 q 840 394 840 284 l 840 703 q 704 844 840 844 l 704 920 l 1044 920 l 1044 844 q 983 828 1015 844 q 939 782 951 811 q 927 699 927 752 l 927 392 q 915 230 927 293 q 855 110 902 168 q 725 16 808 52 q 540 -19 642 -19 q 349 16 433 -19 q 220 104 264 51 q 159 220 175 157 q 143 369 143 283 l 143 732 q 121 821 143 797 q 23 844 98 844 m 295 1133 q 322 1200 295 1171 q 391 1229 350 1229 q 459 1201 431 1229 q 488 1133 488 1173 q 459 1065 488 1093 q 391 1036 431 1036 q 323 1065 351 1036 q 295 1133 295 1094 m 583 1133 q 611 1201 583 1173 q 680 1229 640 1229 q 748 1200 720 1229 q 776 1133 776 1172 q 747 1065 776 1093 q 680 1036 719 1036 q 612 1064 640 1036 q 583 1133 583 1093 m 288 1304 l 288 1419 l 783 1419 l 783 1304 l 288 1304 z "},"ǖ":{"ha":839,"x_min":24,"x_max":823,"o":"m 511 76 q 416 2 467 27 q 306 -22 365 -22 q 169 20 231 -22 q 108 180 108 62 l 108 393 q 91 465 108 446 q 24 484 75 484 l 24 555 l 327 555 l 327 193 q 343 117 327 140 q 395 94 359 94 q 450 115 421 94 q 511 180 479 137 l 511 393 q 495 464 511 444 q 420 484 479 484 l 420 555 l 731 555 l 731 162 q 747 91 731 111 q 823 72 763 72 l 823 0 q 790 1 805 1 q 511 -22 665 1 l 511 76 m 179 783 q 207 850 179 821 q 275 880 234 880 q 343 851 315 880 q 372 783 372 823 q 343 715 372 744 q 275 687 315 687 q 207 716 235 687 q 179 783 179 745 m 467 783 q 495 851 467 823 q 564 880 524 880 q 632 851 604 880 q 660 783 660 823 q 631 715 660 744 q 564 687 603 687 q 496 715 524 687 q 467 783 467 743 m 172 997 l 172 1112 l 667 1112 l 667 997 l 172 997 z "},"Ǘ":{"ha":1071,"x_min":23,"x_max":1044,"o":"m 23 844 l 23 920 l 509 920 l 509 844 l 493 844 q 404 819 425 844 q 384 732 384 794 l 384 369 q 400 213 384 270 q 471 116 416 156 q 603 76 526 76 q 746 119 686 76 q 823 223 805 161 q 840 394 840 284 l 840 703 q 704 844 840 844 l 704 920 l 1044 920 l 1044 844 q 983 828 1015 844 q 939 782 951 811 q 927 699 927 752 l 927 392 q 915 230 927 293 q 855 110 902 168 q 725 16 808 52 q 540 -19 642 -19 q 349 16 433 -19 q 220 104 264 51 q 159 220 175 157 q 143 369 143 283 l 143 732 q 121 821 143 797 q 23 844 98 844 m 349 1078 q 377 1145 349 1116 q 446 1175 404 1175 q 513 1146 485 1175 q 542 1078 542 1118 q 513 1010 542 1039 q 446 982 485 982 q 377 1011 405 982 q 349 1078 349 1040 m 637 1078 q 666 1146 637 1118 q 734 1175 694 1175 q 802 1146 774 1175 q 830 1078 830 1118 q 802 1010 830 1039 q 734 982 773 982 q 666 1010 694 982 q 637 1078 637 1038 m 437 1202 l 534 1419 l 810 1419 l 496 1202 l 437 1202 z "},"ǘ":{"ha":839,"x_min":24,"x_max":823,"o":"m 511 76 q 416 2 467 27 q 306 -22 365 -22 q 169 20 231 -22 q 108 180 108 62 l 108 393 q 91 465 108 446 q 24 484 75 484 l 24 555 l 327 555 l 327 193 q 343 117 327 140 q 395 94 359 94 q 450 115 421 94 q 511 180 479 137 l 511 393 q 495 464 511 444 q 420 484 479 484 l 420 555 l 731 555 l 731 162 q 747 91 731 111 q 823 72 763 72 l 823 0 q 790 1 805 1 q 511 -22 665 1 l 511 76 m 179 783 q 207 850 179 821 q 275 880 234 880 q 343 851 315 880 q 372 783 372 823 q 343 715 372 744 q 275 687 315 687 q 207 716 235 687 q 179 783 179 745 m 467 783 q 495 851 467 823 q 564 880 524 880 q 632 851 604 880 q 660 783 660 823 q 631 715 660 744 q 564 687 603 687 q 496 715 524 687 q 467 783 467 743 m 267 941 l 364 1159 l 640 1159 l 326 941 l 267 941 z "},"Ǚ":{"ha":1071,"x_min":23,"x_max":1044,"o":"m 23 844 l 23 920 l 509 920 l 509 844 l 493 844 q 404 819 425 844 q 384 732 384 794 l 384 369 q 400 213 384 270 q 471 116 416 156 q 603 76 526 76 q 746 119 686 76 q 823 223 805 161 q 840 394 840 284 l 840 703 q 704 844 840 844 l 704 920 l 1044 920 l 1044 844 q 983 828 1015 844 q 939 782 951 811 q 927 699 927 752 l 927 392 q 915 230 927 293 q 855 110 902 168 q 725 16 808 52 q 540 -19 642 -19 q 349 16 433 -19 q 220 104 264 51 q 159 220 175 157 q 143 369 143 283 l 143 732 q 121 821 143 797 q 23 844 98 844 m 349 1078 q 377 1145 349 1116 q 446 1175 404 1175 q 513 1146 485 1175 q 542 1078 542 1118 q 513 1010 542 1039 q 446 982 485 982 q 377 1011 405 982 q 349 1078 349 1040 m 637 1078 q 666 1146 637 1118 q 734 1175 694 1175 q 802 1146 774 1175 q 830 1078 830 1118 q 802 1010 830 1039 q 734 982 773 982 q 666 1010 694 982 q 637 1078 637 1038 m 593 1294 l 754 1419 l 820 1419 l 695 1175 l 494 1175 l 359 1419 l 420 1419 l 593 1294 z "},"ǚ":{"ha":839,"x_min":24,"x_max":823,"o":"m 511 76 q 416 2 467 27 q 306 -22 365 -22 q 169 20 231 -22 q 108 180 108 62 l 108 393 q 91 465 108 446 q 24 484 75 484 l 24 555 l 327 555 l 327 193 q 343 117 327 140 q 395 94 359 94 q 450 115 421 94 q 511 180 479 137 l 511 393 q 495 464 511 444 q 420 484 479 484 l 420 555 l 731 555 l 731 162 q 747 91 731 111 q 823 72 763 72 l 823 0 q 790 1 805 1 q 511 -22 665 1 l 511 76 m 179 783 q 207 850 179 821 q 275 880 234 880 q 343 851 315 880 q 372 783 372 823 q 343 715 372 744 q 275 687 315 687 q 207 716 235 687 q 179 783 179 745 m 467 783 q 495 851 467 823 q 564 880 524 880 q 632 851 604 880 q 660 783 660 823 q 631 715 660 744 q 564 687 603 687 q 496 715 524 687 q 467 783 467 743 m 422 1072 l 584 1198 l 650 1198 l 525 954 l 323 954 l 189 1198 l 250 1198 l 422 1072 z "},"Ǜ":{"ha":1071,"x_min":23,"x_max":1044,"o":"m 23 844 l 23 920 l 509 920 l 509 844 l 493 844 q 404 819 425 844 q 384 732 384 794 l 384 369 q 400 213 384 270 q 471 116 416 156 q 603 76 526 76 q 746 119 686 76 q 823 223 805 161 q 840 394 840 284 l 840 703 q 704 844 840 844 l 704 920 l 1044 920 l 1044 844 q 983 828 1015 844 q 939 782 951 811 q 927 699 927 752 l 927 392 q 915 230 927 293 q 855 110 902 168 q 725 16 808 52 q 540 -19 642 -19 q 349 16 433 -19 q 220 104 264 51 q 159 220 175 157 q 143 369 143 283 l 143 732 q 121 821 143 797 q 23 844 98 844 m 349 1078 q 377 1145 349 1116 q 446 1175 404 1175 q 513 1146 485 1175 q 542 1078 542 1118 q 513 1010 542 1039 q 446 982 485 982 q 377 1011 405 982 q 349 1078 349 1040 m 637 1078 q 666 1146 637 1118 q 734 1175 694 1175 q 802 1146 774 1175 q 830 1078 830 1118 q 802 1010 830 1039 q 734 982 773 982 q 666 1010 694 982 q 637 1078 637 1038 m 742 1202 l 684 1202 l 369 1419 l 644 1419 l 742 1202 z "},"ǜ":{"ha":839,"x_min":24,"x_max":823,"o":"m 511 76 q 416 2 467 27 q 306 -22 365 -22 q 169 20 231 -22 q 108 180 108 62 l 108 393 q 91 465 108 446 q 24 484 75 484 l 24 555 l 327 555 l 327 193 q 343 117 327 140 q 395 94 359 94 q 450 115 421 94 q 511 180 479 137 l 511 393 q 495 464 511 444 q 420 484 479 484 l 420 555 l 731 555 l 731 162 q 747 91 731 111 q 823 72 763 72 l 823 0 q 790 1 805 1 q 511 -22 665 1 l 511 76 m 179 783 q 207 850 179 821 q 275 880 234 880 q 343 851 315 880 q 372 783 372 823 q 343 715 372 744 q 275 687 315 687 q 207 716 235 687 q 179 783 179 745 m 467 783 q 495 851 467 823 q 564 880 524 880 q 632 851 604 880 q 660 783 660 823 q 631 715 660 744 q 564 687 603 687 q 496 715 524 687 q 467 783 467 743 m 572 941 l 513 941 l 199 1159 l 474 1159 l 572 941 z "},"Ǟ":{"ha":882,"x_min":-28,"x_max":911,"o":"m 216 248 l 199 203 q 180 135 180 155 q 202 89 180 102 q 275 75 224 75 l 275 0 l -28 0 l -28 75 q 117 223 58 75 l 400 936 l 479 936 l 768 224 q 845 97 810 118 q 911 75 880 75 l 911 0 l 455 0 l 455 75 q 532 87 517 75 q 547 117 547 99 q 534 160 547 134 l 526 181 l 499 248 l 216 248 m 245 326 l 469 326 l 354 601 l 245 326 m 201 1133 q 228 1200 201 1171 q 297 1229 256 1229 q 365 1201 336 1229 q 393 1133 393 1173 q 365 1065 393 1093 q 297 1036 336 1036 q 229 1065 256 1036 q 201 1133 201 1094 m 489 1133 q 517 1201 489 1173 q 585 1229 545 1229 q 653 1200 625 1229 q 682 1133 682 1172 q 653 1065 682 1093 q 585 1036 625 1036 q 517 1064 546 1036 q 489 1133 489 1093 m 194 1304 l 194 1419 l 688 1419 l 688 1304 l 194 1304 z "},"ǟ":{"ha":781,"x_min":67,"x_max":777,"o":"m 439 59 q 336 5 390 23 q 223 -13 282 -13 q 106 22 145 -13 q 67 110 67 58 q 145 241 67 184 q 427 367 223 298 l 427 417 q 401 486 427 471 q 340 501 376 501 q 245 439 255 501 q 218 377 239 396 q 155 357 198 357 q 94 378 117 357 q 71 427 71 399 q 155 534 71 490 q 378 578 238 578 q 508 568 456 578 q 593 533 561 559 q 636 479 625 507 q 646 401 646 450 l 646 144 q 682 85 646 85 q 720 123 712 85 l 777 123 q 725 20 774 54 q 608 -13 676 -13 q 439 59 483 -13 m 427 132 l 427 291 q 304 220 333 252 q 275 154 275 188 q 292 107 275 128 q 337 87 309 87 q 384 98 361 87 q 427 132 406 110 m 150 783 q 177 850 150 821 q 246 880 205 880 q 314 851 286 880 q 342 783 342 823 q 314 715 342 744 q 246 687 286 687 q 178 716 205 687 q 150 783 150 745 m 438 783 q 466 851 438 823 q 534 880 494 880 q 603 851 574 880 q 631 783 631 823 q 602 715 631 744 q 534 687 574 687 q 467 715 495 687 q 438 783 438 743 m 143 997 l 143 1112 l 637 1112 l 637 997 l 143 997 z "},"Ǡ":{"ha":882,"x_min":-28,"x_max":911,"o":"m 216 248 l 199 203 q 180 135 180 155 q 202 89 180 102 q 275 75 224 75 l 275 0 l -28 0 l -28 75 q 117 223 58 75 l 400 936 l 479 936 l 768 224 q 845 97 810 118 q 911 75 880 75 l 911 0 l 455 0 l 455 75 q 532 87 517 75 q 547 117 547 99 q 534 160 547 134 l 526 181 l 499 248 l 216 248 m 245 326 l 469 326 l 354 601 l 245 326 m 345 1133 q 372 1200 345 1171 q 441 1229 399 1229 q 509 1201 480 1229 q 537 1133 537 1173 q 509 1065 537 1093 q 441 1036 480 1036 q 372 1065 400 1036 q 345 1133 345 1094 m 194 1304 l 194 1419 l 688 1419 l 688 1304 l 194 1304 z "},"ǡ":{"ha":781,"x_min":67,"x_max":777,"o":"m 439 59 q 336 5 390 23 q 223 -13 282 -13 q 106 22 145 -13 q 67 110 67 58 q 145 241 67 184 q 427 367 223 298 l 427 417 q 401 486 427 471 q 340 501 376 501 q 245 439 255 501 q 218 377 239 396 q 155 357 198 357 q 94 378 117 357 q 71 427 71 399 q 155 534 71 490 q 378 578 238 578 q 508 568 456 578 q 593 533 561 559 q 636 479 625 507 q 646 401 646 450 l 646 144 q 682 85 646 85 q 720 123 712 85 l 777 123 q 725 20 774 54 q 608 -13 676 -13 q 439 59 483 -13 m 427 132 l 427 291 q 304 220 333 252 q 275 154 275 188 q 292 107 275 128 q 337 87 309 87 q 384 98 361 87 q 427 132 406 110 m 294 783 q 322 850 294 821 q 391 880 349 880 q 458 851 430 880 q 487 783 487 823 q 458 715 487 744 q 391 687 430 687 q 322 716 350 687 q 294 783 294 745 m 143 997 l 143 1112 l 637 1112 l 637 997 l 143 997 z "},"Ǣ":{"ha":1331,"x_min":-38,"x_max":1274,"o":"m 555 439 l 330 439 l 201 198 q 174 127 174 149 q 248 75 174 75 l 248 0 l -38 0 l -38 75 q 50 120 12 79 q 134 247 87 160 l 391 728 q 422 812 422 788 q 406 839 422 832 q 342 846 389 846 l 307 846 l 307 920 l 1211 920 l 1225 681 l 1149 681 q 1101 785 1125 751 q 1053 829 1077 819 q 982 839 1028 839 l 795 839 l 795 520 l 878 520 q 955 539 933 520 q 982 634 977 559 l 1059 634 l 1059 325 l 982 325 q 963 411 980 382 q 892 439 946 439 l 795 439 l 795 211 q 806 124 795 145 q 848 92 817 103 q 948 81 879 81 q 1067 100 1027 81 q 1143 171 1107 118 q 1198 302 1179 224 l 1274 302 l 1267 0 l 427 0 l 427 75 l 445 75 q 534 101 513 75 q 555 188 555 126 l 555 439 m 555 520 l 555 861 l 375 520 l 555 520 m 554 1095 l 554 1211 l 1048 1211 l 1048 1095 l 554 1095 z "},"ǣ":{"ha":1042,"x_min":60,"x_max":997,"o":"m 462 85 q 333 12 394 37 q 216 -12 271 -12 q 104 23 149 -12 q 60 113 60 59 q 133 237 60 179 q 410 367 206 296 l 410 404 q 391 478 410 453 q 321 503 372 503 q 239 442 248 503 q 152 361 228 361 q 89 380 113 361 q 65 427 65 399 q 148 535 65 492 q 362 578 231 578 q 476 570 424 578 q 569 545 528 562 q 640 570 604 562 q 713 578 675 578 q 866 537 797 578 q 963 435 935 496 q 997 285 992 373 l 629 285 q 671 118 629 164 q 773 72 713 72 q 913 144 849 72 l 976 106 q 867 19 938 50 q 715 -12 796 -12 q 586 7 649 -12 q 462 85 523 26 m 633 353 l 794 353 q 767 476 792 447 q 711 505 741 505 q 653 472 673 505 q 633 353 633 440 m 410 132 l 410 292 q 295 221 322 253 q 267 157 267 189 q 283 110 267 130 q 326 90 300 90 q 367 101 346 90 q 410 132 389 111 m 273 726 l 273 841 l 768 841 l 768 726 l 273 726 z "},"Ǧ":{"ha":1099,"x_min":65,"x_max":1071,"o":"m 640 350 l 640 425 l 1071 425 l 1071 350 q 1004 320 1019 341 q 988 231 988 298 l 988 39 q 953 40 966 40 q 726 5 886 40 q 534 -19 611 -19 q 195 121 324 -19 q 65 448 65 261 q 202 792 65 648 q 541 936 338 936 q 830 831 705 936 q 857 926 852 876 l 929 926 l 937 605 l 863 605 q 591 840 793 840 q 407 751 470 840 q 343 452 343 662 q 362 229 343 305 q 434 110 380 152 q 572 68 487 68 q 696 100 647 68 q 746 229 746 133 l 746 262 q 640 350 746 343 m 553 1171 l 714 1296 l 780 1296 l 655 1052 l 454 1052 l 319 1296 l 380 1296 l 553 1171 z "},"ǧ":{"ha":752,"x_min":45,"x_max":760,"o":"m 218 198 q 103 269 144 217 q 62 381 62 321 q 144 527 62 477 q 357 576 227 576 q 483 562 429 576 q 573 518 537 547 q 692 578 644 578 q 760 512 760 578 q 713 456 760 456 q 667 481 696 456 q 645 491 655 491 q 614 475 631 491 q 640 381 640 433 q 574 241 640 299 q 340 176 509 183 q 243 161 270 174 q 216 123 216 149 q 304 87 216 87 q 391 90 323 87 q 439 91 415 91 q 653 45 587 91 q 719 -104 719 -1 q 627 -277 719 -210 q 350 -344 536 -344 q 109 -299 174 -344 q 45 -198 45 -254 q 68 -140 45 -163 q 122 -118 92 -118 q 180 -134 146 -118 q 172 -157 175 -146 q 170 -178 170 -168 q 217 -249 170 -225 q 359 -273 264 -273 q 536 -239 477 -273 q 595 -158 595 -206 q 555 -100 595 -113 q 371 -88 515 -88 q 145 -55 214 -88 q 77 56 77 -22 q 113 147 77 111 q 218 198 148 182 m 273 387 q 293 289 273 321 q 355 256 314 256 q 414 290 394 256 q 433 391 433 323 q 410 477 433 450 q 353 503 386 503 q 293 474 313 503 q 273 387 273 445 m 379 801 l 541 926 l 606 926 l 481 682 l 280 682 l 146 926 l 207 926 l 379 801 z "},"Ǩ":{"ha":1056,"x_min":28,"x_max":1130,"o":"m 394 363 l 394 188 q 415 100 394 124 q 508 75 437 75 l 508 0 l 28 0 l 28 75 l 43 75 q 133 101 112 75 q 153 188 153 126 l 153 732 q 132 820 153 795 q 43 844 111 844 l 28 844 l 28 920 l 519 920 l 519 844 l 504 844 q 415 819 435 844 q 394 732 394 793 l 394 475 l 643 705 q 708 802 708 764 q 626 844 708 844 l 626 920 l 1033 920 l 1033 844 q 916 816 977 844 q 743 684 855 787 l 660 606 l 913 231 q 1018 105 977 136 q 1130 75 1060 75 l 1130 0 l 602 0 l 602 75 q 705 117 705 75 q 663 195 705 134 l 488 450 l 394 363 m 551 1171 l 713 1296 l 779 1296 l 654 1052 l 452 1052 l 318 1296 l 379 1296 l 551 1171 z "},"ǩ":{"ha":839,"x_min":22,"x_max":823,"o":"m 335 221 l 335 162 q 349 94 335 114 q 409 72 363 74 l 409 0 l 22 0 l 22 72 q 99 90 81 72 q 116 162 116 109 l 116 726 q 100 797 116 777 q 22 816 83 816 l 22 888 l 335 936 l 335 311 l 479 414 q 521 461 521 445 q 513 477 521 471 q 465 484 505 484 l 465 555 l 774 555 l 774 484 q 604 416 699 484 l 551 378 l 692 189 q 770 96 743 121 q 823 72 797 72 l 823 0 l 465 0 l 465 72 q 508 97 508 72 q 485 138 508 107 l 393 262 l 335 221 m 355 1171 l 516 1296 l 582 1296 l 457 1052 l 256 1052 l 121 1296 l 182 1296 l 355 1171 z "},"Ǫ":{"ha":1158,"x_min":64,"x_max":1093,"o":"m 64 463 q 83 592 64 530 q 134 706 101 654 q 214 801 168 759 q 317 873 260 844 q 439 920 374 903 q 574 936 504 936 q 781 902 686 936 q 945 804 876 867 q 1054 652 1015 741 q 1093 452 1093 562 q 1061 276 1093 353 q 972 142 1029 199 q 837 47 915 85 q 667 -14 759 9 q 623 -32 640 -22 q 597 -55 606 -42 q 585 -81 588 -67 q 583 -110 583 -95 q 591 -144 583 -130 q 613 -168 599 -158 q 644 -182 627 -178 q 681 -187 662 -187 q 733 -184 715 -187 q 767 -176 751 -181 l 796 -220 q 714 -271 756 -258 q 633 -284 671 -284 q 570 -274 600 -284 q 518 -245 541 -264 q 484 -201 496 -227 q 471 -144 471 -176 q 475 -109 471 -126 q 490 -75 479 -91 q 520 -45 501 -59 q 567 -19 538 -31 q 359 19 452 -18 q 200 120 266 56 q 100 273 135 185 q 64 463 64 361 m 348 470 q 362 288 348 363 q 405 164 376 212 q 476 93 433 115 q 574 70 518 70 q 664 84 627 70 q 728 123 702 98 q 771 184 755 149 q 796 263 787 220 q 808 355 805 306 q 811 456 811 404 q 755 750 811 653 q 577 847 699 847 q 476 825 519 847 q 405 757 433 803 q 362 640 376 711 q 348 470 348 568 z "},"ǫ":{"ha":781,"x_min":52,"x_max":730,"o":"m 52 279 q 78 405 52 349 q 152 499 105 460 q 259 557 198 537 q 390 578 321 578 q 516 558 455 578 q 625 502 578 539 q 702 408 673 464 q 730 279 730 352 q 710 169 730 218 q 654 82 690 119 q 568 19 618 44 q 460 -20 519 -7 q 419 -35 435 -25 q 395 -56 404 -44 q 384 -82 387 -68 q 380 -110 380 -96 q 389 -144 380 -130 q 411 -168 397 -158 q 442 -182 425 -178 q 479 -187 460 -187 q 531 -184 513 -187 q 565 -176 549 -181 l 594 -220 q 512 -271 554 -258 q 431 -284 469 -284 q 368 -274 397 -284 q 316 -245 338 -264 q 281 -201 294 -227 q 269 -144 269 -176 q 273 -109 269 -126 q 287 -77 277 -92 q 315 -47 297 -61 q 359 -21 332 -33 q 241 4 297 -17 q 143 64 185 26 q 76 156 101 102 q 52 279 52 210 m 284 286 q 290 175 284 220 q 308 103 295 130 q 341 64 321 76 q 392 52 362 52 q 437 63 418 52 q 467 93 455 75 q 485 136 479 112 q 494 185 491 160 q 497 236 497 211 q 498 281 498 260 q 491 389 498 347 q 472 456 485 431 q 438 491 458 481 q 391 501 418 501 q 347 491 365 501 q 317 463 329 480 q 298 424 305 446 q 289 377 292 401 q 285 330 286 353 q 284 286 284 306 z "}}}
